<mxfile host="65bd71144e">
    <diagram id="LLkIUu7B0vgxz8H2hBqR" name="Without DSP">
        <mxGraphModel dx="2301" dy="4235" grid="1" gridSize="10" guides="1" tooltips="1" connect="1" arrows="1" fold="1" page="1" pageScale="1" pageWidth="850" pageHeight="1100" math="0" shadow="0">
            <root>
                <mxCell id="0"/>
                <mxCell id="1" parent="0"/>
                <mxCell id="Ag_a3EVzlhamC_244l-3-24" value="" style="shape=image;verticalLabelPosition=bottom;labelBackgroundColor=#ffffff;verticalAlign=top;aspect=fixed;imageAspect=0;image=data:image/svg+xml,PHN2ZyB4bWxucz0iaHR0cDovL3d3dy53My5vcmcvMjAwMC9zdmciIHdpZHRoPSIzODA4IiBoZWlnaHQ9IjE3NDciIHZpZXdCb3g9IjAgMCAzODA4IDE3NDciIGZpbGw9Im5vbmUiPgo8ZyBvcGFjaXR5PSIwLjIiIGNsaXAtcGF0aD0idXJsKCNjbGlwMF8xXzY4MCkiPgo8cGF0aCBkPSJNMzUwMS4wOSAyMTMuOTAxQzM0OTUuNjggMjA5LjI5NyAzNDg5LjY4IDIwNS41OCAzNDgzLjIyIDIwMy44NDhDMzQ3Ny45NCAyMDIuNDEyIDM0NjcgMjAwLjk3NiAzNDUxLjg0IDE5OS40NTVDMzM5Mi4yNCAxOTMuNDk5IDMyNjYuNCAxODYuNzgzIDMxNTMuODggMTc5LjY4N0MzMTAzLjQgMTc2LjUxOSAzMDA5Ljk3IDE3NC4xNTMgMjkwMC41MiAxNzIuMzM3QzI5MTIuNzcgMTc5LjIyMiAyOTI0Ljg1IDE4Ny4zNzQgMjkzNS42NyAxOTYuNjY3QzMwODQuNDQgMjA0LjM1NSAzMjMyLjI4IDIxNC45OTkgMzM4MC4yIDIyNy45NjdDMzQyNy44OSAyMzIuMTQ5IDM0NzUuNjIgMjM2LjU4NCAzNTIzLjM5IDI0MS4yNzJDMzUxOC42MiAyMzMuNSAzNTEwLjg1IDIyMi4yNjQgMzUwMS4wOSAyMTMuOTAxVjIxMy45MDFaIiBzdHJva2U9IiMyMzFGMjAiIHN0cm9rZS13aWR0aD0iNi40MjUwOCIgc3Ryb2tlLW1pdGVybGltaXQ9IjEwIiBzdHJva2UtbGluZWNhcD0icm91bmQiIHN0cm9rZS1saW5lam9pbj0icm91bmQiLz4KPHBhdGggZD0iTTI5MDAuNDggMTcyLjM3OUMyNzQ0LjQxIDE2OS44NDUgMjU1NS42OCAxNjguNDUxIDI0MTIuMTUgMTY3LjYwNkMyNDMyIDE3MC45ODYgMjQ1Mi43IDE3Mi4xMjYgMjQ3MS40MSAxNzMuOTg0QzI1MTIuOTggMTc4LjA0IDI1NTQuNDYgMTc5Ljg5OCAyNTk2LjE5IDE4MS41MDNDMjY0Ni4xMiAxODMuNDQ2IDI2OTYuMDQgMTg1LjUxNiAyNzQ2LjAxIDE4Ny43MTJIMjg2Ni45QzI4NjguNjggMTg3LjcxMiAyODcwLjQ1IDE4OC4xMzUgMjg3Mi4wMSAxODguOThDMjg3My44NyAxODkuOTkzIDI4NzYuNTggMTkxLjY0MSAyODc5LjI0IDE5My45MjJDMjg5NC42MSAxOTQuNjgyIDI5MDkuOTkgMTk1LjQgMjkyNS4zNiAxOTYuMjAzQzI5MjguNzggMTk2LjM3MiAyOTMyLjIgMTk2LjU4MyAyOTM1LjYzIDE5Ni43NTJDMjkyNC44MSAxODcuMzc0IDI5MTIuNzcgMTc5LjI2NCAyOTAwLjQ4IDE3Mi4zNzlWMTcyLjM3OVoiIHN0cm9rZT0iIzIzMUYyMCIgc3Ryb2tlLXdpZHRoPSI2LjQyNTA4IiBzdHJva2UtbWl0ZXJsaW1pdD0iMTAiIHN0cm9rZS1saW5lY2FwPSJyb3VuZCIgc3Ryb2tlLWxpbmVqb2luPSJyb3VuZCIvPgo8cGF0aCBkPSJNODc2LjUyNCAyMzAuMDc5QzkxMy40ODQgMjIzLjk1NCA5ODYuODEyIDIxMy4zOTQgMTA1My45MyAyMTMuMzk0SDEwNTMuOTdDMTA1My44OSAyMTEuMzY3IDEwNTUuMTYgMjA5LjI1NSAxMDU3Ljc4IDIwOS4wMDFDMTA4OS4wNyAyMDYuMjk4IDExMjAuNDIgMjA0LjI3IDExNTEuNzYgMjAyLjcwOEMxMTQyLjM0IDE5MS4wMDcgMTEzNC41NyAxNzguOTY5IDExMjguMzYgMTY3Ljg2Qzk5OC4wOSAxODAuMTA5IDg5MS41MiAyMTEuMzY3IDgzOS41NjUgMjI4Ljg5NkM4NTYuMTY1IDIyOC45ODEgODY4Ljk2NCAyMjkuMzE5IDg3Ni41MjQgMjMwLjA3OVYyMzAuMDc5WiIgc3Ryb2tlPSIjMjMxRjIwIiBzdHJva2Utd2lkdGg9IjYuNDI1MDgiIHN0cm9rZS1taXRlcmxpbWl0PSIxMCIgc3Ryb2tlLWxpbmVjYXA9InJvdW5kIiBzdHJva2UtbGluZWpvaW49InJvdW5kIi8+CjxwYXRoIGQ9Ik01MDEuODU4IDIwMi4yODVDNTAzLjYzMiAyMDUuMzI2IDUwNC40NzcgMjA4Ljc0OCA1MDIuNTc2IDIxMS45MTZDNDk4LjQzNyAyMTguODAxIDQ4OC4xMyAyMjIuMjY1IDQ3NC40NDUgMjIyLjg5OEM0NjcuNDc1IDIyOC40MzIgNDU4LjU2MyAyMzUuNTI4IDQ0OC40NjcgMjQzLjYzOEM1MTIuNzk4IDI0MC4zMDEgNzQxLjkwNyAyMjguODEyIDgzOS41NjUgMjI4LjkzOEM4OTEuNTIgMjExLjQwOSA5OTguMDkxIDE4MC4xMDkgMTEyOC4zNiAxNjcuOTAyQzk1My42OTcgMTY5LjkzIDYzMC42ODkgMTc2LjM1IDQ5Ni41MzYgMTk2Ljg3OUM0OTguNjQ4IDE5OC4zMTUgNTAwLjU0OSAyMDAuMDQ3IDUwMS44NTggMjAyLjI4NVYyMDIuMjg1WiIgc3Ryb2tlPSIjMjMxRjIwIiBzdHJva2Utd2lkdGg9IjYuNDI1MDgiIHN0cm9rZS1taXRlcmxpbWl0PSIxMCIgc3Ryb2tlLWxpbmVjYXA9InJvdW5kIiBzdHJva2UtbGluZWpvaW49InJvdW5kIi8+CjxwYXRoIGQ9Ik00OTYuNTM2IDE5Ni44MzZDNDkzLjE1NyAxOTQuNTEzIDQ4OS4xMDIgMTkzLjE2MiA0ODQuODc4IDE5My4xNjJDNDcxLjQ4OCAxOTMuMjA0IDQ0My4xNDUgMTk0LjIxOCA0MDkuMDE1IDIwMC4xMzFDMzg0LjQ3NCAyMDQuMzk3IDM1Ni45MzQgMjExLjE5OCAzMjkuNjQ3IDIyMi4wOTZDMjQ5LjA5NiAyNTQuMzI1IDIxNS4yMiAzNDIuNDc5IDE3Ny4wMzUgMzk1Ljg3QzE0Mi4yMjkgNDQ0LjU3MiA5My40NDI1IDUyNC45OTcgNzMuNTQ3NiA2MDEuODMxQzc3LjY0NDkgNTk1LjYyMiA4Mi4xNjQ1IDU4OS43OTMgODcuMTkxIDU4NC41MTNDMTAzLjk2IDU2Ni44OTkgMTIyLjU0NiA1NTAuOTMyIDE0Mi4zNTYgNTM2LjczOUMxMjguMDM3IDUxNy4yMjUgMTI5LjMwNCA1MDIuMzk5IDEzOS43MzcgNDgxLjUzMkMxNTAuNzYyIDQ1OS40ODMgMjYyLjY1NSAyODQuODY0IDI5OC4yNjMgMjU1LjE2OUMzMTguMiAyMzguNTI3IDM2Mi4xMjkgMjMwLjE2NCA0MDAuMTQ1IDIyNi4xNTFDNDI5Ljk2NiAyMjMuMDI1IDQ1Ni4xOTcgMjIyLjU2IDQ2NC4zOTIgMjIyLjk0MUM0NjcuODk4IDIyMy4xMSA0NzEuMjM1IDIyMy4wNjcgNDc0LjQwMiAyMjIuODk4QzQ4OC4wODggMjIyLjI2NSA0OTguNDM3IDIxOC44MDEgNTAyLjUzNCAyMTEuOTE2QzUwNC40MzUgMjA4Ljc0OCA1MDMuNTkgMjA1LjMyNyA1MDEuODE2IDIwMi4yODVDNTAwLjU0OSAyMDAuMDQ3IDQ5OC42NDggMTk4LjMxNSA0OTYuNTM2IDE5Ni44MzZWMTk2LjgzNloiIHN0cm9rZT0iIzIzMUYyMCIgc3Ryb2tlLXdpZHRoPSI2LjQyNTA4IiBzdHJva2UtbWl0ZXJsaW1pdD0iMTAiIHN0cm9rZS1saW5lY2FwPSJyb3VuZCIgc3Ryb2tlLWxpbmVqb2luPSJyb3VuZCIvPgo8cGF0aCBkPSJNMzY1OS41MyAzNDUuODU4QzM2MTguNTYgMjc4Ljk5MyAzNTYwLjM1IDI0NC44NjMgMzU2MC4zNSAyNDQuODYzQzM1NjAuMzUgMjQ0Ljg2MyAzNjExLjg0IDI5My40MzkgMzY1OS4wNyAzNjYuNTEzQzM2NjcuODEgMzgwLjAzIDM2NzYuMzggMzk0LjM0OSAzNjg0LjQ1IDQwOS4zNDRDMzY4Ny4yOCA0MDkuNTk4IDM2OTAuNjYgNDEwLjEwNSAzNjk0LjUgNDExLjAzNEMzNjgzLjE0IDM4Ny4xNjkgMzY3MS4xIDM2NC42OTcgMzY1OS41MyAzNDUuODU4VjM0NS44NThaIiBzdHJva2U9IiMyMzFGMjAiIHN0cm9rZS13aWR0aD0iNi40MjUwOCIgc3Ryb2tlLW1pdGVybGltaXQ9IjEwIiBzdHJva2UtbGluZWNhcD0icm91bmQiIHN0cm9rZS1saW5lam9pbj0icm91bmQiLz4KPHBhdGggZD0iTTEwOS43ODkgNjEzLjU3M0MyNjUuMzU4IDU2MS43MDMgNjIwLjc2MyA1MDQuMDg4IDc0MS4yNzMgNDg1LjcxNEw3NzQuNzI3IDQyNy42NzZDNzc0LjcyNyA0MjcuNjc2IDI0OC4yOTMgNTMxLjMzMyAxNzUuMTc2IDU0OS43NDlDMTYwLjA1NCA1NTMuNTUxIDE0Ny4xNzEgNTU4LjUzNSAxMzUuODkzIDU2NC40NDlDMTMwLjQwMiA1NzMuNDAzIDEyNC45OTUgNTgyLjQ0MyAxMTkuODQyIDU5MS43MzZDMTE2LjE2NyA1OTguMzI1IDExMi44MyA2MDUuNjc1IDEwOS43ODkgNjEzLjU3M1Y2MTMuNTczWiIgc3Ryb2tlPSIjMjMxRjIwIiBzdHJva2Utd2lkdGg9IjYuNDI1MDgiIHN0cm9rZS1taXRlcmxpbWl0PSIxMCIgc3Ryb2tlLWxpbmVjYXA9InJvdW5kIiBzdHJva2UtbGluZWpvaW49InJvdW5kIi8+CjxwYXRoIGQ9Ik0xNjMuOTQxIDUyMi4yNTFDMTYzLjk0MSA1MjIuMjA5IDE2My45ODMgNTIyLjIwOSAxNjMuOTgzIDUyMi4xNjdMMTYzLjg1NiA1MjIuMjA5TDE2My45NDEgNTIyLjI1MVoiIHN0cm9rZT0iIzIzMUYyMCIgc3Ryb2tlLXdpZHRoPSI2LjQyNTA4IiBzdHJva2UtbWl0ZXJsaW1pdD0iMTAiIHN0cm9rZS1saW5lY2FwPSJyb3VuZCIgc3Ryb2tlLWxpbmVqb2luPSJyb3VuZCIvPgo8cGF0aCBkPSJNMzcyOC41MSA1MjQuMzYzQzM3MzUuNzcgNTQxLjU1NSAzNzQyLjQ5IDU1OS4zMzggMzc0OC4yMyA1NzcuMjQ3QzM3NDQuNjQgNTMyLjE3NyAzNzIxLjUgNDY3LjU1MSAzNjk0LjU1IDQxMS4wMzRDMzY5MC43IDQxMC4xMDUgMzY4Ny4zMiA0MDkuNTk4IDM2ODQuNDkgNDA5LjM0NEMzNzAzLjQyIDQ0NC41NzIgMzcxOS42IDQ4My41NiAzNzI4LjUxIDUyNC4zNjNWNTI0LjM2M1oiIHN0cm9rZT0iIzIzMUYyMCIgc3Ryb2tlLXdpZHRoPSI2LjQyNTA4IiBzdHJva2UtbWl0ZXJsaW1pdD0iMTAiIHN0cm9rZS1saW5lY2FwPSJyb3VuZCIgc3Ryb2tlLWxpbmVqb2luPSJyb3VuZCIvPgo8cGF0aCBkPSJNMzU2MC4zNSAyNDQuODYzQzM1NDguMDIgMjQzLjYzOCAzNTM1LjY4IDI0Mi40NTUgMzUyMy4zNSAyNDEuMjczQzM0NzUuNTggMjM2LjYyNiAzNDI3Ljg1IDIzMi4xOTEgMzM4MC4xNiAyMjcuOTY3QzM0NTkuNTIgMjU2LjA5OSAzNjEzLjM2IDMxNS4zNjEgMzY1OS4xMSAzNjYuNTEzQzM2MTEuODggMjkzLjQzOSAzNTYwLjM1IDI0NC44NjMgMzU2MC4zNSAyNDQuODYzWiIgc3Ryb2tlPSIjMjMxRjIwIiBzdHJva2Utd2lkdGg9IjYuNDI1MDgiIHN0cm9rZS1taXRlcmxpbWl0PSIxMCIgc3Ryb2tlLWxpbmVjYXA9InJvdW5kIiBzdHJva2UtbGluZWpvaW49InJvdW5kIi8+CjxwYXRoIGQ9Ik0xMDIuNzM1IDYzNC4zOThDMjY5LjU0IDU3MS43OTggNzMxLjQzMSA1MDIuNjk0IDczMS40MzEgNTAyLjY5NEw3NDEuMjMgNDg1LjcxNEM2MjAuNzIgNTA0LjA4OCAyNjUuMzE2IDU2MS43MDMgMTA5Ljc0NyA2MTMuNTczQzEwNy4yNTUgNjIwLjEyMSAxMDQuODg5IDYyNy4wOSAxMDIuNzM1IDYzNC4zOThaIiBmaWxsPSIjMjMxRjIwIi8+CjxwYXRoIGQ9Ik0yOTc0LjU3IDM4Mi4zMTFDMjcxOC41NiA0MTQuNTQgMjMzMC4yOSA0MDYuMDUgMjIwMS40MiA0MDUuNjI3QzIwNzIuNTQgNDA1LjIwNSAxNjUyLjA5IDM1Ni44ODMgMTU3Mi4zOCAzNDUuMDEzQzE0OTIuNjggMzMzLjE0NCAxMjA1Ljc0IDI4Mi43MSAxMDkwIDI2MS44NDNDOTc0LjI2NyAyNDAuOTc3IDkxMS40NTcgMjQ1LjIwMSA5MTEuNDU3IDI0NS4yMDFIOTExLjQxNUM5MjcuODA0IDI1OC4xMjYgOTM5LjA4MiAyNzUuOTUxIDk0NC42OTkgMjg2LjM0MkM5NDYuMzA1IDI4NC44NjQgOTQ3Ljg2NyAyODMuMzg2IDk0OS41MTUgMjgyLjAzNEM5NjAuMzI4IDI3My4xMjEgOTg4LjI5MSAyNzIuNDg4IDk4OC4yOTEgMjcyLjQ4OEM5ODguMjkxIDI3Mi40ODggMTA2Mi4wNCAyNzEuMjIxIDExMzkuNTkgMjg3LjczNkMxMjE3LjE1IDMwNC4yNTIgMTc0MC4yIDM5Ny41MTcgMTk2MC42MSA0MDkuMzg3QzIxNjcuOTIgNDIwLjUzOCAyNTk4LjY4IDQzMC4yMTEgMjg4MC41NSA0MDguNzUzQzI4OTguMzcgNDA3LjQwMSAyOTE1LjYgNDA1LjkyMyAyOTMyLjEyIDQwNC4zMThDMzA5Mi4yNSAzODguNjg5IDMyNjEuOTcgMzc3LjkxOCAzNDAxLjI4IDM3Mi4zNDJDMzQwNy45NSAzNzIuMDg5IDM0MTQuNTQgMzcxLjgzNiAzNDIxLjA5IDM3MS41ODJDMzUxNC45NCAzNjguMDc2IDM1OTMuNDcgMzY3LjAyIDM2NDMuMzkgMzY4LjQ5OUMzNTUxLjkgMzQ3LjU0OCAzMjMwLjU5IDM1MC4xMjQgMjk3NC41NyAzODIuMzExVjM4Mi4zMTFaIiBzdHJva2U9IiMyMzFGMjAiIHN0cm9rZS13aWR0aD0iNi40MjUwOCIgc3Ryb2tlLW1pdGVybGltaXQ9IjEwIiBzdHJva2UtbGluZWNhcD0icm91bmQiIHN0cm9rZS1saW5lam9pbj0icm91bmQiLz4KPHBhdGggZD0iTTYxLjM0MDIgNjY3LjM4N0M0Ni43Njc1IDcxMy43NjYgNDYuODUxOSA3ODYuNzU2IDQ3LjIzMjEgODA3LjkxOEg4MC41MTdDODIuNTAyMyA3NDUuMjM0IDg4LjY2OTMgNjgyLjI1NSAxMDIuNzc3IDYzNC40NEMxMDQuOTMyIDYyNy4xMzIgMTA3LjI1NSA2MjAuMTYzIDEwOS43ODkgNjEzLjYxNkMxMTIuODMgNjA1LjcxNyAxMTYuMTY3IDU5OC4zNjcgMTE5Ljg0MiA1OTEuNzM1QzEyNC45OTUgNTgyLjQ0MyAxMzAuMzYgNTczLjQwMyAxMzUuODkzIDU2NC40NDhDOTIuNjgyMSA1ODcuMDg5IDc0Ljk0MTQgNjI0LjAwNiA2MS4zNDAyIDY2Ny4zODdWNjY3LjM4N1oiIHN0cm9rZT0iIzIzMUYyMCIgc3Ryb2tlLXdpZHRoPSI2LjQyNTA4IiBzdHJva2UtbWl0ZXJsaW1pdD0iMTAiIHN0cm9rZS1saW5lY2FwPSJyb3VuZCIgc3Ryb2tlLWxpbmVqb2luPSJyb3VuZCIvPgo8cGF0aCBkPSJNODgwLjI0MSAyMzAuNTg2Qzg3OS4yMjggMjMwLjQxNyA4NzcuOTE4IDIzMC4yNDggODc2LjUyNCAyMzAuMTIxQzg2OC45NjMgMjI5LjMxOSA4NTYuMTY1IDIyOC45ODEgODM5LjU2NSAyMjguOTgxQzc0MS45MDYgMjI4Ljg5NiA1MTIuNzk4IDI0MC4zODYgNDQ4LjQ2NyAyNDMuNjhDNDE4LjY0NiAyNjcuNjMgMzc4LjMwNyAzMDAuNTc3IDM0NS41NzEgMzI5LjEzMUMzMjQuNTc4IDM0Ny40NjMgMjk4LjU1OCAzNzAuNjk1IDI3MC44NDkgMzk4LjE1MUMzMDcuMjE4IDM4MS4yMTMgNDA2LjEwMSAzMzkuMzk1IDU0NC42MDUgMzE0LjUxNkM3MjAuNzQ0IDI4Mi44MzYgOTEwLjIzMiAyNDUuNDk2IDkxMS41NDEgMjQ1LjI0M0M5MDIuNTQ0IDIzOC4xODkgODkyLjE1MyAyMzIuNjEzIDg4MC4yNDEgMjMwLjU4NlYyMzAuNTg2WiIgc3Ryb2tlPSIjMjMxRjIwIiBzdHJva2Utd2lkdGg9IjYuNDI1MDgiIHN0cm9rZS1taXRlcmxpbWl0PSIxMCIgc3Ryb2tlLWxpbmVjYXA9InJvdW5kIiBzdHJva2UtbGluZWpvaW49InJvdW5kIi8+CjxwYXRoIGQ9Ik0yOTU0LjU1IDMxMy42MjlDMjkzNS43MSAzMTUuNTMgMjkxNi44NyAzMTcuMzA0IDI4OTguMDMgMzE4Ljk5M0MyODQwLjkyIDMyNC4wNjIgMjc4My43MyAzMjguMjAyIDI3MjYuNTQgMzMxLjc5MkMyNjI2LjIyIDMzOC4wNDQgMjUyNS43NyAzNDIuNDM2IDI0MjUuMjkgMzQzLjc4OEMyMzEzLjkgMzQ1LjI2NyAyMjI3LjYgMzQ3Ljg4NSAyMTQ4LjE1IDM0OC40MzVDMjAyMy41NCAzNDkuMzIyIDE5MTUuODcgMzQ1LjIyNCAxNzU1LjE1IDMyMy45MzZDMTYyNS4zOSAzMDYuNzQ0IDE0NDYuMTMgMjc5LjMzIDEyOTcuNjEgMjU1Ljg4N0MxMjU5LjA1IDI0OS44MDUgMTIyMi41NSAyNDQuMDE4IDExODkuNTYgMjM4LjY5NkMxMjA0LjUyIDI0OS4yNTYgMTIyMS42NyAyNTcuNTc3IDEyNDEuMzkgMjYxLjg0M0MxMzkwLjc5IDI5NC4wNzIgMTU0MS42MyAzMjEuODI0IDE2OTMuMTkgMzQxLjc2MUMxODU4LjcyIDM2My41MTQgMjAyNi4yIDM2Ny42MTEgMjE5Mi45NyAzNzAuODY0QzIzMjYuOTUgMzczLjQ4MyAyNDYxLjUzIDM3Ni4xNDQgMjU5NS40MyAzNzAuMjcyQzI2MDAuMTYgMzcwLjA2MSAyNjA0Ljg5IDM2OS44NSAyNjA5LjYyIDM2OS41OTdDMjY4NS40OCAzNjUuNDU3IDI3NjEuNzMgMzY0LjQwMSAyODM3LjIxIDM1NS4yMzVDMjg3MC4zMiAzNTEuMjIyIDI5NDMuMDYgMzQ2LjQ5MiAyOTY3LjgxIDMxMi43ODRDMjk2MS40MyAzMTMuMTY0IDI5NTYuNjYgMzEzLjQxOCAyOTU0LjU1IDMxMy42MjlWMzEzLjYyOVoiIHN0cm9rZT0iIzIzMUYyMCIgc3Ryb2tlLXdpZHRoPSI2LjQyNTA4IiBzdHJva2UtbWl0ZXJsaW1pdD0iMTAiIHN0cm9rZS1saW5lY2FwPSJyb3VuZCIgc3Ryb2tlLWxpbmVqb2luPSJyb3VuZCIvPgo8cGF0aCBkPSJNMzY4NC40NSA0MDkuMzQ0QzM2NzYuMzggMzk0LjMwNyAzNjY3LjgxIDM3OS45ODggMzY1OS4wNyAzNjYuNTEzQzM2MTMuMzYgMzE1LjM2MSAzNDU5LjQ4IDI1Ni4xNDEgMzM4MC4xMSAyMjcuOTY3QzMyMzIuMTkgMjE0Ljk5OSAzMDg0LjM1IDIwNC4zNTUgMjkzNS41OCAxOTYuNjY3QzI5NTQuNTEgMjEyLjkzIDI5NjkuNTkgMjMyLjc4MiAyOTc1LjI1IDI1NS44NDVDMzAwNC4yMiAyNTkuMDEzIDMwMzQuMjYgMjY0LjUwNCAzMDU2LjkgMjc5LjU0MkMzMDYwLjcgMjgyLjA3NiAzMDYzLjc4IDI4Ni4xMzEgMzA2My45NSAyOTAuNjkzQzMwNjQuNSAzMDYuNTMzIDI5OTcuOTMgMzExLjAxIDI5NjcuNzcgMzEyLjc0MkMyOTQzLjAyIDM0Ni40NDkgMjg3MC4yOCAzNTEuMTM4IDI4MzcuMTcgMzU1LjE5M0MyNzYxLjY4IDM2NC40MDEgMjY4NS40NCAzNjUuNDE1IDI2MDkuNTggMzY5LjU1NUMyNjA0Ljg1IDM2OS44MDggMjYwMC4xMiAzNzAuMDE5IDI1OTUuMzkgMzcwLjIzQzI0NjEuNDkgMzc2LjEwMiAyMzI2Ljg3IDM3My40NDEgMjE5Mi45MyAzNzAuODIyQzIwMjYuMTYgMzY3LjU2OSAxODU4LjY4IDM2My40NzIgMTY5My4xNCAzNDEuNzE5QzE1NDEuNTkgMzIxLjc4MSAxMzkwLjc1IDI5NC4wMyAxMjQxLjM1IDI2MS44MDFDMTIyMS42MiAyNTcuNTM1IDEyMDQuNDMgMjQ5LjIxNCAxMTg5LjUyIDIzOC42NTRDMTEzMi43OSAyMjkuNTcyIDEwODYuMzcgMjIyLjAxMSAxMDU3LjQ0IDIxNy4yOEMxMDU1LjE2IDIxNi45IDEwNTQuMDYgMjE1LjEyNiAxMDUzLjk3IDIxMy4zNTJIMTA1My45M0M5ODYuODEyIDIxMy4zNTIgOTEzLjQ4NCAyMjMuOTEyIDg3Ni41MjUgMjMwLjAzN0M4NzcuOTE4IDIzMC4xNjMgODc5LjIyOCAyMzAuMzMyIDg4MC4yNDIgMjMwLjUwMUM4OTIuMTUzIDIzMi41MjkgOTAyLjU0NCAyMzguMTQ3IDkxMS40NTcgMjQ1LjE1OUg5MTEuNDk5QzkxMS40OTkgMjQ1LjE1OSA5NzQuMzA5IDI0MC45NzcgMTA5MC4wNSAyNjEuODAxQzEyMDUuNzggMjgyLjYyNSAxNDkyLjcyIDMzMy4xMDIgMTU3Mi40MiAzNDQuOTcxQzE2NTIuMTMgMzU2Ljg0IDIwNzIuNTggNDA1LjE2MyAyMjAxLjQ2IDQwNS41ODVDMjMzMC4zMyA0MDYuMDA3IDI3MTguNTYgNDE0LjQ5OCAyOTc0LjYxIDM4Mi4yNjlDMzIzMC42MyAzNTAuMDQgMzU1MS45IDM0Ny41MDUgMzY0My40OCAzNjguNDk5QzM2NDMuNDggMzY4LjQ5OSAzNjkyLjQ4IDQzOS4xMjMgMzcyOC41NSA1MjQuMzIxQzM3MTkuNiA0ODMuNTYgMzcwMy40MiA0NDQuNTcyIDM2ODQuNDUgNDA5LjM0NFY0MDkuMzQ0WiIgc3Ryb2tlPSIjMjMxRjIwIiBzdHJva2Utd2lkdGg9IjYuNDI1MDgiIHN0cm9rZS1taXRlcmxpbWl0PSIxMCIgc3Ryb2tlLWxpbmVjYXA9InJvdW5kIiBzdHJva2UtbGluZWpvaW49InJvdW5kIi8+CjxwYXRoIGQ9Ik0yMzguMDcxIDM2MC4yNjJDMjY2LjAzNCAzMTkuNTg1IDI5NC44ODQgMzA3LjcxNiAyOTQuODg0IDMwNy43MTZDMzE3LjczNSAyODEuNCAzNjkuMTQxIDI0Ni4yNTcgNDAwLjE4NyAyMjYuMTUxQzM2Mi4xNzIgMjMwLjE2NCAzMTguMjQyIDIzOC41MjcgMjk4LjMwNSAyNTUuMTY5QzI2Mi42OTcgMjg0LjgyMiAxNTAuODA0IDQ1OS40ODMgMTM5Ljc4IDQ4MS41MzJDMTI5LjM0NiA1MDIuNDQxIDEyOC4wMzcgNTE3LjIyNSAxNDIuMzk4IDUzNi43MzlDMTQ5LjQ1MiA1MzEuNjcxIDE1Ni41OTEgNTI2LjgxMyAxNjMuOTQxIDUyMi4yNTFDMTIxLjAyNSA1MTAuMzgyIDIxMC4xMDkgNDAwLjk4MSAyMzguMDcxIDM2MC4yNjJWMzYwLjI2MloiIHN0cm9rZT0iIzIzMUYyMCIgc3Ryb2tlLXdpZHRoPSI2LjQyNTA4IiBzdHJva2UtbWl0ZXJsaW1pdD0iMTAiIHN0cm9rZS1saW5lY2FwPSJyb3VuZCIgc3Ryb2tlLWxpbmVqb2luPSJyb3VuZCIvPgo8cGF0aCBkPSJNMzUyMy4zNSAyNDEuMjczQzM1MzUuNjggMjQyLjQ1NSAzNTQ4LjAyIDI0My42MzggMzU2MC4zNSAyNDQuODYzQzM1NjAuMzUgMjQ0Ljg2MyAzNjE4LjU2IDI3OC45OTMgMzY1OS41MyAzNDUuODU4QzM2NzEuMDYgMzY0LjY5NyAzNjgzLjEgMzg3LjE2OSAzNjk0LjUgNDExLjAzNEMzNjk4LjMxIDQxMS45NjMgMzcwMi40OSA0MTMuMjMgMzcwNi45NyA0MTUuMjE2QzM2OTUuODEgMzg2Ljc0NiAzNjY2LjIgMzE2Ljc1NSAzNjMxLjU3IDI4MS40NDNDMzU5NC4xIDI0My4yNTggMzU1NC43MyAyMjEuMDQgMzUwMS4wNSAyMTMuOTAxQzM1MTAuODUgMjIyLjI2NSAzNTE4LjYyIDIzMy41MDEgMzUyMy4zNSAyNDEuMjczWiIgc3Ryb2tlPSIjMjMxRjIwIiBzdHJva2Utd2lkdGg9IjYuNDI1MDgiIHN0cm9rZS1taXRlcmxpbWl0PSIxMCIgc3Ryb2tlLWxpbmVjYXA9InJvdW5kIiBzdHJva2UtbGluZWpvaW49InJvdW5kIi8+CjxwYXRoIGQ9Ik0zNzMzLjI4IDQzMy44MDFMMzczMy4zMiA0MzMuOTdDMzczOC42OSA0MzkuNTAzIDM3NDMuOTMgNDQ2LjEzNSAzNzQ4Ljc0IDQ1NC40MTRDMzc1Ni45OCA0NjguNDM4IDM3NjQuNzEgNDkyLjEzNCAzNzcxLjU5IDUyMC4zOTNDMzc2NS40MyA0NzAuNTA3IDM3NDUuNzQgMzc0LjM3IDM2ODMuMjcgMjkwLjYwOEMzNjYyLjc0IDI2My4wNjggMzYyOS44OCAyNDAuNzY2IDM1OTEuNDggMjIyLjY0NUMzNTkxLjUyIDIyMi42MDMgMzcwNS4zNiAzMDEuNjc1IDM3MzMuMjggNDMzLjgwMVoiIHN0cm9rZT0iIzIzMUYyMCIgc3Ryb2tlLXdpZHRoPSI2LjQyNTA4IiBzdHJva2UtbWl0ZXJsaW1pdD0iMTAiIHN0cm9rZS1saW5lY2FwPSJyb3VuZCIgc3Ryb2tlLWxpbmVqb2luPSJyb3VuZCIvPgo8cGF0aCBkPSJNMzczMy4yOCA0MzMuODAxQzM3MDUuMzYgMzAxLjY3NSAzNTkxLjQ4IDIyMi42MDMgMzU5MS40OCAyMjIuNjAzQzM0NjMuNDUgMTYyLjI0MiAzMjczLjggMTQ5LjE5IDMyNzMuOCAxNDkuMTlMMzI3MS43NyAxNjIuOTE4QzMzOTguNTMgMTc5LjMwNyAzNDUxLjg0IDE5OS40NTUgMzQ1MS44NCAxOTkuNDU1QzM0NjcgMjAwLjk3NiAzNDc3Ljk0IDIwMi40NTQgMzQ4My4yMiAyMDMuODQ4QzM0ODkuNjQgMjA1LjU4IDM0OTUuNjggMjA5LjI5NyAzNTAxLjA5IDIxMy45MDFDMzU1NC43MyAyMjEuMDQgMzU5NC4xIDI0My4yMTYgMzYzMS42MSAyODEuNDQyQzM2NjYuMjUgMzE2LjcxMyAzNjk1Ljg2IDM4Ni43NDYgMzcwNy4wMSA0MTUuMjE2QzM3MTEuMjcgNDE3LjA3NCAzNzE1Ljc1IDQxOS42MDkgMzcyMC4zMSA0MjIuNzM0QzM3MjQuNjYgNDI1LjczMyAzNzI5LjA2IDQyOS40NSAzNzMzLjM3IDQzMy45N0wzNzMzLjI4IDQzMy44MDFaIiBzdHJva2U9IiMyMzFGMjAiIHN0cm9rZS13aWR0aD0iNi40MjUwOCIgc3Ryb2tlLW1pdGVybGltaXQ9IjEwIiBzdHJva2UtbGluZWNhcD0icm91bmQiIHN0cm9rZS1saW5lam9pbj0icm91bmQiLz4KPHBhdGggZD0iTTMxMy41NTQgMTk4LjMxNUMzNTkuNzY0IDE4MS41NDUgNDA3LjkxNyAxNzcuMTUzIDQzMy45MzcgMTc2LjA1NEM0NDYuMzEzIDE2OSA0NjEuMDk3IDE2NC4xNDMgNDc1LjcxMiAxNjAuNTk1QzQ2NC4zOTIgMTU1LjUyNiA0NDYuMzU1IDE1MS40MjkgNDIwLjM3OCAxNTYuNzkzQzM3MS4yMTEgMTY2Ljk3MyAyMzkuODAzIDIwMS43MzYgMjI1LjM5OSAyMTguNjc0QzIxMC45OTYgMjM1LjYxMiA2MS44MDQ5IDQ1MC45NSA1NS4wMDQzIDQ2OC43NzZDNTEuNjY3MyA0NzcuNTYxIDUzLjkwNjEgNDg3Ljk5NSA1Ni45ODk2IDQ5Ni4zMTZDMTAyLjM1NSA0MTguNDI2IDE3OS42MTEgMzE3Ljg5NSAxNzkuNjExIDMxNy44OTVDMTc5LjYxMSAzMTcuODk1IDI0NS43MTcgMjIyLjk0IDMxMy41NTQgMTk4LjMxNVYxOTguMzE1WiIgc3Ryb2tlPSIjMjMxRjIwIiBzdHJva2Utd2lkdGg9IjYuNDI1MDgiIHN0cm9rZS1taXRlcmxpbWl0PSIxMCIgc3Ryb2tlLWxpbmVjYXA9InJvdW5kIiBzdHJva2UtbGluZWpvaW49InJvdW5kIi8+CjxwYXRoIGQ9Ik0xNDIuMzU2IDUzNi43MzlDMTIyLjU4OCA1NTAuOTMyIDEwMy45NiA1NjYuODk4IDg3LjE5MSA1ODQuNTEyQzgyLjE2NDUgNTg5Ljc5MiA3Ny42NDQ5IDU5NS42MjIgNzMuNTQ3NiA2MDEuODMxQzYyLjU2NTMgNjE4LjQzMSA1NC43OTMyIDYzNy43MzQgNTAuMTg5MSA2NTYuN0M0Mi45MjM4IDY4Ni41NjQgMzQuMjY0NyA3MzYuOTk4IDMzLjg0MjMgODA4LjEyOUMzNC42MDI2IDgwOC4wMDMgMzUuMzYyOSA4MDcuODc2IDM2LjE2NTUgODA3Ljg3Nkg0Ny4yMzIzQzQ2Ljg1MjEgNzg2Ljc1NiA0Ni44MDk5IDcxMy43MjQgNjEuMzQwNCA2NjcuMzQ1Qzc0Ljk0MTUgNjIzLjk2NCA5Mi42ODIyIDU4Ny4wNDcgMTM1Ljg5MyA1NjQuNDA2QzE0NC44NDggNTQ5Ljg3NiAxNTQuMjY4IDUzNS44MSAxNjMuOTQxIDUyMi4yNTFMMTYzLjg5OCA1MjIuMjA5QzE1Ni41NDkgNTI2LjgxMyAxNDkuNDEgNTMxLjY3MSAxNDIuMzU2IDUzNi43MzlaIiBzdHJva2U9IiMyMzFGMjAiIHN0cm9rZS13aWR0aD0iNi40MjUwOCIgc3Ryb2tlLW1pdGVybGltaXQ9IjEwIiBzdHJva2UtbGluZWNhcD0icm91bmQiIHN0cm9rZS1saW5lam9pbj0icm91bmQiLz4KPHBhdGggZD0iTTI5MDIuNjggMjcwLjg0QzI4NDMuNjMgMjY0LjQyIDI2NzMuOTUgMjQ3LjM5NyAyNDQ4Ljk4IDIzNi45MjJDMjM3MC4zMyAyMzMuMjQ3IDIyNDAuNTcgMjMwLjIwNiAyMDk0LjUxIDIyNy43MTRDMTc4NS4xIDIyMi40NzYgMTQwMi40MSAyMTkuNzMgMTI3NS42MSAyMTguOTI4TDEyOTcuNjEgMjU1Ljg0NUMxNDQ2LjA4IDI3OS4yNDYgMTYyNS4zOSAzMDYuNzAyIDE3NTUuMTUgMzIzLjg5M0MxOTE1LjkyIDM0NS4xODIgMjAyMy41OSAzNDkuMjggMjE0OC4xNSAzNDguMzkyQzIyMjcuNiAzNDcuODAxIDIzMTMuOSAzNDUuMjI0IDI0MjUuMjkgMzQzLjc0NkMyNTI1Ljc3IDM0Mi4zOTQgMjYyNi4yMiAzMzguMDQ0IDI3MjYuNTQgMzMxLjc1QzI3ODMuNzMgMzI4LjE2IDI4NDAuOTIgMzI0LjAyIDI4OTguMDMgMzE4Ljk1MUMyOTAzLjU3IDMxMC41ODggMjkwOS41MiAzMDAuMTU1IDI5MTEuMDQgMjkyLjIxNEMyOTEyLjE0IDI4Ni4zIDI5MDguMzggMjc4LjYxMiAyOTAyLjY4IDI3MC44NFYyNzAuODRaIiBzdHJva2U9IiMyMzFGMjAiIHN0cm9rZS13aWR0aD0iNi40MjUwOCIgc3Ryb2tlLW1pdGVybGltaXQ9IjEwIiBzdHJva2UtbGluZWNhcD0icm91bmQiIHN0cm9rZS1saW5lam9pbj0icm91bmQiLz4KPHBhdGggZD0iTTk5OS44MjIgMTQzLjkxQzk0OC44ODEgMTQ0LjEyMSA4OTcuOTQgMTQ0LjMzMiA4NDcuMDQxIDE0NC41NDRDODEwLjM3NyAxNDQuNzEzIDc3My43MTMgMTQ0Ljg4MiA3MzcuMDQ5IDE0NS4wNTFDNjY0LjM5NiAxNDUuMzg4IDU5MS4xMTEgMTQxLjk2NyA1MTguOTY1IDE1Mi43MzhDNTA3LjIyMiAxNTQuNTEyIDQ5MS42MzYgMTU2Ljc5MyA0NzUuNzEyIDE2MC41OTVDNDYxLjA5NyAxNjQuMTAxIDQ0Ni4zNTUgMTY5IDQzMy45MzcgMTc2LjA1NEM0MjMuMTIzIDE4Mi4yMjEgNDE0LjI1MyAxOTAuMDc4IDQwOS4wMTUgMjAwLjEzMUM0NDMuMTg3IDE5NC4yMTggNDcxLjQ4OCAxOTMuMjA0IDQ4NC44NzggMTkzLjE2MkM0ODkuMTAyIDE5My4xNjIgNDkzLjE1NyAxOTQuNTEzIDQ5Ni41MzYgMTk2LjgzNkM2MzAuNjg5IDE3Ni4zMDggOTUzLjY1NCAxNjkuODg3IDExMjguMzYgMTY3Ljg2QzExMjMuMjkgMTU4LjgyMSAxMTE5LjIzIDE1MC40OTkgMTExNi4xMSAxNDMuNDQ1QzEwNzcuMzMgMTQzLjYxNCAxMDM4LjU2IDE0My43NDEgOTk5LjgyMiAxNDMuOTFWMTQzLjkxWiIgc3Ryb2tlPSIjMjMxRjIwIiBzdHJva2Utd2lkdGg9IjYuNDI1MDgiIHN0cm9rZS1taXRlcmxpbWl0PSIxMCIgc3Ryb2tlLWxpbmVjYXA9InJvdW5kIiBzdHJva2UtbGluZWpvaW49InJvdW5kIi8+CjxwYXRoIGQ9Ik0yOTc0LjkxIDI5OC4wMDFDMjk3My41MiAzMDMuNDkyIDI5NzEuMDYgMzA4LjM0OSAyOTY3LjgxIDMxMi43ODRDMjk5Ny45MyAzMTEuMDEgMzA2NC41NCAzMDYuNTc1IDMwNjMuOTkgMjkwLjczNUMzMDYzLjgyIDI4Ni4xNzMgMzA2MC43NCAyODIuMTE4IDMwNTYuOTQgMjc5LjU4NEMzMDM0LjMgMjY0LjU0NyAzMDA0LjI3IDI1OS4wNTYgMjk3NS4yOSAyNTUuODg4QzI5NzguNSAyNjguODk3IDI5NzguNzUgMjgyLjk2MyAyOTc0LjkxIDI5OC4wMDFaIiBzdHJva2U9IiMyMzFGMjAiIHN0cm9rZS13aWR0aD0iNi40MjUwOCIgc3Ryb2tlLW1pdGVybGltaXQ9IjEwIiBzdHJva2UtbGluZWNhcD0icm91bmQiIHN0cm9rZS1saW5lam9pbj0icm91bmQiLz4KPHBhdGggZD0iTTExNTEuNzYgMjAyLjcwOEMxMTIwLjQyIDIwNC4yNzEgMTA4OS4wNyAyMDYuMjk4IDEwNTcuNzcgMjA5LjAwMUMxMDU1LjE2IDIwOS4yMTMgMTA1My44OSAyMTEuMzI1IDEwNTMuOTcgMjEzLjM5NEMxMDU0LjA2IDIxNS4yMTEgMTA1NS4xNiAyMTYuOTQyIDEwNTcuNDQgMjE3LjMyM0MxMDg2LjQxIDIyMi4wNTMgMTEzMi44MyAyMjkuNjE0IDExODkuNTIgMjM4LjY5NkMxMTc0Ljc4IDIyOC4zMDUgMTE2Mi4yMyAyMTUuNzE3IDExNTEuNzYgMjAyLjcwOFoiIHN0cm9rZT0iIzIzMUYyMCIgc3Ryb2tlLXdpZHRoPSI2LjQyNTA4IiBzdHJva2UtbWl0ZXJsaW1pdD0iMTAiIHN0cm9rZS1saW5lY2FwPSJyb3VuZCIgc3Ryb2tlLWxpbmVqb2luPSJyb3VuZCIvPgo8cGF0aCBkPSJNMjg4MS4wMSAyNDcuMzU1QzI3NzkuMDkgMjM4Ljc4IDI2NzYuOTEgMjMzLjAzNiAyNTc0Ljg2IDIyNy4xMjJDMjQ1OC45NSAyMjAuNDA2IDIzNDIuOTYgMjEzLjY5IDIyMjYuOTMgMjEwLjIyNkMyMjA4LjMgMjA5LjY3NyAyMTg5LjcyIDIwOS4yNTUgMjE3MS4wOSAyMDguODc1QzIxNDIuNTggMjA4LjI4MyAyMTE0LjAyIDIwNy44MTkgMjA4NS41MSAyMDcuMzU0QzIwODIuNjggMjA3LjMxMiAyMDc5Ljg1IDIwNy4yNyAyMDc3LjAyIDIwNy4xODVDMjAzOC4xNiAyMDYuNTUyIDE5OTkuMyAyMDYuMDAyIDE5NjAuNDQgMjA1LjQ5NkMxOTE2Ljk3IDIwNC45MDQgMTg3My41MSAyMDQuMzU1IDE4MzAgMjAzLjgwNkMxNzgwLjU0IDIwMy4yMTUgMTczMS4wMyAyMDIuOTE5IDE2ODEuNTcgMjAyLjQ5N0MxNjI4Ljk4IDIwMi4wMzIgMTU3Ni4zOSAyMDEuMDYgMTUyMy44MSAyMDAuMTczQzE0NzIuMDYgMTk5LjI4NiAxNDIwLjMyIDE5OC40ODQgMTM2OC41OCAxOTguMzE1QzEzMzMuNjQgMTk4LjE4OCAxMjk4LjY3IDE5OC4zOTkgMTI2My43NCAxOTguOTkxTDEyNzUuNjEgMjE4LjkyOEMxNDAyLjQxIDIxOS43MyAxNzg1LjE0IDIyMi40MzQgMjA5NC41MSAyMjcuNzE0QzIyNDAuNjEgMjMwLjIwNiAyMzcwLjMzIDIzMy4yNDcgMjQ0OC45OCAyMzYuOTIyQzI2NzMuOTkgMjQ3LjQ0IDI4NDMuNjMgMjY0LjQyIDI5MDIuNjggMjcwLjg0QzI4OTYuNDMgMjYyLjMwOCAyODg3Ljk0IDI1My43NzYgMjg4MS4wMSAyNDcuMzU1VjI0Ny4zNTVaIiBzdHJva2U9IiMyMzFGMjAiIHN0cm9rZS13aWR0aD0iNi40MjUwOCIgc3Ryb2tlLW1pdGVybGltaXQ9IjEwIiBzdHJva2UtbGluZWNhcD0icm91bmQiIHN0cm9rZS1saW5lam9pbj0icm91bmQiLz4KPHBhdGggZD0iTTE5ODguOTkgMjI2LjA2NkMyMDA1LjU1IDI0Ny45NDYgMjA1NS4xIDMxNC43NyAyMDY3Ljk0IDM0OC4wOTdDMjA3My41NiAzNDguMTgxIDIwNzkuMjIgMzQ4LjI2NiAyMDg0LjgzIDM0OC4zMDhDMjA3NS41OCAzMTcuNzY5IDIwMzMuMDUgMjUzLjkwMiAyMDE0LjIxIDIyNi40MDRDMjAwNS44NSAyMjYuMzIgMTk5Ny40NCAyMjYuMTkzIDE5ODguOTkgMjI2LjA2NlYyMjYuMDY2WiIgc3Ryb2tlPSIjMjMxRjIwIiBzdHJva2Utd2lkdGg9IjYuNDI1MDgiIHN0cm9rZS1taXRlcmxpbWl0PSIxMCIgc3Ryb2tlLWxpbmVjYXA9InJvdW5kIiBzdHJva2UtbGluZWpvaW49InJvdW5kIi8+CjxwYXRoIGQ9Ik0yMDk0LjUxIDIyNy43NTZDMjA2OC4yMyAyMjcuMjkxIDIwNDEuMzcgMjI2Ljg2OSAyMDE0LjI1IDIyNi40ODlDMjAzMy4xMyAyNTMuOTQ0IDIwNzUuNjcgMzE3Ljg1MyAyMDg0Ljg4IDM0OC4zOTJDMjEwNS43IDM0OC42MDQgMjEyNi42NSAzNDguNjA0IDIxNDguMTEgMzQ4LjQzNUMyMTY0Ljg0IDM0OC4zMDggMjE4MS45IDM0OC4wOTcgMjE5OS4zOSAzNDcuODQzTDIxNTcuMzYgMjI4Ljg5NkMyMTM2LjgzIDIyOC40NzQgMjExNS44OCAyMjguMDk0IDIwOTQuNTEgMjI3Ljc1NlYyMjcuNzU2WiIgc3Ryb2tlPSIjMjMxRjIwIiBzdHJva2Utd2lkdGg9IjYuNDI1MDgiIHN0cm9rZS1taXRlcmxpbWl0PSIxMCIgc3Ryb2tlLWxpbmVjYXA9InJvdW5kIiBzdHJva2UtbGluZWpvaW49InJvdW5kIi8+CjxwYXRoIGQ9Ik0yMTU3LjQgMjI4Ljg1NEwyMTk5LjQzIDM0Ny44MDFDMjIwNC42NyAzNDcuNzE2IDIyMDkuOTkgMzQ3LjYzMiAyMjE1LjMxIDM0Ny41NDdMMjE3My40OSAyMjkuMTkyQzIxNjguMTcgMjI5LjA2NSAyMTYyLjc3IDIyOC45ODEgMjE1Ny40IDIyOC44NTRWMjI4Ljg1NFoiIHN0cm9rZT0iIzIzMUYyMCIgc3Ryb2tlLXdpZHRoPSI2LjQyNTA4IiBzdHJva2UtbWl0ZXJsaW1pdD0iMTAiIHN0cm9rZS1saW5lY2FwPSJyb3VuZCIgc3Ryb2tlLWxpbmVqb2luPSJyb3VuZCIvPgo8cGF0aCBkPSJNMjE0OC4xMSAzNDguMzkzTDIwNTYuMDcgMTQxLjMzMyIgc3Ryb2tlPSIjMjMxRjIwIiBzdHJva2Utd2lkdGg9IjYuNDI1MDgiIHN0cm9rZS1taXRlcmxpbWl0PSIxMCIgc3Ryb2tlLWxpbmVjYXA9InJvdW5kIiBzdHJva2UtbGluZWpvaW49InJvdW5kIi8+CjxwYXRoIGQ9Ik0yOTc1LjI5IDI1NS44NDVDMjk2MS44NiAyNTQuMzY3IDI5NDguNjQgMjUzLjQzNyAyOTM2LjUxIDI1Mi4yNTVDMjkxOC4wMSAyNTAuNDgxIDI4OTkuNTEgMjQ4Ljg3NSAyODgxLjAxIDI0Ny4zMTNDMjg4Ny45NCAyNTMuNzMzIDI4OTYuNDcgMjYyLjI2NSAyOTAyLjcyIDI3MC43OThDMjkwOC4zOCAyNzguNTcgMjkxMi4xNCAyODYuMjU4IDI5MTEuMDQgMjkyLjE3MUMyOTA5LjUyIDMwMC4xMTIgMjkwMy41NyAzMTAuNTAzIDI4OTguMDMgMzE4LjkwOUMyOTE2Ljg3IDMxNy4yMTkgMjkzNS43MSAzMTUuNDQ1IDI5NTQuNTUgMzEzLjU0NUMyOTU2LjY2IDMxMy4zMzMgMjk2MS40MyAzMTMuMDggMjk2Ny44NiAzMTIuN0MyOTcxLjExIDMwOC4yNjUgMjk3My41NiAzMDMuNDA3IDI5NzQuOTUgMjk3LjkxNkMyOTc4Ljc1IDI4Mi45NjMgMjk3OC41IDI2OC44OTcgMjk3NS4yOSAyNTUuODQ1VjI1NS44NDVaIiBzdHJva2U9IiMyMzFGMjAiIHN0cm9rZS13aWR0aD0iNi40MjUwOCIgc3Ryb2tlLW1pdGVybGltaXQ9IjEwIiBzdHJva2UtbGluZWNhcD0icm91bmQiIHN0cm9rZS1saW5lam9pbj0icm91bmQiLz4KPHBhdGggZD0iTTEwOTMuMDkgMjIzLjE1MkMxMDkzLjA5IDIyMy4xNTIgMTA3NC4xNiAyNTAuMTg1IDEwNjMuOTggMjc2LjI4OSIgc3Ryb2tlPSIjMjMxRjIwIiBzdHJva2Utd2lkdGg9IjYuNDI1MDgiIHN0cm9rZS1taXRlcmxpbWl0PSIxMCIgc3Ryb2tlLWxpbmVjYXA9InJvdW5kIiBzdHJva2UtbGluZWpvaW49InJvdW5kIi8+CjxwYXRoIGQ9Ik0xMTUwLjkxIDIwMi43NUMxMTUxLjIxIDIwMi43NSAxMTUxLjQ2IDIwMi43MDggMTE1MS43NiAyMDIuNzA4QzExNTEuNjMgMjAyLjUzOSAxMTUxLjUgMjAyLjM3IDExNTEuMzggMjAyLjIwMUwxMTUwLjkxIDIwMi43NVoiIHN0cm9rZT0iIzIzMUYyMCIgc3Ryb2tlLXdpZHRoPSI2LjQyNTA4IiBzdHJva2UtbWl0ZXJsaW1pdD0iMTAiIHN0cm9rZS1saW5lY2FwPSJyb3VuZCIgc3Ryb2tlLWxpbmVqb2luPSJyb3VuZCIvPgo8cGF0aCBkPSJNMjkzNS42MyAxOTYuNjY3QzI5MzIuMiAxOTYuNDk4IDI5MjguNzggMTk2LjI4NyAyOTI1LjM2IDE5Ni4xMThDMjkwOS45OSAxOTUuMzU4IDI4OTQuNjEgMTk0LjU5OCAyODc5LjI0IDE5My44MzdDMjg4My42NyAxOTcuNTk3IDI4ODguMDIgMjAzLjA0NiAyODg4LjQ5IDIxMC4xNDJDMjg4OC41MyAyMTAuOTAyIDI4ODguNTMgMjExLjY2MiAyODg4LjQ5IDIxMi40NjVDMjg4OC40NCAyMTMuMTgzIDI4ODguMzIgMjEzLjg1OSAyODg4LjE1IDIxNC40OTNDMjg4Ny4zOSAyMTcuMzIzIDI4ODUuNCAyMTkuNjQ2IDI4ODIuODcgMjIwLjk5N0MyODgxLjMxIDIyMS44NDIgMjg3OS41MyAyMjIuMzQ5IDI4NzcuNjcgMjIyLjM0OUgyNzA0LjExQzI3MDEuMDcgMjIyLjM0OSAyNjk4LjE1IDIyMS4wODIgMjY5Ni4wOCAyMTguODAxQzI2OTEuNzggMjE0LjExMiAyNjg2LjM3IDIwNS4zNjkgMjY5My45NyAxOTUuODY1QzI2OTUuNzUgMTkzLjY2OCAyNjk4LjIgMTkxLjQ3MiAyNzAxLjQ5IDE4OS4yMzNDMjcwMS44MyAxODkuMDIyIDI3MDIuMjEgMTg4LjkzNyAyNzAyLjU1IDE4OC43NjlDMjcwNC4wMyAxODguMDUgMjcwNS42MyAxODcuNTg2IDI3MDcuMjggMTg3LjU4NkgyNzQ2LjAxQzI2OTYuMDggMTg1LjM4OSAyNjQ2LjE2IDE4My4zMiAyNTk2LjE5IDE4MS4zNzdDMjU1NC40NSAxNzkuNzcxIDI1MTIuOTggMTc3LjkxMyAyNDcxLjQxIDE3My44NThDMjQ1Mi43IDE3Mi4wNDIgMjQzMiAxNzAuOTAxIDI0MTIuMTUgMTY3LjQ4QzIzNzQuODUgMTY3LjI2OSAyMzQwLjYgMTY3LjA1NyAyMzEwLjc3IDE2Ni44ODhDMjI1Ny41OSAxNjYuNTkzIDIxNjkuOTkgMTY2LjQyNCAyMDY3LjIyIDE2Ni4zODFDMjA1Mi4wNiAxNjYuMzgxIDIwMzYuNTUgMTY2LjM4MSAyMDIwLjc2IDE2Ni4zMzlDMjAyMi4zMiAxNjguOTU4IDIwMjMuNSAxNzEuOTE1IDIwMjMuNzEgMTc1LjI5NEMyMDIzLjc2IDE3Ni4wNTQgMjAyMy43NiAxNzYuODE1IDIwMjMuNzEgMTc3LjYxN0MyMDIzLjUgMTgxLjM3NyAyMDIxLjI2IDE4NC41MDIgMjAxOC4wOSAxODYuMTVDMjAxNi41MyAxODYuOTk0IDIwMTQuNzYgMTg3LjUwMSAyMDEyLjkgMTg3LjUwMUgxODM5LjM4QzE4MzYuMzQgMTg3LjUwMSAxODMzLjQyIDE4Ni4yMzQgMTgzMS4zNSAxODMuOTUzQzE4MjcuODUgMTgwLjE1MiAxODIzLjYyIDE3My42NDcgMTgyNi4yNCAxNjYuMjU1QzE1ODQuNjMgMTY2LjMzOSAxMzM3LjkxIDE2Ni42NzcgMTI2Ni4wMiAxNjYuNzYyQzEyNjUuMjEgMTcyLjEyNiAxMjY0LjU4IDE3Ny4yNzkgMTI2NC4yIDE4Mi4wNTJDMTI2My42NSAxODguMzA0IDEyNjMuNDggMTkzLjk2NCAxMjYzLjY5IDE5OC44MjJDMTI5OC42MyAxOTguMjMgMTMzMy41NiAxOTguMDE5IDEzNjguNTMgMTk4LjE0NkMxNDIwLjI4IDE5OC4zMTUgMTQ3Mi4wMiAxOTkuMTE3IDE1MjMuNzYgMjAwLjAwNEMxNTc2LjM1IDIwMC44OTEgMTYyOC45NCAyMDEuODYzIDE2ODEuNTMgMjAyLjMyOEMxNzMwLjk5IDIwMi43NSAxNzgwLjUgMjAzLjA0NiAxODI5Ljk2IDIwMy42MzdDMTg3My40MiAyMDQuMTg2IDE5MTYuODkgMjA0LjczNSAxOTYwLjQgMjA1LjMyNkMxOTk5LjI2IDIwNS44NzYgMjAzOC4xMiAyMDYuNDI1IDIwNzYuOTggMjA3LjAxNkMyMDc5LjgxIDIwNy4wNTggMjA4Mi42NCAyMDcuMTAxIDIwODUuNDcgMjA3LjE4NUMyMTEzLjk4IDIwNy42NSAyMTQyLjUzIDIwOC4xMTQgMjE3MS4wNCAyMDguNzA2QzIxODkuNjcgMjA5LjA4NiAyMjA4LjI2IDIwOS40NjYgMjIyNi44OSAyMTAuMDU3QzIzNDIuOTIgMjEzLjU2MyAyNDU4Ljk1IDIyMC4yMzcgMjU3NC44MSAyMjYuOTUzQzI2NzYuODcgMjMyLjg2NyAyNzc5LjA5IDIzOC42MTEgMjg4MC45NyAyNDcuMTg2QzI4OTkuNDcgMjQ4Ljc0OSAyOTE4LjAxIDI1MC4zNTQgMjkzNi40NyAyNTIuMTI4QzI5NDguNTkgMjUzLjI2OSAyOTYxLjgxIDI1NC4yNCAyOTc1LjI1IDI1NS43MTlDMjk2OS42MyAyMzIuODI1IDI5NTQuNTUgMjEyLjk3MiAyOTM1LjYzIDE5Ni42NjdWMTk2LjY2N1oiIHN0cm9rZT0iIzIzMUYyMCIgc3Ryb2tlLXdpZHRoPSI2LjQyNTA4IiBzdHJva2UtbWl0ZXJsaW1pdD0iMTAiIHN0cm9rZS1saW5lY2FwPSJyb3VuZCIgc3Ryb2tlLWxpbmVqb2luPSJyb3VuZCIvPgo8cGF0aCBkPSJNMzI3MS44MSAxNjIuOTE4QzMyMzEuNTIgMTU3LjcyMiAzMTgzLjg3IDE1Mi44NjUgMzEyOC4wMyAxNDkuMTlDMzEwMy4wNiAxNDcuNTQzIDMwNzguMDYgMTQ2Ljk5MyAzMDUzLjA1IDE0Ni40MDJDMzAxMS44NyAxNDUuMzg4IDI5NzAuNjQgMTQ0Ljc5NyAyOTI5LjQyIDE0NC4yOUMyODc0Ljc2IDE0My42MTQgMjgyMC4xNCAxNDMuMTUgMjc2NS40OCAxNDIuODEyQzI3MDAuMTggMTQyLjM4OSAyNjM0Ljg0IDE0Mi4wOTQgMjU2OS41MyAxNDEuODRDMjQ5Ni4zMyAxNDEuNTg3IDI0MjMuMDkgMTQxLjQ2IDIzNDkuODkgMTQxLjMzM0MyMjcxLjUzIDE0MS4yNDkgMjE5My4xOCAxNDEuMjA3IDIxMTQuODcgMTQxLjI0OUMyMDk1LjI3IDE0MS4yNDkgMjA3NS42NyAxNDEuMjkxIDIwNTYuMTEgMTQxLjI5MUMxOTk0Ljk5IDE0MS4zMzMgMTkzMy44NyAxNDEuMzc2IDE4NzIuNzUgMTQxLjQ2QzE3OTIuNDUgMTQxLjU4NyAxNzEyLjE1IDE0MS43MTQgMTYzMS45IDE0MS45MjVDMTU1NC44MSAxNDIuMDk0IDE0NzcuNjggMTQyLjMwNSAxNDAwLjU5IDE0Mi41MTZDMTM1Ny4xNyAxNDIuNjQzIDEzMTMuNzEgMTQyLjgxMiAxMjcwLjI4IDE0Mi45MzhDMTI2OC41OSAxNTEuMzAyIDEyNjcuMTYgMTU5LjM3IDEyNjYuMDYgMTY2Ljk3M0MxMzM3Ljk1IDE2Ni44ODggMTU4NC42NyAxNjYuNTUgMTgyNi4yOCAxNjYuNDY2QzE4MjYuODggMTY0Ljc3NiAxODI3Ljg1IDE2My4wMDIgMTgyOS4yOCAxNjEuMjI4QzE4MzEuMDYgMTU5LjAzMiAxODMzLjUxIDE1Ni44MzUgMTgzNi44IDE1NC41OTdDMTgzNy4xNCAxNTQuMzg1IDE4MzcuNTIgMTU0LjMwMSAxODM3Ljg2IDE1NC4xMzJDMTgzOS4zNCAxNTMuNDE0IDE4NDAuOTQgMTUyLjk0OSAxODQyLjU5IDE1Mi45NDlIMjAwMi4yMUMyMDAzLjk5IDE1Mi45NDkgMjAwNS43NiAxNTMuMzcyIDIwMDcuMzIgMTU0LjIxNkMyMDEwLjgzIDE1Ni4xNiAyMDE3LjEyIDE2MC4yOTkgMjAyMC44NCAxNjYuNTA4QzIwMzYuNiAxNjYuNTA4IDIwNTIuMTQgMTY2LjUwOCAyMDY3LjMgMTY2LjU1QzIxNzAuMDMgMTY2LjYzNSAyMjU3LjY0IDE2Ni43NjIgMjMxMC44NiAxNjcuMDU3QzIzNDAuNjggMTY3LjIyNiAyMzc0Ljk0IDE2Ny40MzcgMjQxMi4yMyAxNjcuNjQ5QzI1NTUuNzYgMTY4LjUzNiAyNzQ0LjQ1IDE2OS44ODcgMjkwMC41NyAxNzIuNDIyQzMwMTAuMDUgMTc0LjE5NiAzMTAzLjQ0IDE3Ni41NjEgMzE1My45MiAxNzkuNzcxQzMyNjYuNDkgMTg2Ljg2OCAzMzkyLjI4IDE5My41NDIgMzQ1MS44OCAxOTkuNTRDMzQ1MS44NCAxOTkuNDU1IDMzOTguNTcgMTc5LjMwNyAzMjcxLjgxIDE2Mi45MThWMTYyLjkxOFoiIHN0cm9rZT0iIzIzMUYyMCIgc3Ryb2tlLXdpZHRoPSI2LjQyNTA4IiBzdHJva2UtbWl0ZXJsaW1pdD0iMTAiIHN0cm9rZS1saW5lY2FwPSJyb3VuZCIgc3Ryb2tlLWxpbmVqb2luPSJyb3VuZCIvPgo8cGF0aCBkPSJNMTE2Ni44NCAxNjcuNDhDMTE2Ni43MSAxNjAuOTc1IDExNjYuNzUgMTUyLjY1NCAxMTY3LjM5IDE0My4yNzZDMTE1MC4yOCAxNDMuMzYxIDExMzMuMTcgMTQzLjQwMyAxMTE2LjA3IDE0My40ODhDMTExOS4xOSAxNTAuNTQyIDExMjMuMjUgMTU4Ljg2MyAxMTI4LjMyIDE2Ny45MDJDMTEzNC40OCAxNzguODQyIDExNDIuMDkgMTkwLjY2OSAxMTUxLjM0IDIwMi4yNDNMMTE2Ny42IDE4Mi4yNjRDMTE2Ny42NCAxODIuMjY0IDExNjcuMDUgMTc2LjYwNCAxMTY2Ljg0IDE2Ny40OFoiIHN0cm9rZT0iIzIzMUYyMCIgc3Ryb2tlLXdpZHRoPSI2LjQyNTA4IiBzdHJva2UtbWl0ZXJsaW1pdD0iMTAiIHN0cm9rZS1saW5lY2FwPSJyb3VuZCIgc3Ryb2tlLWxpbmVqb2luPSJyb3VuZCIvPgo8cGF0aCBkPSJNMTMwNy41IDUuNDkwNEMxMzA3LjUgNS40OTA0IDEyNzguMjcgLTguNDkwOTQgMTIxNy4yMyAzMi44MTk1QzExNTYuMTkgNzQuMTI5OSAxMTY3LjY0IDE4Mi4yMjEgMTE2Ny42NCAxODIuMjIxSDEyNjQuMkMxMjY5LjQ0IDEyMS44MTkgMTMwNy41IDUuNDkwNCAxMzA3LjUgNS40OTA0WiIgc3Ryb2tlPSIjMjMxRjIwIiBzdHJva2Utd2lkdGg9IjYuNDI1MDgiIHN0cm9rZS1taXRlcmxpbWl0PSIxMCIgc3Ryb2tlLWxpbmVjYXA9InJvdW5kIiBzdHJva2UtbGluZWpvaW49InJvdW5kIi8+CjxwYXRoIGQ9Ik0xMjc1LjU2IDIxOC45N0wxMjYzLjY5IDE5OS4wMzNDMTI2My40NCAxOTQuMTc1IDEyNjMuNjUgMTg4LjUxNSAxMjY0LjIgMTgyLjI2NEgxMTY3LjY0TDExNTAuOTYgMjAyLjc5MkMxMTUxLjI1IDIwMi43OTIgMTE1MS41IDIwMi43NSAxMTUxLjggMjAyLjc1QzExNjIuMjggMjE1Ljc2IDExNzQuODIgMjI4LjMwNSAxMTg5LjYgMjM4LjczOEMxMjIyLjU5IDI0NC4wMTggMTI1OS4wOSAyNDkuODQ3IDEyOTcuNjUgMjU1LjkzTDEyNzUuNTYgMjE4Ljk3WiIgc3Ryb2tlPSIjMjMxRjIwIiBzdHJva2Utd2lkdGg9IjYuNDI1MDgiIHN0cm9rZS1taXRlcmxpbWl0PSIxMCIgc3Ryb2tlLWxpbmVjYXA9InJvdW5kIiBzdHJva2UtbGluZWpvaW49InJvdW5kIi8+CjxwYXRoIGQ9Ik0xNC4yODUyIDg0MC4zMTZWODYzLjY3NUw0MS42MTQyIDg1Mi41MjNDNDEuNjE0MiA4NDcuMjAxIDQxLjU3MiA4NDIuNDcgNDEuNDg3NSA4MzkuMjE4TDE0LjI4NTIgODQwLjMxNloiIHN0cm9rZT0iIzIzMUYyMCIgc3Ryb2tlLXdpZHRoPSI2LjQyNTA4IiBzdHJva2UtbWl0ZXJsaW1pdD0iMTAiIHN0cm9rZS1saW5lY2FwPSJyb3VuZCIgc3Ryb2tlLWxpbmVqb2luPSJyb3VuZCIvPgo8cGF0aCBkPSJNNDEuNDAzIDgzNi42ODNDNDEuMTQ5NiA4MzAuMTc4IDMyLjk1NTEgODE4Ljk0MyAyNi42MTkxIDgxMS4xN0MyNS42NDc2IDgxMS44ODkgMjQuNzYwNiA4MTIuNjkxIDI0LjAwMDMgODEzLjYyTDE3Ljc0ODggODIxLjMwOEMxNS41MTAxIDgyNC4wOTYgMTQuMjg1MiA4MjcuNTYgMTQuMjg1MiA4MzEuMTVWODQwLjI3NEw0MS40ODc1IDgzOS4yMThDNDEuNDQ1MyA4MzguMjQ2IDQxLjQ0NTMgODM3LjQwMSA0MS40MDMgODM2LjY4M1Y4MzYuNjgzWiIgc3Ryb2tlPSIjMjMxRjIwIiBzdHJva2Utd2lkdGg9IjYuNDI1MDgiIHN0cm9rZS1taXRlcmxpbWl0PSIxMCIgc3Ryb2tlLWxpbmVjYXA9InJvdW5kIiBzdHJva2UtbGluZWpvaW49InJvdW5kIi8+CjxwYXRoIGQ9Ik00MzIuMDc4IDIyMy42MTZDNDIyLjUzMiAyMjQuMTIzIDQxMS42MzQgMjI0LjkyNiA0MDAuMTg3IDIyNi4xNTFDMzY5LjE0MSAyNDYuMjU3IDMxNy43NzcgMjgxLjQgMjk0Ljg4MyAzMDcuNzE2QzI5NC44ODMgMzA3LjcxNiAyNjYuMDc2IDMxOS41ODUgMjM4LjA3MSAzNjAuMjYyQzIxMC4xMDggNDAwLjkzOSAxMjEuMDI1IDUxMC4zODIgMTYzLjg1NiA1MjIuMjA5TDE2My45ODMgNTIyLjE2N0MxNjYuODU1IDUxOC4xNTQgMTY5Ljc2OSA1MTQuMjY4IDE3Mi42ODQgNTEwLjM0SDE3Mi42NDJDMTU3LjQzNSA0ODUuNTQ1IDM4MS4yMjEgMjcxLjY4NSA0MzIuMDc4IDIyMy42MTZWMjIzLjYxNloiIHN0cm9rZT0iIzIzMUYyMCIgc3Ryb2tlLXdpZHRoPSI2LjQyNTA4IiBzdHJva2UtbWl0ZXJsaW1pdD0iMTAiIHN0cm9rZS1saW5lY2FwPSJyb3VuZCIgc3Ryb2tlLWxpbmVqb2luPSJyb3VuZCIvPgo8cGF0aCBkPSJNNDY0LjQzNCAyMjIuOTRDNDU5LjM2NSAyMjIuNzI5IDQ0Ny40NTMgMjIyLjgxNCA0MzIuMDc4IDIyMy42MTZDMzgxLjI2NCAyNzEuNjg1IDE1Ny40MzUgNDg1LjU0NSAxNzIuNjQyIDUxMC4zMzlIMTcyLjY4NEMyMDQuNDQ4IDQ2Ny41OTMgMjM4Ljc0NyA0MjkuOTE1IDI3MC44MDcgMzk4LjE1MUMyOTguNTE2IDM3MC42NTMgMzI0LjUzNiAzNDcuNDYzIDM0NS41MjkgMzI5LjEzMUMzNzguMjY1IDMwMC41NzcgNDE4LjY0NiAyNjcuNjMgNDQ4LjQyNSAyNDMuNjhDNDU4LjU2MiAyMzUuNTI4IDQ2Ny40MzMgMjI4LjQ3NCA0NzQuNDAyIDIyMi45NEM0NzEuMjc2IDIyMy4wNjcgNDY3Ljk0IDIyMy4xMDkgNDY0LjQzNCAyMjIuOTRWMjIyLjk0WiIgc3Ryb2tlPSIjMjMxRjIwIiBzdHJva2Utd2lkdGg9IjYuNDI1MDgiIHN0cm9rZS1taXRlcmxpbWl0PSIxMCIgc3Ryb2tlLWxpbmVjYXA9InJvdW5kIiBzdHJva2UtbGluZWpvaW49InJvdW5kIi8+CjxwYXRoIGQ9Ik0yMzYuMjU1IDMzMi43MjJMMjYwLjAzNiAzMzMuNjA5QzI2MC4wMzYgMzMzLjYwOSAyOTcuNzE0IDMwNi40NDggMzQ4Ljg2NiAzMDMuOTE0IiBzdHJva2U9IiMyMzFGMjAiIHN0cm9rZS13aWR0aD0iNi40MjUwOCIgc3Ryb2tlLW1pdGVybGltaXQ9IjEwIiBzdHJva2UtbGluZWNhcD0icm91bmQiIHN0cm9rZS1saW5lam9pbj0icm91bmQiLz4KPHBhdGggZD0iTTIxMS4yNDkgMzk3LjUxN0MyMTEuMjQ5IDM5Ny41MTcgMjM2LjU1MSAzOTUuMzYzIDI1Ni4xOTIgMzk4LjE1MSIgc3Ryb2tlPSIjMjMxRjIwIiBzdHJva2Utd2lkdGg9IjYuNDI1MDgiIHN0cm9rZS1taXRlcmxpbWl0PSIxMCIgc3Ryb2tlLWxpbmVjYXA9InJvdW5kIiBzdHJva2UtbGluZWpvaW49InJvdW5kIi8+CjxwYXRoIGQ9Ik0xNjUuNzU3IDQ2Ny4zODJIMTk1LjE5OCIgc3Ryb2tlPSIjMjMxRjIwIiBzdHJva2Utd2lkdGg9IjYuNDI1MDgiIHN0cm9rZS1taXRlcmxpbWl0PSIxMCIgc3Ryb2tlLWxpbmVjYXA9InJvdW5kIiBzdHJva2UtbGluZWpvaW49InJvdW5kIi8+CjxwYXRoIGQ9Ik0yODc3LjYzIDIyMi40MzRIMjcwNC4wN0MyNzAxLjAzIDIyMi40MzQgMjY5OC4xMSAyMjEuMTY2IDI2OTYuMDQgMjE4Ljg4NUMyNjkwLjc2IDIxMy4xNDEgMjY4My43NSAyMDEuMTg3IDI3MDEuNDUgMTg5LjMxOEMyNzAzLjE0IDE4OC4xNzcgMjcwNS4yMSAxODcuNjcgMjcwNy4yNCAxODcuNjdIMjg2Ni44NkMyODY4LjYzIDE4Ny42NyAyODcwLjQxIDE4OC4wOTMgMjg3MS45NyAxODguOTM3QzI4NzcuMjkgMTkxLjg1MiAyODg5LjE2IDE5OS43OTMgMjg4OC40NCAyMTIuNTA3QzI4ODguMTUgMjE4LjEyNSAyODgzLjI1IDIyMi40MzQgMjg3Ny42MyAyMjIuNDM0VjIyMi40MzRaIiBzdHJva2U9IiMyMzFGMjAiIHN0cm9rZS13aWR0aD0iNi40MjUwOCIgc3Ryb2tlLW1pdGVybGltaXQ9IjEwIiBzdHJva2UtbGluZWNhcD0icm91bmQiIHN0cm9rZS1saW5lam9pbj0icm91bmQiLz4KPHBhdGggZD0iTTI4MzUuNTYgMjIyLjQzNEwyODE5LjEzIDIwNS4wNzNIMjc0NS42N0wyNzI1LjU3IDIyMi40MzRIMjcwNC4wN0MyNzAxLjAzIDIyMi40MzQgMjY5OC4xMSAyMjEuMTY2IDI2OTYuMDQgMjE4Ljg4NUMyNjkwLjc2IDIxMy4xNDEgMjY4My43NSAyMDEuMTg3IDI3MDEuNDUgMTg5LjMxOEMyNzAzLjE0IDE4OC4xNzcgMjcwNS4yMSAxODcuNjcgMjcwNy4yNCAxODcuNjdIMjg1NS40NUMyODQ4LjM2IDIwNC42NTEgMjgzNS41NiAyMjIuNDM0IDI4MzUuNTYgMjIyLjQzNFoiIHN0cm9rZT0iIzIzMUYyMCIgc3Ryb2tlLXdpZHRoPSI2LjQyNTA4IiBzdHJva2UtbWl0ZXJsaW1pdD0iMTAiIHN0cm9rZS1saW5lY2FwPSJyb3VuZCIgc3Ryb2tlLWxpbmVqb2luPSJyb3VuZCIvPgo8cGF0aCBkPSJNMjg3Ny42MyAyMjIuNDM0SDI4MzUuNTJDMjgzNS41MiAyMjIuNDM0IDI4NDguMzYgMjA0LjY5MyAyODU1LjQ2IDE4Ny42N0gyODY2Ljg2QzI4NjguNjMgMTg3LjY3IDI4NzAuNDEgMTg4LjA5MyAyODcxLjk3IDE4OC45MzdDMjg3Ny4yOSAxOTEuODUyIDI4ODkuMTYgMTk5Ljc5MyAyODg4LjQ0IDIxMi41MDdDMjg4OC4xNSAyMTguMTI1IDI4ODMuMjUgMjIyLjQzNCAyODc3LjYzIDIyMi40MzRWMjIyLjQzNFoiIHN0cm9rZT0iIzIzMUYyMCIgc3Ryb2tlLXdpZHRoPSI2LjQyNTA4IiBzdHJva2UtbWl0ZXJsaW1pdD0iMTAiIHN0cm9rZS1saW5lY2FwPSJyb3VuZCIgc3Ryb2tlLWxpbmVqb2luPSJyb3VuZCIvPgo8cGF0aCBkPSJNMjcyNS41NyAyMjIuNDM0TDI3NDUuNjcgMjA1LjAzMUgyODE5LjEzTDI4MzUuNTYgMjIyLjQzNEgyNzI1LjU3WiIgZmlsbD0iIzIzMUYyMCIvPgo8cGF0aCBkPSJNMjAxMi45NCAxODcuNjdIMTgzOS4zOEMxODM2LjM0IDE4Ny42NyAxODMzLjQyIDE4Ni40MDMgMTgzMS4zNSAxODQuMTIyQzE4MjYuMDcgMTc4LjM3OCAxODE5LjA2IDE2Ni40MjQgMTgzNi43NiAxNTQuNTU1QzE4MzguNDUgMTUzLjQxNCAxODQwLjUyIDE1Mi45MDcgMTg0Mi41NSAxNTIuOTA3SDIwMDIuMTdDMjAwMy45NCAxNTIuOTA3IDIwMDUuNzIgMTUzLjMzIDIwMDcuMjggMTU0LjE3NEMyMDEyLjYgMTU3LjA4OSAyMDI0LjQ3IDE2NS4wMyAyMDIzLjc1IDE3Ny43NDRDMjAyMy40NiAxODMuMzYyIDIwMTguNTYgMTg3LjY3IDIwMTIuOTQgMTg3LjY3VjE4Ny42N1oiIHN0cm9rZT0iIzIzMUYyMCIgc3Ryb2tlLXdpZHRoPSI2LjQyNTA4IiBzdHJva2UtbWl0ZXJsaW1pdD0iMTAiIHN0cm9rZS1saW5lY2FwPSJyb3VuZCIgc3Ryb2tlLWxpbmVqb2luPSJyb3VuZCIvPgo8cGF0aCBkPSJNMTk3MC44NyAxODcuNjdMMTk1NC40NCAxNzAuMzFIMTg4MC45OEwxODYwLjg4IDE4Ny42N0gxODM5LjM4QzE4MzYuMzQgMTg3LjY3IDE4MzMuNDIgMTg2LjQwMyAxODMxLjM1IDE4NC4xMjJDMTgyNi4wNyAxNzguMzc4IDE4MTkuMDYgMTY2LjQyNCAxODM2Ljc2IDE1NC41NTVDMTgzOC40NSAxNTMuNDE0IDE4NDAuNTIgMTUyLjkwNyAxODQyLjU1IDE1Mi45MDdIMTk5MC43N0MxOTgzLjY3IDE2OS45MyAxOTcwLjg3IDE4Ny42NyAxOTcwLjg3IDE4Ny42N1oiIHN0cm9rZT0iIzIzMUYyMCIgc3Ryb2tlLXdpZHRoPSI2LjQyNTA4IiBzdHJva2UtbWl0ZXJsaW1pdD0iMTAiIHN0cm9rZS1saW5lY2FwPSJyb3VuZCIgc3Ryb2tlLWxpbmVqb2luPSJyb3VuZCIvPgo8cGF0aCBkPSJNMjAxMi45NCAxODcuNjdIMTk3MC44M0MxOTcwLjgzIDE4Ny42NyAxOTgzLjY3IDE2OS45MyAxOTkwLjc3IDE1Mi45MDdIMjAwMi4xN0MyMDAzLjk0IDE1Mi45MDcgMjAwNS43MiAxNTMuMzMgMjAwNy4yOCAxNTQuMTc0QzIwMTIuNiAxNTcuMDg5IDIwMjQuNDcgMTY1LjAzIDIwMjMuNzUgMTc3Ljc0NEMyMDIzLjQ2IDE4My4zNjIgMjAxOC41NiAxODcuNjcgMjAxMi45NCAxODcuNjdWMTg3LjY3WiIgc3Ryb2tlPSIjMjMxRjIwIiBzdHJva2Utd2lkdGg9IjYuNDI1MDgiIHN0cm9rZS1taXRlcmxpbWl0PSIxMCIgc3Ryb2tlLWxpbmVjYXA9InJvdW5kIiBzdHJva2UtbGluZWpvaW49InJvdW5kIi8+CjxwYXRoIGQ9Ik0xODYwLjg4IDE4Ny42N0wxODgwLjk4IDE3MC4yNjdIMTk1NC40NEwxOTcwLjg3IDE4Ny42N0gxODYwLjg4WiIgZmlsbD0iIzIzMUYyMCIvPgo8cGF0aCBkPSJNMzUwMS4wOSAxNTMyLjg0QzM0OTUuNjggMTUzNy40NCAzNDg5LjY4IDE1NDEuMTYgMzQ4My4yMiAxNTQyLjg5QzM0NzcuOTQgMTU0NC4zMyAzNDY3IDE1NDUuNzYgMzQ1MS44NCAxNTQ3LjI4QzMzOTIuMjQgMTU1My4yNCAzMjY2LjQgMTU1OS45NSAzMTUzLjg4IDE1NjcuMDVDMzEwMy40IDE1NzAuMjIgMzAwOS45NyAxNTcyLjU4IDI5MDAuNTIgMTU3NC40QzI5MTIuNzcgMTU2Ny41MiAyOTI0Ljg1IDE1NTkuMzYgMjkzNS42NyAxNTUwLjA3QzMwODQuNDQgMTU0Mi4zOCAzMjMyLjI4IDE1MzEuNzQgMzM4MC4yIDE1MTguNzdDMzQyNy44OSAxNTE0LjU5IDM0NzUuNjIgMTUxMC4xNSAzNTIzLjM5IDE1MDUuNDdDMzUxOC42MiAxNTEzLjI0IDM1MTAuODUgMTUyNC40NyAzNTAxLjA5IDE1MzIuODRWMTUzMi44NFoiIHN0cm9rZT0iIzIzMUYyMCIgc3Ryb2tlLXdpZHRoPSI2LjQyNTA4IiBzdHJva2UtbWl0ZXJsaW1pdD0iMTAiIHN0cm9rZS1saW5lY2FwPSJyb3VuZCIgc3Ryb2tlLWxpbmVqb2luPSJyb3VuZCIvPgo8cGF0aCBkPSJNMjkyNS4zNiAxNTUwLjYyQzI5MDkuOTkgMTU1MS4zOCAyODk0LjYxIDE1NTIuMTQgMjg3OS4yNCAxNTUyLjlDMjg3Ni41OCAxNTU1LjE0IDI4NzMuOTEgMTU1Ni43OSAyODcyLjA2IDE1NTcuODRDMjg3MC40OSAxNTU4LjY5IDI4NjguNzYgMTU1OS4xMSAyODY2Ljk0IDE1NTkuMTFIMjg1NS41NEgyNzQ2LjFDMjY5Ni4xNyAxNTYxLjMxIDI2NDYuMjQgMTU2My4zOCAyNTk2LjI3IDE1NjUuMzJDMjU1NC41NCAxNTY2LjkyIDI1MTMuMDYgMTU2OC43OCAyNDcxLjUgMTU3Mi44NEMyNDUyLjc4IDE1NzQuNjUgMjQzMi4wOSAxNTc1Ljc5IDI0MTIuMjMgMTU3OS4yMkMyNTU1Ljc2IDE1NzguMzMgMjc0NC40NSAxNTc2Ljk4IDI5MDAuNTcgMTU3NC40NEMyOTEyLjgyIDE1NjcuNTYgMjkyNC45IDE1NTkuNDEgMjkzNS43MSAxNTUwLjExQzI5MzIuMiAxNTUwLjI0IDI5MjguNzggMTU1MC40NSAyOTI1LjM2IDE1NTAuNjJWMTU1MC42MloiIHN0cm9rZT0iIzIzMUYyMCIgc3Ryb2tlLXdpZHRoPSI2LjQyNTA4IiBzdHJva2UtbWl0ZXJsaW1pdD0iMTAiIHN0cm9rZS1saW5lY2FwPSJyb3VuZCIgc3Ryb2tlLWxpbmVqb2luPSJyb3VuZCIvPgo8cGF0aCBkPSJNODc2LjUyNCAxNTE2LjY2QzkxMy40ODQgMTUyMi43OCA5ODYuODEyIDE1MzMuMzQgMTA1My45MyAxNTMzLjM0SDEwNTMuOTdDMTA1My44OSAxNTM1LjM3IDEwNTUuMTYgMTUzNy40OCAxMDU3Ljc4IDE1MzcuNzRDMTA4OS4wNyAxNTQwLjQ0IDExMjAuNDIgMTU0Mi40NyAxMTUxLjc2IDE1NDQuMDNDMTE0Mi4zNCAxNTU1LjczIDExMzQuNTcgMTU2Ny43NyAxMTI4LjM2IDE1NzguODhDOTk4LjA5IDE1NjYuNjMgODkxLjUyIDE1MzUuMzcgODM5LjU2NSAxNTE3Ljg0Qzg1Ni4xNjUgMTUxNy43NiA4NjguOTY0IDE1MTcuNDIgODc2LjUyNCAxNTE2LjY2VjE1MTYuNjZaIiBzdHJva2U9IiMyMzFGMjAiIHN0cm9rZS13aWR0aD0iNi40MjUwOCIgc3Ryb2tlLW1pdGVybGltaXQ9IjEwIiBzdHJva2UtbGluZWNhcD0icm91bmQiIHN0cm9rZS1saW5lam9pbj0icm91bmQiLz4KPHBhdGggZD0iTTUwMS44NTggMTU0NC40NUM1MDMuNjMyIDE1NDEuNDEgNTA0LjQ3NyAxNTM3Ljk5IDUwMi41NzYgMTUzNC44MkM0OTguNDM3IDE1MjcuOTQgNDg4LjEzIDE1MjQuNDcgNDc0LjQ0NSAxNTIzLjg0QzQ2Ny40NzUgMTUxOC4zMSA0NTguNTYzIDE1MTEuMjEgNDQ4LjQ2NyAxNTAzLjFDNTEyLjc5OCAxNTA2LjQ0IDc0MS45MDcgMTUxNy45MyA4MzkuNTY1IDE1MTcuOEM4OTEuNTIgMTUzNS4zMyA5OTguMDkxIDE1NjYuNjMgMTEyOC4zNiAxNTc4Ljg0Qzk1My42OTcgMTU3Ni44MSA2MzAuNjg5IDE1NzAuMzkgNDk2LjUzNiAxNTQ5Ljg2QzQ5OC42NDggMTU0OC40MiA1MDAuNTQ5IDE1NDYuNjkgNTAxLjg1OCAxNTQ0LjQ1VjE1NDQuNDVaIiBzdHJva2U9IiMyMzFGMjAiIHN0cm9rZS13aWR0aD0iNi40MjUwOCIgc3Ryb2tlLW1pdGVybGltaXQ9IjEwIiBzdHJva2UtbGluZWNhcD0icm91bmQiIHN0cm9rZS1saW5lam9pbj0icm91bmQiLz4KPHBhdGggZD0iTTkwNC42NTYgMTQxMC42NEM4NjUuOTY1IDEzNTguMjIgODM0LjA3NCAxMzAwLjMxIDgxMy4yMDcgMTIzOC41MUM3NzQuNjQyIDExMjQuMjUgNzY4LjIyMiA5OTMuOTQyIDc2OS4wNjcgODczLjM0N0M3NjguMjY0IDc1Mi43OTUgNzc0LjY0MiA2MjIuNDg2IDgxMy4yMDcgNTA4LjE4NUM4MzQuMDc0IDQ0Ni4zODggODY1Ljk2NSAzODguNDM2IDkwNC42NTYgMzM2LjA1OEM5MTYuNzM3IDMxOS42NjkgOTI5LjQwOSAzMDAuNTM1IDk0NC43NDIgMjg2LjM0MkM5MzkuMTI0IDI3NS45NTEgOTI3Ljg4OCAyNTguMTI2IDkxMS40NTcgMjQ1LjIwMUM5MTAuMTQ3IDI0NS40NTQgNzIwLjcwMiAyODIuNzk0IDU0NC41MiAzMTQuNDc0QzQwNi4wNTkgMzM5LjM5NSAzMDcuMTMzIDM4MS4xNyAyNzAuNzY1IDM5OC4xMDhDMjM1Ljc0OCA0MzIuODI5IDE5OC4wNyA0NzQuNDM2IDE2My45NDEgNTIyLjEyNEMxNjMuOTQxIDUyMi4xNjYgMTYzLjg5OCA1MjIuMTY2IDE2My44OTggNTIyLjIwOUMxNTQuMTgzIDUzNS43NjggMTQ0LjgwNiA1NDkuODMzIDEzNS44NTEgNTY0LjM2NEMxNDcuMTI5IDU1OC40NSAxNjAuMDEyIDU1My40NjYgMTc1LjEzNCA1NDkuNjY1QzI0OC4yNTEgNTMxLjIwNiA3NzQuNjg1IDQyNy41OTIgNzc0LjY4NSA0MjcuNTkyTDc0MS4yMzEgNDg1LjYyOUw3MzEuNDMxIDUwMi42MUM3MzEuNDMxIDUwMi42MSAyNjkuNDk4IDU3MS43MTQgMTAyLjczNSA2MzQuMzEzQzg4LjY2OTQgNjgyLjEyOCA4Mi40NjAxIDc0NS4xMDggODAuNDc0OSA4MDcuNzkxQzc5Ljc1NjggODI5Ljg4MyA3OS41ODc4IDg1MS45MzIgNzkuNzk5IDg3My4yNjNDNzkuNjMwMSA4OTQuNTk0IDc5Ljc5OSA5MTYuNjQzIDgwLjQ3NDkgOTM4LjczNUM4Mi40NjAxIDEwMDEuNDIgODguNjI3MSAxMDY0LjQgMTAyLjczNSAxMTEyLjIxQzI2OS41NCAxMTc0LjgxIDczMS40MzEgMTI0My45MiA3MzEuNDMxIDEyNDMuOTJMNzQxLjIzMSAxMjYwLjlMNzc0LjY4NSAxMzE4LjkzQzc3NC42ODUgMTMxOC45MyAyNDguMjUxIDEyMTUuMjggMTc1LjEzNCAxMTk2Ljg2QzE2MC4wMTIgMTE5My4wNiAxNDcuMTI5IDExODguMDggMTM1Ljg1MSAxMTgyLjE2QzE0NC44MDYgMTE5Ni42OSAxNTQuMjI1IDEyMTAuNzYgMTYzLjg5OCAxMjI0LjMyQzE2My44OTggMTIyNC4zNiAxNjMuOTQxIDEyMjQuMzYgMTYzLjk0MSAxMjI0LjRDMTk4LjA3IDEyNzIuMDkgMjM1Ljc0OCAxMzEzLjc0IDI3MC43NjUgMTM0OC40MkMzMDcuMTMzIDEzNjUuMzYgNDA2LjAxNiAxNDA3LjE3IDU0NC41MiAxNDMyLjA1QzcyMC42NiAxNDYzLjczIDkxMC4xNDcgMTUwMS4wNyA5MTEuNDU3IDE1MDEuMzNDOTI3Ljg0NiAxNDg4LjQgOTM5LjEyNCAxNDcwLjU3IDk0NC43NDIgMTQ2MC4xOEM5MjkuNDA5IDE0NDYuMTYgOTE2LjczNyAxNDI3LjAzIDkwNC42NTYgMTQxMC42NFYxNDEwLjY0WiIgc3Ryb2tlPSIjMjMxRjIwIiBzdHJva2Utd2lkdGg9IjYuNDI1MDgiIHN0cm9rZS1taXRlcmxpbWl0PSIxMCIgc3Ryb2tlLWxpbmVjYXA9InJvdW5kIiBzdHJva2UtbGluZWpvaW49InJvdW5kIi8+CjxwYXRoIGQ9Ik00OTYuNTM2IDE1NDkuOUM0OTMuMTU3IDE1NTIuMjIgNDg5LjEwMiAxNTUzLjU4IDQ4NC44NzggMTU1My41OEM0NzEuNDg4IDE1NTMuNTMgNDQzLjE0NSAxNTUyLjUyIDQwOS4wMTUgMTU0Ni42MUMzODQuNDc0IDE1NDIuMzQgMzU2LjkzNCAxNTM1LjU0IDMyOS42NDcgMTUyNC42NEMyNDkuMDk2IDE0OTIuNDEgMjE1LjIyIDE0MDQuMjYgMTc3LjAzNSAxMzUwLjg3QzE0Mi4yMjkgMTMwMi4xNyA5My40NDI1IDEyMjEuNzQgNzMuNTQ3NiAxMTQ0LjkxQzc3LjY0NDkgMTE1MS4xMiA4Mi4xNjQ1IDExNTYuOTUgODcuMTkxIDExNjIuMjNDMTAzLjk2IDExNzkuODQgMTIyLjU0NiAxMTk1LjgxIDE0Mi4zNTYgMTIxMEMxMjguMDM3IDEyMjkuNTEgMTI5LjMwNCAxMjQ0LjM0IDEzOS43MzcgMTI2NS4yMUMxNTAuNzYyIDEyODcuMjUgMjYyLjY1NSAxNDYxLjg3IDI5OC4yNjMgMTQ5MS41N0MzMTguMiAxNTA4LjIxIDM2Mi4xMjkgMTUxNi41NyA0MDAuMTQ1IDE1MjAuNTlDNDI5Ljk2NiAxNTIzLjcxIDQ1Ni4xOTcgMTUyNC4xOCA0NjQuMzkyIDE1MjMuOEM0NjcuODk4IDE1MjMuNjMgNDcxLjIzNSAxNTIzLjY3IDQ3NC40MDIgMTUyMy44NEM0ODguMDg4IDE1MjQuNDcgNDk4LjQzNyAxNTI3Ljk0IDUwMi41MzQgMTUzNC44MkM1MDQuNDM1IDE1MzcuOTkgNTAzLjU5IDE1NDEuNDEgNTAxLjgxNiAxNTQ0LjQ1QzUwMC41NDkgMTU0Ni42OSA0OTguNjQ4IDE1NDguNDIgNDk2LjUzNiAxNTQ5LjlWMTU0OS45WiIgc3Ryb2tlPSIjMjMxRjIwIiBzdHJva2Utd2lkdGg9IjYuNDI1MDgiIHN0cm9rZS1taXRlcmxpbWl0PSIxMCIgc3Ryb2tlLWxpbmVjYXA9InJvdW5kIiBzdHJva2UtbGluZWpvaW49InJvdW5kIi8+CjxwYXRoIGQ9Ik0zNjU5LjUzIDE0MDAuODhDMzYxOC41NiAxNDY3Ljc0IDM1NjAuMzUgMTUwMS44NyAzNTYwLjM1IDE1MDEuODdDMzU2MC4zNSAxNTAxLjg3IDM2MTEuODQgMTQ1My4zIDM2NTkuMDcgMTM4MC4yMkMzNjY3LjgxIDEzNjYuNzEgMzY3Ni4zOCAxMzUyLjM5IDM2ODQuNDUgMTMzNy4zOUMzNjg3LjI4IDEzMzcuMTQgMzY5MC42NiAxMzM2LjYzIDM2OTQuNSAxMzM1LjdDMzY4My4xNCAxMzU5LjU3IDM2NzEuMSAxMzgyLjA0IDM2NTkuNTMgMTQwMC44OFYxNDAwLjg4WiIgc3Ryb2tlPSIjMjMxRjIwIiBzdHJva2Utd2lkdGg9IjYuNDI1MDgiIHN0cm9rZS1taXRlcmxpbWl0PSIxMCIgc3Ryb2tlLWxpbmVjYXA9InJvdW5kIiBzdHJva2UtbGluZWpvaW49InJvdW5kIi8+CjxwYXRoIGQ9Ik0xMDkuNzg5IDExMzMuMTZDMjY1LjM1OCAxMTg1LjAzIDYyMC43NjMgMTI0Mi42NSA3NDEuMjczIDEyNjEuMDJMNzc0LjcyNyAxMzE5LjA2Qzc3NC43MjcgMTMxOS4wNiAyNDguMjkzIDEyMTUuNCAxNzUuMTc2IDExOTYuOTlDMTYwLjA1NCAxMTkzLjE5IDE0Ny4xNzEgMTE4OC4yIDEzNS44OTMgMTE4Mi4yOUMxMzAuNDAyIDExNzMuMzMgMTI0Ljk5NSAxMTY0LjI5IDExOS44NDIgMTE1NUMxMTYuMTY3IDExNDguNDEgMTEyLjgzIDExNDEuMDYgMTA5Ljc4OSAxMTMzLjE2VjExMzMuMTZaIiBzdHJva2U9IiMyMzFGMjAiIHN0cm9rZS13aWR0aD0iNi40MjUwOCIgc3Ryb2tlLW1pdGVybGltaXQ9IjEwIiBzdHJva2UtbGluZWNhcD0icm91bmQiIHN0cm9rZS1saW5lam9pbj0icm91bmQiLz4KPHBhdGggZD0iTTE2My45NDEgMTIyNC40OUMxNjMuOTQxIDEyMjQuNTMgMTYzLjk4MyAxMjI0LjUzIDE2My45ODMgMTIyNC41N0wxNjMuODU2IDEyMjQuNTNMMTYzLjk0MSAxMjI0LjQ5WiIgc3Ryb2tlPSIjMjMxRjIwIiBzdHJva2Utd2lkdGg9IjYuNDI1MDgiIHN0cm9rZS1taXRlcmxpbWl0PSIxMCIgc3Ryb2tlLWxpbmVjYXA9InJvdW5kIiBzdHJva2UtbGluZWpvaW49InJvdW5kIi8+CjxwYXRoIGQ9Ik0zNzI4LjUxIDEyMjIuMzdDMzczNS43NyAxMjA1LjE4IDM3NDIuNDkgMTE4Ny40IDM3NDguMjMgMTE2OS40OUMzNzQ0LjY0IDEyMTQuNTYgMzcyMS41IDEyNzkuMTkgMzY5NC41NSAxMzM1LjdDMzY5MC43IDEzMzYuNjMgMzY4Ny4zMiAxMzM3LjE0IDM2ODQuNDkgMTMzNy4zOUMzNzAzLjQyIDEzMDIuMTcgMzcxOS42IDEyNjMuMTggMzcyOC41MSAxMjIyLjM3VjEyMjIuMzdaIiBzdHJva2U9IiMyMzFGMjAiIHN0cm9rZS13aWR0aD0iNi40MjUwOCIgc3Ryb2tlLW1pdGVybGltaXQ9IjEwIiBzdHJva2UtbGluZWNhcD0icm91bmQiIHN0cm9rZS1saW5lam9pbj0icm91bmQiLz4KPHBhdGggZD0iTTM1NjAuMzUgMTUwMS44N0MzNTQ4LjAyIDE1MDMuMSAzNTM1LjY4IDE1MDQuMjggMzUyMy4zNSAxNTA1LjQ3QzM0NzUuNTggMTUxMC4xMSAzNDI3Ljg1IDE1MTQuNTUgMzM4MC4xNiAxNTE4Ljc3QzM0NTkuNTIgMTQ5MC42NCAzNjEzLjM2IDE0MzEuMzggMzY1OS4xMSAxMzgwLjIyQzM2MTEuODggMTQ1My4zIDM1NjAuMzUgMTUwMS44NyAzNTYwLjM1IDE1MDEuODdaIiBzdHJva2U9IiMyMzFGMjAiIHN0cm9rZS13aWR0aD0iNi40MjUwOCIgc3Ryb2tlLW1pdGVybGltaXQ9IjEwIiBzdHJva2UtbGluZWNhcD0icm91bmQiIHN0cm9rZS1saW5lam9pbj0icm91bmQiLz4KPHBhdGggZD0iTTEwMi43MzUgMTExMi4zNEMyNjkuNTQgMTE3NC45NCA3MzEuNDMxIDEyNDQuMDQgNzMxLjQzMSAxMjQ0LjA0TDc0MS4yMyAxMjYxLjAyQzYyMC43MiAxMjQyLjY1IDI2NS4zMTYgMTE4NS4wMyAxMDkuNzQ3IDExMzMuMTZDMTA3LjI1NSAxMTI2LjYyIDEwNC44ODkgMTExOS42NSAxMDIuNzM1IDExMTIuMzRaIiBmaWxsPSIjMjMxRjIwIi8+CjxwYXRoIGQ9Ik0yOTc0LjU3IDEzNjQuNDNDMjcxOC41NiAxMzMyLjIgMjMzMC4yOSAxMzQwLjY5IDIyMDEuNDIgMTM0MS4xMUMyMDcyLjU0IDEzNDEuNTMgMTY1Mi4wOSAxMzg5Ljg1IDE1NzIuMzggMTQwMS43MkMxNDkyLjY4IDE0MTMuNTkgMTIwNS43NCAxNDY0LjAzIDEwOTAgMTQ4NC44OUM5NzQuMjY3IDE1MDUuNzYgOTExLjQ1NyAxNTAxLjU0IDkxMS40NTcgMTUwMS41NEg5MTEuNDE1QzkyNy44MDQgMTQ4OC42MSA5MzkuMDgyIDE0NzAuNzkgOTQ0LjY5OSAxNDYwLjRDOTQ2LjMwNSAxNDYxLjg3IDk0Ny44NjcgMTQ2My4zNSA5NDkuNTE1IDE0NjQuN0M5NjAuMzI4IDE0NzMuNjIgOTg4LjI5MSAxNDc0LjI1IDk4OC4yOTEgMTQ3NC4yNUM5ODguMjkxIDE0NzQuMjUgMTA2Mi4wNCAxNDc1LjUyIDExMzkuNTkgMTQ1OUMxMjE3LjE1IDE0NDIuNDkgMTc0MC4yIDEzNDkuMjIgMTk2MC42MSAxMzM3LjM1QzIxNjcuOTIgMTMyNi4yIDI1OTguNjggMTMxNi41MyAyODgwLjU1IDEzMzcuOThDMjg5OC4zNyAxMzM5LjM0IDI5MTUuNiAxMzQwLjgxIDI5MzIuMTIgMTM0Mi40MkMzMDkyLjI1IDEzNTguMDUgMzI2MS45NyAxMzY4LjgyIDM0MDEuMjggMTM3NC4zOUMzNDA3Ljk1IDEzNzQuNjUgMzQxNC41NCAxMzc0LjkgMzQyMS4wOSAxMzc1LjE2QzM1MTQuOTQgMTM3OC42NiAzNTkzLjQ3IDEzNzkuNzIgMzY0My4zOSAxMzc4LjI0QzM1NTEuOSAxMzk5LjE5IDMyMzAuNTkgMTM5Ni42MSAyOTc0LjU3IDEzNjQuNDNaIiBzdHJva2U9IiMyMzFGMjAiIHN0cm9rZS13aWR0aD0iNi40MjUwOCIgc3Ryb2tlLW1pdGVybGltaXQ9IjEwIiBzdHJva2UtbGluZWNhcD0icm91bmQiIHN0cm9rZS1saW5lam9pbj0icm91bmQiLz4KPHBhdGggZD0iTTYxLjM0MDIgMTA3OS4zNUM0Ni43Njc1IDEwMzIuOTcgNDYuODUxOSA5NTkuOTgxIDQ3LjIzMjEgOTM4LjgxOUg4MC41MTdDODIuNTAyMyAxMDAxLjUgODguNjY5MyAxMDY0LjQ4IDEwMi43NzcgMTExMi4zQzEwNC45MzIgMTExOS42MSAxMDcuMjU1IDExMjYuNTcgMTA5Ljc4OSAxMTMzLjEyQzExMi44MyAxMTQxLjAyIDExNi4xNjcgMTE0OC4zNyAxMTkuODQyIDExNTVDMTI0Ljk5NSAxMTY0LjI5IDEzMC4zNiAxMTczLjMzIDEzNS44OTMgMTE4Mi4yOUM5Mi42ODIxIDExNTkuNjUgNzQuOTQxNCAxMTIyLjczIDYxLjM0MDIgMTA3OS4zNVYxMDc5LjM1WiIgc3Ryb2tlPSIjMjMxRjIwIiBzdHJva2Utd2lkdGg9IjYuNDI1MDgiIHN0cm9rZS1taXRlcmxpbWl0PSIxMCIgc3Ryb2tlLWxpbmVjYXA9InJvdW5kIiBzdHJva2UtbGluZWpvaW49InJvdW5kIi8+CjxwYXRoIGQ9Ik04ODAuMjQxIDE1MTYuMTVDODc5LjIyOCAxNTE2LjMyIDg3Ny45MTggMTUxNi40OSA4NzYuNTI0IDE1MTYuNjJDODY4Ljk2MyAxNTE3LjQyIDg1Ni4xNjUgMTUxNy43NiA4MzkuNTY1IDE1MTcuNzZDNzQxLjkwNiAxNTE3Ljg0IDUxMi43OTggMTUwNi4zNSA0NDguNDY3IDE1MDMuMDZDNDE4LjY0NiAxNDc5LjExIDM3OC4zMDcgMTQ0Ni4xNiAzNDUuNTcxIDE0MTcuNjFDMzI0LjU3OCAxMzk5LjI3IDI5OC41NTggMTM3Ni4wNCAyNzAuODQ5IDEzNDguNTlDMzA3LjIxOCAxMzY1LjUyIDQwNi4xMDEgMTQwNy4zNCA1NDQuNjA1IDE0MzIuMjJDNzIwLjc0NCAxNDYzLjkgOTEwLjIzMiAxNTAxLjI0IDkxMS41NDEgMTUwMS40OUM5MDIuNTQ0IDE1MDguNTUgODkyLjE1MyAxNTE0LjEyIDg4MC4yNDEgMTUxNi4xNVoiIHN0cm9rZT0iIzIzMUYyMCIgc3Ryb2tlLXdpZHRoPSI2LjQyNTA4IiBzdHJva2UtbWl0ZXJsaW1pdD0iMTAiIHN0cm9rZS1saW5lY2FwPSJyb3VuZCIgc3Ryb2tlLWxpbmVqb2luPSJyb3VuZCIvPgo8cGF0aCBkPSJNMjk1NC41NSAxNDMzLjExQzI5MzUuNzEgMTQzMS4yMSAyOTE2Ljg3IDE0MjkuNDMgMjg5OC4wMyAxNDI3Ljc0QzI4NDAuOTIgMTQyMi42NyAyNzgzLjczIDE0MTguNTQgMjcyNi41NCAxNDE0Ljk1QzI2MjYuMjIgMTQwOC42OSAyNTI1Ljc3IDE0MDQuMyAyNDI1LjI5IDE0MDIuOTVDMjMxMy45IDE0MDEuNDcgMjIyNy42IDEzOTguODUgMjE0OC4xNSAxMzk4LjNDMjAyMy41NCAxMzk3LjQyIDE5MTUuODcgMTQwMS41MSAxNzU1LjE1IDE0MjIuOEMxNjI1LjM5IDE0MzkuOTkgMTQ0Ni4xMyAxNDY3LjQxIDEyOTcuNjEgMTQ5MC44NUMxMjU5LjA1IDE0OTYuOTMgMTIyMi41NSAxNTAyLjcyIDExODkuNTYgMTUwOC4wNEMxMjA0LjUyIDE0OTcuNDggMTIyMS42NyAxNDg5LjE2IDEyNDEuMzkgMTQ4NC44OUMxMzkwLjc5IDE0NTIuNjcgMTU0MS42MyAxNDI0LjkxIDE2OTMuMTkgMTQwNC45OEMxODU4LjcyIDEzODMuMjIgMjAyNi4yIDEzNzkuMTMgMjE5Mi45NyAxMzc1Ljg3QzIzMjYuOTUgMTM3My4yNSAyNDYxLjUzIDEzNzAuNTkgMjU5NS40MyAxMzc2LjQ2QzI2MDAuMTYgMTM3Ni42OCAyNjA0Ljg5IDEzNzYuODkgMjYwOS42MiAxMzc3LjE0QzI2ODUuNDggMTM4MS4yOCAyNzYxLjczIDEzODIuMzQgMjgzNy4yMSAxMzkxLjVDMjg3MC4zMiAxMzk1LjUxIDI5NDMuMDYgMTQwMC4yNSAyOTY3LjgxIDE0MzMuOTVDMjk2MS40MyAxNDMzLjU3IDI5NTYuNjYgMTQzMy4zMiAyOTU0LjU1IDE0MzMuMTFWMTQzMy4xMVoiIHN0cm9rZT0iIzIzMUYyMCIgc3Ryb2tlLXdpZHRoPSI2LjQyNTA4IiBzdHJva2UtbWl0ZXJsaW1pdD0iMTAiIHN0cm9rZS1saW5lY2FwPSJyb3VuZCIgc3Ryb2tlLWxpbmVqb2luPSJyb3VuZCIvPgo8cGF0aCBkPSJNMzY4NC40NSAxMzM3LjM5QzM2NzYuMzggMTM1Mi40MyAzNjY3LjgxIDEzNjYuNzUgMzY1OS4wNyAxMzgwLjIyQzM2MTMuMzYgMTQzMS4zOCAzNDU5LjQ4IDE0OTAuNiAzMzgwLjExIDE1MTguNzdDMzIzMi4xOSAxNTMxLjc0IDMwODQuMzUgMTU0Mi4zOCAyOTM1LjU4IDE1NTAuMDdDMjk1NC41MSAxNTMzLjgxIDI5NjkuNTkgMTUxMy45NiAyOTc1LjI1IDE0OTAuODlDMzAwNC4yMiAxNDg3LjcyIDMwMzQuMjYgMTQ4Mi4yMyAzMDU2LjkgMTQ2Ny4yQzMwNjAuNyAxNDY0LjY2IDMwNjMuNzggMTQ2MC42MSAzMDYzLjk1IDE0NTYuMDRDMzA2NC41IDE0NDAuMiAyOTk3LjkzIDE0MzUuNzMgMjk2Ny43NyAxNDM0QzI5NDMuMDIgMTQwMC4yOSAyODcwLjI4IDEzOTUuNiAyODM3LjE3IDEzOTEuNTRDMjc2MS42OCAxMzgyLjM0IDI2ODUuNDQgMTM4MS4zMiAyNjA5LjU4IDEzNzcuMThDMjYwNC44NSAxMzc2LjkzIDI2MDAuMTIgMTM3Ni43MiAyNTk1LjM5IDEzNzYuNTFDMjQ2MS40OSAxMzcwLjY0IDIzMjYuODcgMTM3My4zIDIxOTIuOTMgMTM3NS45MkMyMDI2LjE2IDEzNzkuMTcgMTg1OC42OCAxMzgzLjI3IDE2OTMuMTQgMTQwNS4wMkMxNTQxLjU5IDE0MjQuOTYgMTM5MC43NSAxNDUyLjcxIDEyNDEuMzUgMTQ4NC45NEMxMjIxLjYyIDE0ODkuMiAxMjA0LjQzIDE0OTcuNTIgMTE4OS41MiAxNTA4LjA4QzExMzIuNzkgMTUxNy4xNyAxMDg2LjM3IDE1MjQuNzMgMTA1Ny40NCAxNTI5LjQ2QzEwNTUuMTYgMTUyOS44NCAxMDU0LjA2IDE1MzEuNjEgMTA1My45NyAxNTMzLjM5SDEwNTMuOTNDOTg2LjgxMiAxNTMzLjM5IDkxMy40ODQgMTUyMi44MyA4NzYuNTI1IDE1MTYuN0M4NzcuOTE4IDE1MTYuNTcgODc5LjIyOCAxNTE2LjQxIDg4MC4yNDIgMTUxNi4yNEM4OTIuMTUzIDE1MTQuMjEgOTAyLjU0NCAxNTA4LjU5IDkxMS40NTcgMTUwMS41OEg5MTEuNDk5QzkxMS40OTkgMTUwMS41OCA5NzQuMzA5IDE1MDUuNzYgMTA5MC4wNSAxNDg0Ljk0QzEyMDUuNzggMTQ2NC4xMSAxNDkyLjcyIDE0MTMuNjQgMTU3Mi40MiAxNDAxLjc3QzE2NTIuMTMgMTM4OS45IDIwNzIuNTggMTM0MS41NyAyMjAxLjQ2IDEzNDEuMTVDMjMzMC4zMyAxMzQwLjczIDI3MTguNTYgMTMzMi4yNCAyOTc0LjYxIDEzNjQuNDdDMzIzMC42MyAxMzk2LjcgMzU1MS45IDEzOTkuMjMgMzY0My40OCAxMzc4LjI0QzM2NDMuNDggMTM3OC4yNCAzNjkyLjQ4IDEzMDcuNjEgMzcyOC41NSAxMjIyLjQyQzM3MTkuNiAxMjYzLjE4IDM3MDMuNDIgMTMwMi4xNyAzNjg0LjQ1IDEzMzcuMzlaIiBzdHJva2U9IiMyMzFGMjAiIHN0cm9rZS13aWR0aD0iNi40MjUwOCIgc3Ryb2tlLW1pdGVybGltaXQ9IjEwIiBzdHJva2UtbGluZWNhcD0icm91bmQiIHN0cm9rZS1saW5lam9pbj0icm91bmQiLz4KPHBhdGggZD0iTTE1MjguMDcgODczLjM0OEMxNTIzLjEzIDY5NS42NDUgMTU2NS42NyA1MjMuMDExIDE1NjUuNjcgNTIzLjAxMUMxNTY1LjY3IDUyMy4wMTEgMTU4NC4zNCA0NTQuMzMgMTU3Ny41MyA0MjcuNjM0QzE1NjcuNTIgMzg4LjMwOSAxNTAzLjg3IDM4NS41MjEgMTQ3Mi4zNiAzNzkuNzc2QzEzNzMuODEgMzYxLjg2NyAxMjc1LjE4IDM0Mi4zOTQgMTE3Ni4xMyAzMjcuODIyQzExNTAuNjIgMzI0LjA2MiAxMTI0LjIyIDMyMi4wNzcgMTA5OC41OCAzMjYuMDQ4QzEwNjMuNzcgMzMxLjQxMiAxMDM0LjEyIDM0OS4xMSAxMDE5IDM4MS43MkM5OTguNTk3IDQyNS43MzMgOTg1LjI0OSA0NzUuMTU0IDk3Mi40NTEgNTIxLjgyOUM5NDAuOTQgNjM2LjU1MiA5MjcuMzM5IDc1NC43ODEgOTI3LjEyOCA4NzMuMzA1QzkyNy4zMzkgOTkxLjgzIDk0MC45NCAxMTEwLjA2IDk3Mi40NTEgMTIyNC43OEM5ODUuMjkyIDEyNzEuNDYgOTk4LjU5NyAxMzIwLjg4IDEwMTkgMTM2NC44OUMxMDM0LjEyIDEzOTcuNSAxMDYzLjc3IDE0MTUuMiAxMDk4LjU4IDE0MjAuNTZDMTEyNC4yMiAxNDI0LjUzIDExNTAuNTggMTQyMi41NSAxMTc2LjEzIDE0MTguNzlDMTI3NS4xOCAxNDA0LjE3IDEzNzMuODUgMTM4NC43IDE0NzIuMzYgMTM2Ni44M0MxNTAzLjg3IDEzNjEuMTMgMTU2Ny41NyAxMzU4LjM0IDE1NzcuNTMgMTMxOC45OEMxNTg0LjM0IDEyOTIuMjggMTU2NS42NyAxMjIzLjYgMTU2NS42NyAxMjIzLjZDMTU2NS42NyAxMjIzLjYgMTUyMy4xMyAxMDUxLjA1IDE1MjguMDcgODczLjM0OFoiIHN0cm9rZT0iIzIzMUYyMCIgc3Ryb2tlLXdpZHRoPSI2LjQyNTA4IiBzdHJva2UtbWl0ZXJsaW1pdD0iMTAiIHN0cm9rZS1saW5lY2FwPSJyb3VuZCIgc3Ryb2tlLWxpbmVqb2luPSJyb3VuZCIvPgo8cGF0aCBkPSJNMjM4LjA3MSAxMzg2LjQ4QzI2Ni4wMzQgMTQyNy4xNSAyOTQuODg0IDE0MzkuMDIgMjk0Ljg4NCAxNDM5LjAyQzMxNy43MzUgMTQ2NS4zNCAzNjkuMTQxIDE1MDAuNDggNDAwLjE4NyAxNTIwLjU5QzM2Mi4xNzIgMTUxNi41NyAzMTguMjQyIDE1MDguMjEgMjk4LjMwNSAxNDkxLjU3QzI2Mi42OTcgMTQ2MS45MiAxNTAuODA0IDEyODcuMjUgMTM5Ljc4IDEyNjUuMjFDMTI5LjM0NiAxMjQ0LjMgMTI4LjAzNyAxMjI5LjUxIDE0Mi4zOTggMTIxMEMxNDkuNDUyIDEyMTUuMDcgMTU2LjU5MSAxMjE5LjkyIDE2My45NDEgMTIyNC40OUMxMjEuMDI1IDEyMzYuMzYgMjEwLjEwOSAxMzQ1Ljc2IDIzOC4wNzEgMTM4Ni40OFYxMzg2LjQ4WiIgc3Ryb2tlPSIjMjMxRjIwIiBzdHJva2Utd2lkdGg9IjYuNDI1MDgiIHN0cm9rZS1taXRlcmxpbWl0PSIxMCIgc3Ryb2tlLWxpbmVjYXA9InJvdW5kIiBzdHJva2UtbGluZWpvaW49InJvdW5kIi8+CjxwYXRoIGQ9Ik0zNTIzLjM1IDE1MDUuNDdDMzUzNS42OCAxNTA0LjI4IDM1NDguMDIgMTUwMy4xIDM1NjAuMzUgMTUwMS44N0MzNTYwLjM1IDE1MDEuODcgMzYxOC41NiAxNDY3Ljc0IDM2NTkuNTMgMTQwMC44OEMzNjcxLjA2IDEzODIuMDQgMzY4My4xIDEzNTkuNTcgMzY5NC41IDEzMzUuN0MzNjk4LjMxIDEzMzQuNzcgMzcwMi40OSAxMzMzLjUxIDM3MDYuOTcgMTMzMS41MkMzNjk1LjgxIDEzNTkuOTkgMzY2Ni4yIDE0MjkuOTggMzYzMS41NyAxNDY1LjNDMzU5NC4xIDE1MDMuNDggMzU1NC43MyAxNTI1LjcgMzUwMS4wNSAxNTMyLjg0QzM1MTAuODUgMTUyNC40NyAzNTE4LjYyIDE1MTMuMjQgMzUyMy4zNSAxNTA1LjQ3VjE1MDUuNDdaIiBzdHJva2U9IiMyMzFGMjAiIHN0cm9rZS13aWR0aD0iNi40MjUwOCIgc3Ryb2tlLW1pdGVybGltaXQ9IjEwIiBzdHJva2UtbGluZWNhcD0icm91bmQiIHN0cm9rZS1saW5lam9pbj0icm91bmQiLz4KPHBhdGggZD0iTTM3MzMuMjggMTMxMi45NEwzNzMzLjMyIDEzMTIuNzdDMzczOC42OSAxMzA3LjIzIDM3NDMuOTMgMTMwMC42IDM3NDguNzQgMTI5Mi4zMkMzNzU2Ljk4IDEyNzguMyAzNzY0LjcxIDEyNTQuNiAzNzcxLjU5IDEyMjYuMzRDMzc2NS40MyAxMjc2LjIzIDM3NDUuNzQgMTM3Mi4zNyAzNjgzLjI3IDE0NTYuMTNDMzY2Mi43NCAxNDgzLjY3IDM2MjkuODggMTUwNS45NyAzNTkxLjQ4IDE1MjQuMDlDMzU5MS41MiAxNTI0LjEzIDM3MDUuMzYgMTQ0NS4wNiAzNzMzLjI4IDEzMTIuOTRWMTMxMi45NFoiIHN0cm9rZT0iIzIzMUYyMCIgc3Ryb2tlLXdpZHRoPSI2LjQyNTA4IiBzdHJva2UtbWl0ZXJsaW1pdD0iMTAiIHN0cm9rZS1saW5lY2FwPSJyb3VuZCIgc3Ryb2tlLWxpbmVqb2luPSJyb3VuZCIvPgo8cGF0aCBkPSJNMzc3NC40NiA2MzcuNDgxQzM3NTguNDEgNTM0LjU0MyAzNzM0LjU1IDQ2MC43NSAzNzIwLjI3IDQyMi43MzRDMzcxNS43MSA0MTkuNTY2IDM3MTEuMjMgNDE3LjA3NCAzNzA2Ljk3IDQxNS4yMTZDMzcwMi40OSA0MTMuMjczIDM2OTguMzUgNDExLjk2MyAzNjk0LjUgNDExLjAzNEMzNzIxLjQ1IDQ2Ny41NTEgMzc0NC42NCA1MzIuMTc3IDM3NDguMTkgNTc3LjI0N0MzNzU1LjcxIDYwMC44MTcgMzc2MS40NSA2MjQuNjQgMzc2NC4yIDY0Ny42NjFDMzc3Mi4wNiA3MTMuMDA2IDM3NzIuNjUgODAyLjA4OSAzNzcyLjkgODczLjM5QzM3NzIuNjkgOTQ0LjY0OCAzNzcyLjA2IDEwMzMuNzcgMzc2NC4yIDEwOTkuMTJDMzc2MS40NSAxMTIyLjE0IDM3NTUuNzEgMTE0NS45NiAzNzQ4LjE5IDExNjkuNTNDMzc0NC42IDEyMTQuNiAzNzIxLjQ1IDEyNzkuMjMgMzY5NC41IDEzMzUuNzVDMzY5OC4zMSAxMzM0LjgyIDM3MDIuNDkgMTMzMy41NSAzNzA2Ljk3IDEzMzEuNTZDMzcxMS4yMyAxMzI5LjcxIDM3MTUuNzEgMTMyNy4xNyAzNzIwLjI3IDEzMjQuMDVDMzczNC41MSAxMjg2LjAzIDM3NTguNDEgMTIxMi4yNCAzNzc0LjQ2IDExMDkuM0MzNzg3LjIyIDEwMjcuNDQgMzc4OS43MSA5MzguODYxIDM3ODkuMTYgODczLjQzMkMzNzg5LjcxIDgwNy45NiAzNzg3LjIyIDcxOS4zNDEgMzc3NC40NiA2MzcuNDgxVjYzNy40ODFaIiBzdHJva2U9IiMyMzFGMjAiIHN0cm9rZS13aWR0aD0iNi40MjUwOCIgc3Ryb2tlLW1pdGVybGltaXQ9IjEwIiBzdHJva2UtbGluZWNhcD0icm91bmQiIHN0cm9rZS1saW5lam9pbj0icm91bmQiLz4KPHBhdGggZD0iTTM3MzMuMjggMTMxMi45NEMzNzA1LjM2IDE0NDUuMDYgMzU5MS40OCAxNTI0LjEzIDM1OTEuNDggMTUyNC4xM0MzNDYzLjQ1IDE1ODQuNSAzMjczLjggMTU5Ny41NSAzMjczLjggMTU5Ny41NUwzMjcxLjc3IDE1ODMuODJDMzM5OC41MyAxNTY3LjQzIDM0NTEuODQgMTU0Ny4yOCAzNDUxLjg0IDE1NDcuMjhDMzQ2NyAxNTQ1Ljc2IDM0NzcuOTQgMTU0NC4yOCAzNDgzLjIyIDE1NDIuODlDMzQ4OS42NCAxNTQxLjE2IDM0OTUuNjggMTUzNy40NCAzNTAxLjA5IDE1MzIuODRDMzU1NC43MyAxNTI1LjcgMzU5NC4xIDE1MDMuNTIgMzYzMS42MSAxNDY1LjI5QzM2NjYuMjUgMTQzMC4wMiAzNjk1Ljg2IDEzNTkuOTkgMzcwNy4wMSAxMzMxLjUyQzM3MTEuMjcgMTMyOS42NiAzNzE1Ljc1IDEzMjcuMTMgMzcyMC4zMSAxMzI0QzM3MjQuNjYgMTMyMSAzNzI5LjA2IDEzMTcuMjkgMzczMy4zNyAxMzEyLjc3TDM3MzMuMjggMTMxMi45NFoiIHN0cm9rZT0iIzIzMUYyMCIgc3Ryb2tlLXdpZHRoPSI2LjQyNTA4IiBzdHJva2UtbWl0ZXJsaW1pdD0iMTAiIHN0cm9rZS1saW5lY2FwPSJyb3VuZCIgc3Ryb2tlLWxpbmVqb2luPSJyb3VuZCIvPgo8cGF0aCBkPSJNMzgwMy42NSA3NDQuMzA1QzM4MDEuODQgNjk2LjY1OSAzNzg5LjQyIDU5My4yMTQgMzc3MS42MyA1MjAuMzVDMzc2NC43NSA0OTIuMDkyIDM3NTcuMDIgNDY4LjM5NSAzNzQ4Ljc4IDQ1NC4zNzJDMzc0My45MyA0NDYuMDkzIDM3MzguNjkgNDM5LjQ2MSAzNzMzLjM3IDQzMy45MjhDMzcyOS4wNiA0MjkuNDUgMzcyNC42NiA0MjUuNzMzIDM3MjAuMzEgNDIyLjY5MkMzNzM0LjU1IDQ2MC43MDggMzc1OC40NiA1MzQuNTAxIDM3NzQuNTEgNjM3LjQzOUMzNzg3LjI2IDcxOS4yOTkgMzc4OS43NiA4MDcuODc2IDM3ODkuMjEgODczLjMwNUMzNzg5LjcxIDkzOC43MzUgMzc4Ny4yNiAxMDI3LjMxIDM3NzQuNTEgMTEwOS4xN0MzNzU4LjQ2IDEyMTIuMTEgMzczNC41OSAxMjg1LjkgMzcyMC4zMSAxMzIzLjkyQzM3MjQuNjYgMTMyMC45MiAzNzI5LjA2IDEzMTcuMiAzNzMzLjM3IDEzMTIuNjhDMzczOC43MyAxMzA3LjE1IDM3NDMuOTcgMTMwMC41MiAzNzQ4Ljc4IDEyOTIuMjRDMzc1Ny4wMiAxMjc4LjIyIDM3NjQuNzUgMTI1NC41MiAzNzcxLjYzIDEyMjYuMjZDMzc4OS40NiAxMTUzLjQgMzgwMS44NCAxMDQ5Ljk1IDM4MDMuNjUgMTAwMi4zMUMzODA0Ljc1IDk3NC4wMDUgMzgwNC44OCA5MjIuNzI2IDM4MDQuNzEgODczLjIyMUMzODA0LjkyIDgyMy44ODUgMzgwNC43NSA3NzIuNjA2IDM4MDMuNjUgNzQ0LjMwNVY3NDQuMzA1WiIgc3Ryb2tlPSIjMjMxRjIwIiBzdHJva2Utd2lkdGg9IjYuNDI1MDgiIHN0cm9rZS1taXRlcmxpbWl0PSIxMCIgc3Ryb2tlLWxpbmVjYXA9InJvdW5kIiBzdHJva2UtbGluZWpvaW49InJvdW5kIi8+CjxwYXRoIGQ9Ik0zNzI4LjUxIDEyMjIuMzdDMzczNS43NyAxMjA1LjE4IDM3NDIuNDkgMTE4Ny40IDM3NDguMjMgMTE2OS40OUMzNzU1Ljc1IDExNDUuOTIgMzc2MS41IDExMjIuMSAzNzY0LjI0IDEwOTkuMDhDMzc3Mi4xIDEwMzMuNzMgMzc3Mi42OSA5NDQuNjQ4IDM3NzIuOTQgODczLjM0N0MzNzcyLjczIDgwMi4wODkgMzc3Mi4xIDcxMi45NjMgMzc2NC4yNCA2NDcuNjE4QzM3NjEuNSA2MjQuNTk4IDM3NTUuNzUgNjAwLjc3NSAzNzQ4LjIzIDU3Ny4yMDVDMzc0Mi41MyA1NTkuMjk1IDM3MzUuODIgNTQxLjUxMiAzNzI4LjUxIDUyNC4zMjFDMzY5Mi40MyA0MzkuMTIzIDM2NDMuNDQgMzY4LjQ5OCAzNjQzLjQ0IDM2OC40OThDMzY0My40NCAzNjguNDk4IDM3NjEuMjkgNjA0LjM2NSAzNzU3Ljg2IDc2Ny4xNTdDMzc1Ny4wMiA4MDguNDI1IDM3NTguMDggODQzLjY1MyAzNzU3Ljk1IDg3My4zNDdDMzc1OC4xMiA5MDMgMzc1Ny4wMiA5MzguMjcgMzc1Ny44NiA5NzkuNTM4QzM3NjEuMjQgMTE0Mi4yOSAzNjQzLjQ0IDEzNzguMiAzNjQzLjQ0IDEzNzguMkMzNjQzLjQ0IDEzNzguMiAzNjkyLjQ4IDEzMDcuNTcgMzcyOC41MSAxMjIyLjM3VjEyMjIuMzdaIiBzdHJva2U9IiMyMzFGMjAiIHN0cm9rZS13aWR0aD0iNi40MjUwOCIgc3Ryb2tlLW1pdGVybGltaXQ9IjEwIiBzdHJva2UtbGluZWNhcD0icm91bmQiIHN0cm9rZS1saW5lam9pbj0icm91bmQiLz4KPHBhdGggZD0iTTMxMy41NTQgMTU0OC40MkMzNTkuNzY0IDE1NjUuMTkgNDA3LjkxNyAxNTY5LjU4IDQzMy45MzcgMTU3MC42OEM0NDYuMzEzIDE1NzcuNzQgNDYxLjA5NyAxNTgyLjU5IDQ3NS43MTIgMTU4Ni4xNEM0NjQuMzkyIDE1OTEuMjEgNDQ2LjM1NSAxNTk1LjMxIDQyMC4zNzggMTU4OS45NEMzNzEuMjExIDE1NzkuNzYgMjM5LjgwMyAxNTQ1IDIyNS4zOTkgMTUyOC4wNkMyMTAuOTk2IDE1MTEuMTMgNjEuODA0OSAxMjk1Ljc5IDU1LjAwNDMgMTI3Ny45NkM1MS42NjczIDEyNjkuMTggNTMuOTA2MSAxMjU4Ljc0IDU2Ljk4OTYgMTI1MC40MkMxMDIuMzU1IDEzMjguMzEgMTc5LjYxMSAxNDI4Ljg0IDE3OS42MTEgMTQyOC44NEMxNzkuNjExIDE0MjguODQgMjQ1LjcxNyAxNTIzLjggMzEzLjU1NCAxNTQ4LjQyVjE1NDguNDJaIiBzdHJva2U9IiMyMzFGMjAiIHN0cm9rZS13aWR0aD0iNi40MjUwOCIgc3Ryb2tlLW1pdGVybGltaXQ9IjEwIiBzdHJva2UtbGluZWNhcD0icm91bmQiIHN0cm9rZS1saW5lam9pbj0icm91bmQiLz4KPHBhdGggZD0iTTE0Mi4zNTYgMTIxMEMxMjIuNTg4IDExOTUuODEgMTAzLjk2IDExNzkuODQgODcuMTkxIDExNjIuMjNDODIuMTY0NSAxMTU2Ljk1IDc3LjY0NDkgMTE1MS4xMiA3My41NDc2IDExNDQuOTFDNjIuNTY1MyAxMTI4LjMxIDU0Ljc5MzIgMTEwOSA1MC4xODkxIDEwOTAuMDRDNDIuOTIzOCAxMDYwLjE3IDM0LjI2NDcgMTAwOS43NCAzMy44NDIzIDkzOC42MDhDMzQuNjAyNiA5MzguNzM1IDM1LjM2MjkgOTM4Ljg2MSAzNi4xNjU1IDkzOC44NjFINDcuMjMyM0M0Ni44NTIxIDk1OS45ODEgNDYuODA5OSAxMDMzLjAxIDYxLjM0MDQgMTA3OS4zOUM3NC45NDE1IDExMjIuNzcgOTIuNjgyMiAxMTU5LjY5IDEzNS44OTMgMTE4Mi4zM0MxNDQuODQ4IDExOTYuODYgMTU0LjI2OCAxMjEwLjkzIDE2My45NDEgMTIyNC40OUwxNjMuODk4IDEyMjQuNTNDMTU2LjU0OSAxMjE5LjkyIDE0OS40MSAxMjE1LjA3IDE0Mi4zNTYgMTIxMFYxMjEwWiIgc3Ryb2tlPSIjMjMxRjIwIiBzdHJva2Utd2lkdGg9IjYuNDI1MDgiIHN0cm9rZS1taXRlcmxpbWl0PSIxMCIgc3Ryb2tlLWxpbmVjYXA9InJvdW5kIiBzdHJva2UtbGluZWpvaW49InJvdW5kIi8+CjxwYXRoIGQ9Ik0xNjI0LjYzIDEzNTEuOEMxNjA5Ljk3IDEyOTcuODYgMTU1Ny41NiAxMDg5LjYxIDE1NTcuNTYgODczLjM0OEMxNTU3LjU2IDY1Ny4wOCAxNjA5Ljk3IDQ0OC44MzkgMTYyNC42MyAzOTQuODk4QzIxOTEuMDcgNDgwLjQzNCAyNzgyLjkzIDQ0MS42NTggMjg4NS4wNyA0MzMuOTdDMjg4My4yNSA0MjMuMjg0IDI4ODEuNzMgNDE0Ljc5MyAyODgwLjYzIDQwOC43OTVDMjU5OC44MSA0MzAuMjUzIDIxNjggNDIwLjU4IDE5NjAuNjkgNDA5LjQyOUMxNzQwLjI4IDM5Ny41NiAxMjE3LjIzIDMwNC4yOTQgMTEzOS42OCAyODcuNzc5QzEwNjIuMTMgMjcxLjI2MyA5ODguMzc1IDI3Mi41MyA5ODguMzc1IDI3Mi41M0M5ODEuMjc5IDI3Mi42NTcgOTY2LjAzMSAyOTIuNDI1IDk2MS43NjQgMjk2LjgxOEM5MzguMjc5IDMyMS4yMzIgOTE4LjIxNSAzNDguOTQyIDkwMC44MTIgMzc3LjkxOEM4MzIuOTc1IDQ5MC42OTggODA0LjUwNiA2MjQuMDQ5IDc5Ni45ODcgNzU0LjE4OUM3OTQuNzA2IDc5My43MjYgNzkzLjgxOSA4MzMuNTU4IDc5My43MzUgODczLjM0OEM3OTMuODE5IDkxMy4xMzcgNzk0LjcwNiA5NTIuOTcgNzk2Ljk4NyA5OTIuNTA2QzgwNC41MDYgMTEyMi42IDgzMi45NzUgMTI1NiA5MDAuODEyIDEzNjguNzhDOTE4LjI1NyAxMzk3Ljc1IDkzOC4zMjEgMTQyNS40NiA5NjEuNzY0IDE0NDkuODhDOTY2LjAzMSAxNDU0LjMxIDk4MS4zMjEgMTQ3NC4wOCA5ODguMzc1IDE0NzQuMTdDOTg4LjM3NSAxNDc0LjE3IDEwNjIuMTMgMTQ3NS40MyAxMTM5LjY4IDE0NTguOTJDMTIxNy4yMyAxNDQyLjQgMTc0MC4yOCAxMzQ5LjE0IDE5NjAuNjkgMTMzNy4yN0MyMTY4IDEzMjYuMTIgMjU5OC43NiAxMzE2LjQ0IDI4ODAuNjMgMTMzNy45QzI4ODEuNzMgMTMzMS45IDI4ODMuMjUgMTMyMy40MSAyODg1LjA3IDEzMTIuNzNDMjc4Mi44OSAxMzA1LjA4IDIxOTEuMDIgMTI2Ni4zIDE2MjQuNjMgMTM1MS44VjEzNTEuOFpNMTU3Ny40OSAxMzE5LjA2QzE1NjcuNDggMTM1OC4zOSAxNTAzLjgzIDEzNjEuMTcgMTQ3Mi4zMiAxMzY2LjkyQzEzNzMuNzcgMTM4NC44MyAxMjc1LjE0IDE0MDQuMyAxMTc2LjA5IDE0MTguODdDMTE1MC41OCAxNDIyLjYzIDExMjQuMTggMTQyNC42MiAxMDk4LjU0IDE0MjAuNjVDMTA2My43MyAxNDE1LjI4IDEwMzQuMDggMTM5Ny41OCAxMDE4Ljk2IDEzNjQuOThDOTk4LjU1NSAxMzIwLjk2IDk4NS4yMDcgMTI3MS41NCA5NzIuNDA5IDEyMjQuODdDOTQwLjg5OCAxMTEwLjE0IDkyNy4yOTcgOTkxLjkxNSA5MjcuMDg2IDg3My4zOUM5MjcuMjk3IDc1NC44NjUgOTQwLjg5OCA2MzYuNjM2IDk3Mi40MDkgNTIxLjkxM0M5ODUuMjUgNDc1LjIzOCA5OTguNTU1IDQyNS44MTggMTAxOC45NiAzODEuODA0QzEwMzQuMDggMzQ5LjE5NSAxMDYzLjczIDMzMS40OTcgMTA5OC41NCAzMjYuMTMyQzExMjQuMTggMzIyLjE2MiAxMTUwLjUzIDMyNC4xNDcgMTE3Ni4wOSAzMjcuOTA2QzEyNzUuMTQgMzQyLjUyMSAxMzczLjgxIDM2MS45OTQgMTQ3Mi4zMiAzNzkuODYxQzE1MDMuODMgMzg1LjU2MyAxNTY3LjUyIDM4OC4zNTEgMTU3Ny40OSA0MjcuNzE5QzE1ODQuMjkgNDU0LjQxNCAxNTY1LjYyIDUyMy4wOTYgMTU2NS42MiA1MjMuMDk2QzE1NjUuNjIgNTIzLjA5NiAxNTIzLjEzIDY5NS43MyAxNTI4LjAzIDg3My40MzJDMTUyMy4wOSAxMDUxLjEzIDE1NjUuNjIgMTIyMy43NyAxNTY1LjYyIDEyMjMuNzdDMTU2NS42MiAxMjIzLjc3IDE1ODQuMjkgMTI5Mi4zNyAxNTc3LjQ5IDEzMTkuMDZaIiBzdHJva2U9IiMyMzFGMjAiIHN0cm9rZS13aWR0aD0iNi40MjUwOCIgc3Ryb2tlLW1pdGVybGltaXQ9IjEwIiBzdHJva2UtbGluZWNhcD0icm91bmQiIHN0cm9rZS1saW5lam9pbj0icm91bmQiLz4KPHBhdGggZD0iTTI5MTkuOTEgNzM1LjQzNUMyOTEyLjY1IDYwOC4zMzUgMjg5NC43IDQ5MC42NTYgMjg4NS4wNyA0MzMuOTdDMjc4Mi45MyA0NDEuNjU4IDIxOTEuMDcgNDgwLjQzNCAxNjI0LjYzIDM5NC44OThDMTYwOS45NyA0NDguODM4IDE1NTcuNTYgNjU3LjA4IDE1NTcuNTYgODczLjM0N0MxNTU3LjU2IDEwODkuNjEgMTYwOS45NyAxMjk3Ljg2IDE2MjQuNjMgMTM1MS44QzIxOTEuMDcgMTI2Ni4yNiAyNzgyLjkzIDEzMDUuMDQgMjg4NS4wNyAxMzEyLjcyQzI4OTQuNyAxMjU2LjA0IDI5MTIuNjUgMTEzOC4zNiAyOTE5LjkxIDEwMTEuMjZDMjkyMi4xOSA5NzEuODA4IDI5MjIuNyA5MjIuMjE5IDI5MjIuMzYgODczLjM0N0MyOTIyLjY2IDgyNC40NzYgMjkyMi4xNSA3NzQuOTI5IDI5MTkuOTEgNzM1LjQzNVoiIHN0cm9rZT0iIzIzMUYyMCIgc3Ryb2tlLXdpZHRoPSI2LjQyNTA4IiBzdHJva2UtbWl0ZXJsaW1pdD0iMTAiIHN0cm9rZS1saW5lY2FwPSJyb3VuZCIgc3Ryb2tlLWxpbmVqb2luPSJyb3VuZCIvPgo8cGF0aCBkPSJNMjkwMi42OCAxNDc1LjlDMjg0My42MyAxNDgyLjMyIDI2NzMuOTUgMTQ5OS4zNCAyNDQ4Ljk4IDE1MDkuODJDMjM3MC4zMyAxNTEzLjQ5IDIyNDAuNTcgMTUxNi41MyAyMDk0LjUxIDE1MTkuMDJDMTc4NS4xIDE1MjQuMjYgMTQwMi40MSAxNTI3LjAxIDEyNzUuNjEgMTUyNy44MUwxMjk3LjYxIDE0OTAuODlDMTQ0Ni4wOCAxNDY3LjQ5IDE2MjUuMzkgMTQ0MC4wNCAxNzU1LjE1IDE0MjIuODRDMTkxNS45MiAxNDAxLjU2IDIwMjMuNTkgMTM5Ny40NiAyMTQ4LjE1IDEzOTguMzRDMjIyNy42IDEzOTguOTQgMjMxMy45IDE0MDEuNTEgMjQyNS4yOSAxNDAyLjk5QzI1MjUuNzcgMTQwNC4zNCAyNjI2LjIyIDE0MDguNjkgMjcyNi41NCAxNDE0Ljk5QzI3ODMuNzMgMTQxOC41OCAyODQwLjkyIDE0MjIuNzIgMjg5OC4wMyAxNDI3Ljc5QzI5MDMuNTcgMTQzNi4xNSAyOTA5LjUyIDE0NDYuNTggMjkxMS4wNCAxNDU0LjUyQzI5MTIuMTQgMTQ2MC40NCAyOTA4LjM4IDE0NjguMTMgMjkwMi42OCAxNDc1LjlWMTQ3NS45WiIgc3Ryb2tlPSIjMjMxRjIwIiBzdHJva2Utd2lkdGg9IjYuNDI1MDgiIHN0cm9rZS1taXRlcmxpbWl0PSIxMCIgc3Ryb2tlLWxpbmVjYXA9InJvdW5kIiBzdHJva2UtbGluZWpvaW49InJvdW5kIi8+CjxwYXRoIGQ9Ik04MC41MTcgODA3Ljg3Nkg0Ny4yMzIxSDM2LjE2NTNDMzUuMzYyOCA4MDcuODc2IDM0LjYwMjQgODA4LjAwMyAzMy44NDIxIDgwOC4xM0MyOS45OTgzIDgwOC43MjEgMjYuNDkyNCA4MTAuNjIyIDI0LjAwMDMgODEzLjY2M0wxNy43NDg4IDgyMS4zNTFDMTUuNTEwMSA4MjQuMTM4IDE0LjI4NTIgODI3LjYwMiAxNC4yODUyIDgzMS4xOTNWODczLjM0OFY5MTUuNTAzQzE0LjI4NTIgOTE5LjA5MyAxNS41MTAxIDkyMi41NTcgMTcuNzQ4OCA5MjUuMzQ1TDI0LjAwMDMgOTMzLjAzMkMyNi40OTI0IDkzNi4wNzQgMjkuOTk4MyA5MzcuOTc0IDMzLjg0MjEgOTM4LjU2NkMzNC42MDI0IDkzOC42OTMgMzUuMzYyOCA5MzguODE5IDM2LjE2NTMgOTM4LjgxOUg0Ny4yMzIxSDgwLjUxN0M3OS43OTkgOTE2LjcyOCA3OS42MyA4OTQuNjc5IDc5Ljg0MTIgODczLjM0OEM3OS42MyA4NTIuMDE3IDc5Ljc5OSA4MjkuOTY4IDgwLjUxNyA4MDcuODc2WiIgc3Ryb2tlPSIjMjMxRjIwIiBzdHJva2Utd2lkdGg9IjYuNDI1MDgiIHN0cm9rZS1taXRlcmxpbWl0PSIxMCIgc3Ryb2tlLWxpbmVjYXA9InJvdW5kIiBzdHJva2UtbGluZWpvaW49InJvdW5kIi8+CjxwYXRoIGQ9Ik05OTkuODIyIDE2MDIuODNDOTQ4Ljg4MSAxNjAyLjYyIDg5Ny45NCAxNjAyLjQxIDg0Ny4wNDEgMTYwMi4xOUM4MTAuMzc3IDE2MDIuMDIgNzczLjcxMyAxNjAxLjg2IDczNy4wNDkgMTYwMS42OUM2NjQuMzk2IDE2MDEuMzUgNTkxLjExMSAxNjA0Ljc3IDUxOC45NjUgMTU5NEM1MDcuMjIyIDE1OTIuMjMgNDkxLjYzNiAxNTg5Ljk0IDQ3NS43MTIgMTU4Ni4xNEM0NjEuMDk3IDE1ODIuNjQgNDQ2LjM1NSAxNTc3Ljc0IDQzMy45MzcgMTU3MC42OEM0MjMuMTIzIDE1NjQuNTIgNDE0LjI1MyAxNTU2LjY2IDQwOS4wMTUgMTU0Ni42MUM0NDMuMTg3IDE1NTIuNTIgNDcxLjQ4OCAxNTUzLjUzIDQ4NC44NzggMTU1My41OEM0ODkuMTAyIDE1NTMuNTggNDkzLjE1NyAxNTUyLjIyIDQ5Ni41MzYgMTU0OS45QzYzMC42ODkgMTU3MC40MyA5NTMuNjU0IDE1NzYuODUgMTEyOC4zNiAxNTc4Ljg4QzExMjMuMjkgMTU4Ny45MiAxMTE5LjIzIDE1OTYuMjQgMTExNi4xMSAxNjAzLjI5QzEwNzcuMzMgMTYwMy4xMiAxMDM4LjU2IDE2MDMgOTk5LjgyMiAxNjAyLjgzVjE2MDIuODNaIiBzdHJva2U9IiMyMzFGMjAiIHN0cm9rZS13aWR0aD0iNi40MjUwOCIgc3Ryb2tlLW1pdGVybGltaXQ9IjEwIiBzdHJva2UtbGluZWNhcD0icm91bmQiIHN0cm9rZS1saW5lam9pbj0icm91bmQiLz4KPHBhdGggZD0iTTI5NzQuOTEgMTQ0OC43NEMyOTczLjUyIDE0NDMuMjUgMjk3MS4wNiAxNDM4LjM5IDI5NjcuODEgMTQzMy45NUMyOTk3LjkzIDE0MzUuNzMgMzA2NC41NCAxNDQwLjE2IDMwNjMuOTkgMTQ1NkMzMDYzLjgyIDE0NjAuNTYgMzA2MC43NCAxNDY0LjYyIDMwNTYuOTQgMTQ2Ny4xNUMzMDM0LjMgMTQ4Mi4xOSAzMDA0LjI3IDE0ODcuNjggMjk3NS4yOSAxNDkwLjg1QzI5NzguNSAxNDc3Ljg0IDI5NzguNzUgMTQ2My43NyAyOTc0LjkxIDE0NDguNzRaIiBzdHJva2U9IiMyMzFGMjAiIHN0cm9rZS13aWR0aD0iNi40MjUwOCIgc3Ryb2tlLW1pdGVybGltaXQ9IjEwIiBzdHJva2UtbGluZWNhcD0icm91bmQiIHN0cm9rZS1saW5lam9pbj0icm91bmQiLz4KPHBhdGggZD0iTTk2MS43MjIgMTQ0OS44OEM5MzguMjM3IDE0MjUuNDYgOTE4LjE3MyAxMzk3Ljc1IDkwMC43NyAxMzY4Ljc4QzgzMi45MzMgMTI1NiA4MDQuNDY0IDExMjIuNjUgNzk2Ljk0NSA5OTIuNTA2Qzc5NC42NjQgOTUyLjk3IDc5My43NzcgOTEzLjEzNyA3OTMuNjkyIDg3My4zNDhDNzkzLjc3NyA4MzMuNTU4IDc5NC42NjQgNzkzLjcyNiA3OTYuOTQ1IDc1NC4xODlDODA0LjQ2NCA2MjQuMDkxIDgzMi45MzMgNDkwLjY5OCA5MDAuNzcgMzc3LjkxOEM5MTguMjE1IDM0OC45NDIgOTM4LjI3OSAzMjEuMjMyIDk2MS43MjIgMjk2LjgxOEM5NjUuOTg4IDI5Mi4zODMgOTgxLjI3OSAyNzIuNjE0IDk4OC4zMzMgMjcyLjUzQzk4OC4zMzMgMjcyLjUzIDk2MC4zNyAyNzMuMTYzIDk0OS41NTcgMjgyLjA3NkM5NDcuOTEgMjgzLjQyOCA5NDYuMzA1IDI4NC45MDYgOTQ0Ljc0MiAyODYuMzg1QzkyOS40MDkgMzAwLjU3NyA5MTYuNzM3IDMxOS43MTIgOTA0LjY1NiAzMzYuMTAxQzg2NS45NjUgMzg4LjUyIDgzNC4wNzQgNDQ2LjQzMSA4MTMuMjA3IDUwOC4yMjhDNzc0LjY0MiA2MjIuNDg2IDc2OC4yMjIgNzUyLjc5NSA3NjkuMDY3IDg3My4zOUM3NjguMjY0IDk5My45NDIgNzc0LjY0MiAxMTI0LjI1IDgxMy4yMDcgMTIzOC41NUM4MzQuMDc0IDEzMDAuMzUgODY1Ljk2NSAxMzU4LjMgOTA0LjY1NiAxNDEwLjY4QzkxNi43MzcgMTQyNy4wNyA5MjkuNDA5IDE0NDYuMiA5NDQuNzQyIDE0NjAuNEM5NDYuMzQ3IDE0NjEuODcgOTQ3LjkxIDE0NjMuMzUgOTQ5LjU1NyAxNDY0LjdDOTYwLjM3IDE0NzMuNjIgOTg4LjMzMyAxNDc0LjI1IDk4OC4zMzMgMTQ3NC4yNUM5ODEuMjM3IDE0NzQuMDggOTY1Ljk4OCAxNDU0LjMxIDk2MS43MjIgMTQ0OS44OFYxNDQ5Ljg4WiIgc3Ryb2tlPSIjMjMxRjIwIiBzdHJva2Utd2lkdGg9IjYuNDI1MDgiIHN0cm9rZS1taXRlcmxpbWl0PSIxMCIgc3Ryb2tlLWxpbmVjYXA9InJvdW5kIiBzdHJva2UtbGluZWpvaW49InJvdW5kIi8+CjxwYXRoIGQ9Ik00MDkuMDE1IDE1NDYuNjFDMzg0LjQ3NCAxNTQyLjM0IDM1Ni45MzQgMTUzNS41NCAzMjkuNjQ3IDE1MjQuNjRDMjQ5LjA5NiAxNDkyLjQxIDIxNS4yMTkgMTQwNC4yNiAxNzcuMDM1IDEzNTAuODdDMTQyLjIyOSAxMzAyLjE3IDkzLjQ0MjQgMTIyMS43NCA3My41NDc1IDExNDQuOTFDNjIuNTY1MSAxMTI4LjMxIDU0Ljc5MyAxMTA5IDUwLjE4ODkgMTA5MC4wNEM0Mi45MjM3IDEwNjAuMTcgMzQuMjY0NSAxMDA5Ljc0IDMzLjg0MjEgOTM4LjYwOEMyOS45OTgzIDkzOC4wMTcgMjYuNDkyNCA5MzYuMTE2IDI0LjAwMDMgOTMzLjA3NUwxNy43NDg4IDkyNS4zODdDMTUuNTEwMSA5MjIuNTk5IDE0LjI4NTIgOTE5LjEzNiAxNC4yODUyIDkxNS41NDVWODczLjM5VjgzMS4yMzVDMTQuMjg1MiA4MjcuNjQ0IDE1LjUxMDEgODI0LjE4MSAxNy43NDg4IDgyMS4zOTNMMjQuMDAwMyA4MTMuNzA1QzI2LjQ5MjQgODEwLjY2NCAyOS45OTgzIDgwOC43NjMgMzMuODQyMSA4MDguMTcyQzM0LjMwNjggNzM3LjA0IDQyLjkyMzcgNjg2LjYwNiA1MC4xODg5IDY1Ni43NDJDNTQuNzkzIDYzNy43NzcgNjIuNTY1MSA2MTguNDczIDczLjU0NzUgNjAxLjg3M0M5My40NDI0IDUyNS4wODEgMTQyLjI3MSA0NDQuNjU3IDE3Ny4wMzUgMzk1LjkxMkMyMTUuMTc3IDM0Mi41MjEgMjQ5LjA5NiAyNTQuMzI1IDMyOS42NDcgMjIyLjEzOEMzNTYuOTM0IDIxMS4yNCAzODQuNDc0IDIwNC40NCA0MDkuMDE1IDIwMC4xNzNDNDE0LjI1MyAxOTAuMDc4IDQyMy4xMjMgMTgyLjI2NCA0MzMuOTM3IDE3Ni4wOTdDNDA3LjkxNyAxNzcuMTk1IDM1OS43NjQgMTgxLjU4OCAzMTMuNTU0IDE5OC4zNTdDMjQ1LjcxNyAyMjIuOTgzIDE3OS42MTEgMzE3LjkzOCAxNzkuNjExIDMxNy45MzhDMTc5LjYxMSAzMTcuOTM4IDEwMi4zNTUgNDE4LjQ2OCA1Ni45ODk1IDQ5Ni4zNThDNDcuNTcwMSA1MTIuNTM2IDM5LjUwMjIgNTI3Ljc4NSAzMy43OTk5IDU0MC44NzlDMC43MjYxOTIgNjE3LjE2NCAzLjI2MDU4IDcwNC40NzMgMy4yNjA1OCA3MDQuNDczVjg3My4zOVYxMDQyLjMxQzMuMjYwNTggMTA0Mi4zMSAwLjcyNjE5MiAxMTI5LjYyIDMzLjc5OTkgMTIwNS45QzM5LjUwMjIgMTIxOS4wNCA0Ny41NzAxIDEyMzQuMjQgNTYuOTg5NSAxMjUwLjQyQzEwMi4zNTUgMTMyOC4zMSAxNzkuNjExIDE0MjguODQgMTc5LjYxMSAxNDI4Ljg0QzE3OS42MTEgMTQyOC44NCAyNDUuNzE3IDE1MjMuOCAzMTMuNTU0IDE1NDguNDJDMzU5Ljc2NCAxNTY1LjE5IDQwNy45MTcgMTU2OS41OCA0MzMuOTM3IDE1NzAuNjhDNDIzLjEyMyAxNTY0LjUyIDQxNC4yMTEgMTU1Ni42NiA0MDkuMDE1IDE1NDYuNjFWMTU0Ni42MVoiIHN0cm9rZT0iIzIzMUYyMCIgc3Ryb2tlLXdpZHRoPSI2LjQyNTA4IiBzdHJva2UtbWl0ZXJsaW1pdD0iMTAiIHN0cm9rZS1saW5lY2FwPSJyb3VuZCIgc3Ryb2tlLWxpbmVqb2luPSJyb3VuZCIvPgo8cGF0aCBkPSJNMTE1MS43NiAxNTQ0LjAzQzExMjAuNDIgMTU0Mi40NyAxMDg5LjA3IDE1NDAuNDQgMTA1Ny43NyAxNTM3Ljc0QzEwNTUuMTYgMTUzNy41MiAxMDUzLjg5IDE1MzUuNDEgMTA1My45NyAxNTMzLjM0QzEwNTQuMDYgMTUzMS41MyAxMDU1LjE2IDE1MjkuNzkgMTA1Ny40NCAxNTI5LjQxQzEwODYuNDEgMTUyNC42OCAxMTMyLjgzIDE1MTcuMTIgMTE4OS41MiAxNTA4LjA0QzExNzQuNzggMTUxOC40MyAxMTYyLjIzIDE1MzEuMDIgMTE1MS43NiAxNTQ0LjAzVjE1NDQuMDNaIiBzdHJva2U9IiMyMzFGMjAiIHN0cm9rZS13aWR0aD0iNi40MjUwOCIgc3Ryb2tlLW1pdGVybGltaXQ9IjEwIiBzdHJva2UtbGluZWNhcD0icm91bmQiIHN0cm9rZS1saW5lam9pbj0icm91bmQiLz4KPHBhdGggZD0iTTI4ODEuMDEgMTQ5OS4zOEMyNzc5LjA5IDE1MDcuOTYgMjY3Ni45MSAxNTEzLjcgMjU3NC44NiAxNTE5LjYyQzI0NTguOTUgMTUyNi4zMyAyMzQyLjk2IDE1MzMuMDUgMjIyNi45MyAxNTM2LjUxQzIyMDguMyAxNTM3LjA2IDIxODkuNzIgMTUzNy40OCAyMTcxLjA5IDE1MzcuODZDMjE0Mi41OCAxNTM4LjQ1IDIxMTQuMDIgMTUzOC45MiAyMDg1LjUxIDE1MzkuMzhDMjA4Mi42OCAxNTM5LjQzIDIwNzkuODUgMTUzOS40NyAyMDc3LjAyIDE1MzkuNTVDMjAzOC4xNiAxNTQwLjE5IDE5OTkuMyAxNTQwLjc0IDE5NjAuNDQgMTU0MS4yNEMxOTE2Ljk3IDE1NDEuODMgMTg3My41MSAxNTQyLjM4IDE4MzAgMTU0Mi45M0MxNzgwLjU0IDE1NDMuNTIgMTczMS4wMyAxNTQzLjgyIDE2ODEuNTcgMTU0NC4yNEMxNjI4Ljk4IDE1NDQuNzEgMTU3Ni4zOSAxNTQ1LjY4IDE1MjMuODEgMTU0Ni41NkMxNDcyLjA2IDE1NDcuNDUgMTQyMC4zMiAxNTQ4LjI1IDEzNjguNTggMTU0OC40MkMxMzMzLjY0IDE1NDguNTUgMTI5OC42NyAxNTQ4LjM0IDEyNjMuNzQgMTU0Ny43NUwxMjc1LjYxIDE1MjcuODFDMTQwMi40MSAxNTI3LjAxIDE3ODUuMTQgMTUyNC4zIDIwOTQuNTEgMTUxOS4wMkMyMjQwLjYxIDE1MTYuNTMgMjM3MC4zMyAxNTEzLjQ5IDI0NDguOTggMTUwOS44MkMyNjczLjk5IDE0OTkuMyAyODQzLjYzIDE0ODIuMzIgMjkwMi42OCAxNDc1LjlDMjg5Ni40MyAxNDg0LjQzIDI4ODcuOTQgMTQ5Mi45NiAyODgxLjAxIDE0OTkuMzhWMTQ5OS4zOFoiIHN0cm9rZT0iIzIzMUYyMCIgc3Ryb2tlLXdpZHRoPSI2LjQyNTA4IiBzdHJva2UtbWl0ZXJsaW1pdD0iMTAiIHN0cm9rZS1saW5lY2FwPSJyb3VuZCIgc3Ryb2tlLWxpbmVqb2luPSJyb3VuZCIvPgo8cGF0aCBkPSJNMTk4OC45OSAxNTIwLjY3QzIwMDUuNTUgMTQ5OC43OSAyMDU1LjEgMTQzMS45NyAyMDY3Ljk0IDEzOTguNjRDMjA3My41NiAxMzk4LjU2IDIwNzkuMjIgMTM5OC40NyAyMDg0LjgzIDEzOTguNDNDMjA3NS41OCAxNDI4Ljk3IDIwMzMuMDUgMTQ5Mi44NCAyMDE0LjIxIDE1MjAuMzNDMjAwNS44NSAxNTIwLjQyIDE5OTcuNDQgMTUyMC41NCAxOTg4Ljk5IDE1MjAuNjdaIiBzdHJva2U9IiMyMzFGMjAiIHN0cm9rZS13aWR0aD0iNi40MjUwOCIgc3Ryb2tlLW1pdGVybGltaXQ9IjEwIiBzdHJva2UtbGluZWNhcD0icm91bmQiIHN0cm9rZS1saW5lam9pbj0icm91bmQiLz4KPHBhdGggZD0iTTIwOTQuNTEgMTUxOC45OEMyMDY4LjIzIDE1MTkuNDUgMjA0MS4zNyAxNTE5Ljg3IDIwMTQuMjUgMTUyMC4yNUMyMDMzLjEzIDE0OTIuNzkgMjA3NS42NyAxNDI4Ljg4IDIwODQuODggMTM5OC4zNUMyMTA1LjcgMTM5OC4xMyAyMTI2LjY1IDEzOTguMTMgMjE0OC4xMSAxMzk4LjNDMjE2NC44NCAxMzk4LjQzIDIxODEuOSAxMzk4LjY0IDIxOTkuMzkgMTM5OC44OUwyMTU3LjM2IDE1MTcuODRDMjEzNi44MyAxNTE4LjI2IDIxMTUuODggMTUxOC42NCAyMDk0LjUxIDE1MTguOThaIiBzdHJva2U9IiMyMzFGMjAiIHN0cm9rZS13aWR0aD0iNi40MjUwOCIgc3Ryb2tlLW1pdGVybGltaXQ9IjEwIiBzdHJva2UtbGluZWNhcD0icm91bmQiIHN0cm9rZS1saW5lam9pbj0icm91bmQiLz4KPHBhdGggZD0iTTIxNTcuNCAxNTE3Ljg4TDIxOTkuNDMgMTM5OC45NEMyMjA0LjY3IDEzOTkuMDIgMjIwOS45OSAxMzk5LjExIDIyMTUuMzEgMTM5OS4xOUwyMTczLjQ5IDE1MTcuNTVDMjE2OC4xNyAxNTE3LjY3IDIxNjIuNzcgMTUxNy43NiAyMTU3LjQgMTUxNy44OFYxNTE3Ljg4WiIgc3Ryb2tlPSIjMjMxRjIwIiBzdHJva2Utd2lkdGg9IjYuNDI1MDgiIHN0cm9rZS1taXRlcmxpbWl0PSIxMCIgc3Ryb2tlLWxpbmVjYXA9InJvdW5kIiBzdHJva2UtbGluZWpvaW49InJvdW5kIi8+CjxwYXRoIGQ9Ik0yMTQ4LjExIDEzOTguMzRMMjA1Ni4wNyAxNjA1LjQiIHN0cm9rZT0iIzIzMUYyMCIgc3Ryb2tlLXdpZHRoPSI2LjQyNTA4IiBzdHJva2UtbWl0ZXJsaW1pdD0iMTAiIHN0cm9rZS1saW5lY2FwPSJyb3VuZCIgc3Ryb2tlLWxpbmVqb2luPSJyb3VuZCIvPgo8cGF0aCBkPSJNMjk3NS4yOSAxNDkwLjg5QzI5NjEuODYgMTQ5Mi4zNyAyOTQ4LjY0IDE0OTMuMyAyOTM2LjUxIDE0OTQuNDhDMjkxOC4wMSAxNDk2LjI2IDI4OTkuNTEgMTQ5Ny44NiAyODgxLjAxIDE0OTkuNDJDMjg4Ny45NCAxNDkzIDI4OTYuNDcgMTQ4NC40NyAyOTAyLjcyIDE0NzUuOTRDMjkwOC4zOCAxNDY4LjE3IDI5MTIuMTQgMTQ2MC40OCAyOTExLjA0IDE0NTQuNTdDMjkwOS41MiAxNDQ2LjYzIDI5MDMuNTcgMTQzNi4yMyAyODk4LjAzIDE0MjcuODNDMjkxNi44NyAxNDI5LjUyIDI5MzUuNzEgMTQzMS4yOSAyOTU0LjU1IDE0MzMuMTlDMjk1Ni42NiAxNDMzLjQgMjk2MS40MyAxNDMzLjY2IDI5NjcuODYgMTQzNC4wNEMyOTcxLjExIDE0MzguNDcgMjk3My41NiAxNDQzLjMzIDI5NzQuOTUgMTQ0OC44MkMyOTc4Ljc1IDE0NjMuNzcgMjk3OC41IDE0NzcuODQgMjk3NS4yOSAxNDkwLjg5WiIgc3Ryb2tlPSIjMjMxRjIwIiBzdHJva2Utd2lkdGg9IjYuNDI1MDgiIHN0cm9rZS1taXRlcmxpbWl0PSIxMCIgc3Ryb2tlLWxpbmVjYXA9InJvdW5kIiBzdHJva2UtbGluZWpvaW49InJvdW5kIi8+CjxwYXRoIGQ9Ik0xMDkzLjA5IDE1MjMuNTlDMTA5My4wOSAxNTIzLjU5IDEwNzQuMTYgMTQ5Ni41NSAxMDYzLjk4IDE0NzAuNDUiIHN0cm9rZT0iIzIzMUYyMCIgc3Ryb2tlLXdpZHRoPSI2LjQyNTA4IiBzdHJva2UtbWl0ZXJsaW1pdD0iMTAiIHN0cm9rZS1saW5lY2FwPSJyb3VuZCIgc3Ryb2tlLWxpbmVqb2luPSJyb3VuZCIvPgo8cGF0aCBkPSJNMTE1MC45MSAxNTQzLjk5TDExNTEuMzggMTU0NC41NEMxMTUxLjUgMTU0NC4zNyAxMTUxLjYzIDE1NDQuMiAxMTUxLjc2IDE1NDQuMDNDMTE1MS40NiAxNTQzLjk5IDExNTEuMjEgMTU0My45OSAxMTUwLjkxIDE1NDMuOTlaIiBzdHJva2U9IiMyMzFGMjAiIHN0cm9rZS13aWR0aD0iNi40MjUwOCIgc3Ryb2tlLW1pdGVybGltaXQ9IjEwIiBzdHJva2UtbGluZWNhcD0icm91bmQiIHN0cm9rZS1saW5lam9pbj0icm91bmQiLz4KPHBhdGggZD0iTTI5MzYuNTEgMTQ5NC40NEMyOTE4LjAxIDE0OTYuMjEgMjg5OS41MSAxNDk3LjgyIDI4ODEuMDEgMTQ5OS4zOEMyNzc5LjA5IDE1MDcuOTYgMjY3Ni45MSAxNTEzLjcgMjU3NC44NiAxNTE5LjYyQzI0NTguOTUgMTUyNi4zMyAyMzQyLjk2IDE1MzMuMDUgMjIyNi45MyAxNTM2LjUxQzIyMDguMyAxNTM3LjA2IDIxODkuNzEgMTUzNy40OCAyMTcxLjA5IDE1MzcuODZDMjE0Mi41OCAxNTM4LjQ1IDIxMTQuMDIgMTUzOC45MiAyMDg1LjUxIDE1MzkuMzhDMjA4Mi42OCAxNTM5LjQzIDIwNzkuODUgMTUzOS40NyAyMDc3LjAyIDE1MzkuNTVDMjAzOC4xNiAxNTQwLjE5IDE5OTkuMyAxNTQwLjczIDE5NjAuNDQgMTU0MS4yNEMxOTE2Ljk3IDE1NDEuODMgMTg3My41MSAxNTQyLjM4IDE4MzAgMTU0Mi45M0MxNzgwLjU0IDE1NDMuNTIgMTczMS4wMyAxNTQzLjgyIDE2ODEuNTcgMTU0NC4yNEMxNjI4Ljk4IDE1NDQuNzEgMTU3Ni4zOSAxNTQ1LjY4IDE1MjMuODEgMTU0Ni41NkMxNDcyLjA2IDE1NDcuNDUgMTQyMC4zMiAxNTQ4LjI1IDEzNjguNTcgMTU0OC40MkMxMzMzLjY0IDE1NDguNTUgMTI5OC42NyAxNTQ4LjM0IDEyNjMuNzQgMTU0Ny43NUMxMjYzLjQ4IDE1NTIuNiAxMjYzLjY5IDE1NTguMjYgMTI2NC4yNCAxNTY0LjUyQzEyNjQuNjcgMTU2OS4yOSAxMjY1LjMgMTU3NC40NCAxMjY2LjA2IDE1NzkuODFDMTMzNy45OSAxNTc5Ljg5IDE1ODQuNzYgMTU4MC4yMyAxODI2LjM3IDE1ODAuMzFDMTgyMy43NSAxNTcyLjkyIDE4MjcuOTMgMTU2Ni40MiAxODMxLjQ0IDE1NjIuNjJDMTgzMy41MSAxNTYwLjM4IDE4MzYuMzggMTU1OS4wNyAxODM5LjQ2IDE1NTkuMDdIMTg2MC45NkgxOTcwLjkxSDIwMTMuMDNDMjAxOC42NCAxNTU5LjA3IDIwMjMuNTQgMTU2My4zOCAyMDIzLjg0IDE1NjguOTlDMjAyNC4wOSAxNTczLjMgMjAyMi44NyAxNTc3LjEgMjAyMC45MiAxNTgwLjMxQzIwMzYuNjggMTU4MC4zMSAyMDUyLjE4IDE1ODAuMzEgMjA2Ny4zIDE1ODAuMjdDMjE3MC4wMyAxNTgwLjE5IDIyNTcuNjQgMTU4MC4wNiAyMzEwLjg2IDE1NzkuNzZDMjM0MC42OCAxNTc5LjYgMjM3NC45NCAxNTc5LjM4IDI0MTIuMjMgMTU3OS4xN0MyNDMyLjA5IDE1NzUuNzkgMjQ1Mi43OCAxNTc0LjY1IDI0NzEuNSAxNTcyLjc5QzI1MTMuMDYgMTU2OC43NCAyNTU0LjU0IDE1NjYuODggMjU5Ni4yNyAxNTY1LjI4QzI2NDYuMiAxNTYzLjMzIDI2OTYuMTcgMTU2MS4yNiAyNzQ2LjEgMTU1OS4wN0gyNzA3LjM2QzI3MDUuMzMgMTU1OS4wNyAyNzAzLjI3IDE1NTguNTIgMjcwMS41OCAxNTU3LjQyQzI2OTkuNTEgMTU1Ni4wMyAyNjk3LjgyIDE1NTQuNjMgMjY5Ni4zOCAxNTUzLjI4QzI2OTYuMyAxNTUzLjIgMjY5Ni4xNyAxNTUzLjExIDI2OTYuMDQgMTU1Mi45OEMyNjk1Ljk2IDE1NTIuOSAyNjk1LjkyIDE1NTIuODYgMjY5NS44NyAxNTUyLjc3QzI2OTQuNDggMTU1MS4zOCAyNjkzLjM4IDE1NDkuOTkgMjY5Mi41NCAxNTQ4LjU5QzI2OTIuMTEgMTU0Ny44NyAyNjkxLjczIDE1NDcuMTYgMjY5MS40NCAxNTQ2LjQ0QzI2ODguMSAxNTM4LjY3IDI2OTIuNTQgMTUzMS43OCAyNjk2LjIxIDE1MjcuODFDMjY5OC4yOCAxNTI1LjU3IDI3MDEuMTUgMTUyNC4yNiAyNzA0LjI0IDE1MjQuMjZIMjcyNS43NEgyODM1LjY5SDI4NzcuOEMyODgzLjQyIDE1MjQuMjYgMjg4OC4zMiAxNTI4LjU3IDI4ODguNjEgMTUzNC4xOUMyODg5LjA4IDE1NDIuNDIgMjg4NC4yNiAxNTQ4LjY4IDI4NzkuMzYgMTU1Mi44MkMyODk0Ljc0IDE1NTIuMDYgMjkxMC4xMSAxNTUxLjM0IDI5MjUuNDkgMTU1MC41M0MyOTI4LjkxIDE1NTAuMzcgMjkzMi4zMyAxNTUwLjE1IDI5MzUuNzUgMTU0OS45OUMyOTU0LjY4IDE1MzMuNzIgMjk2OS43NiAxNTEzLjg3IDI5NzUuNDIgMTQ5MC44MUMyOTYxLjg2IDE0OTIuMzMgMjk0OC42NCAxNDkzLjMgMjkzNi41MSAxNDk0LjQ0VjE0OTQuNDRaIiBzdHJva2U9IiMyMzFGMjAiIHN0cm9rZS13aWR0aD0iNi40MjUwOCIgc3Ryb2tlLW1pdGVybGltaXQ9IjEwIiBzdHJva2UtbGluZWNhcD0icm91bmQiIHN0cm9rZS1saW5lam9pbj0icm91bmQiLz4KPHBhdGggZD0iTTExNjYuODQgMTU3OS4yNkMxMTY3LjA1IDE1NzAuMTMgMTE2Ny42NCAxNTY0LjUyIDExNjcuNjQgMTU2NC41MkwxMTUxLjM4IDE1NDQuNTRDMTE0Mi4xMyAxNTU2LjExIDExMzQuNDggMTU2Ny45NCAxMTI4LjM2IDE1NzguODhDMTEyMy4yOSAxNTg3LjkyIDExMTkuMjMgMTU5Ni4yNCAxMTE2LjExIDE2MDMuMjlDMTEzMy4yMiAxNjAzLjMzIDExNTAuMzIgMTYwMy40MiAxMTY3LjQzIDE2MDMuNUMxMTY2LjggMTU5NC4wOCAxMTY2LjcxIDE1ODUuNzYgMTE2Ni44NCAxNTc5LjI2VjE1NzkuMjZaIiBzdHJva2U9IiMyMzFGMjAiIHN0cm9rZS13aWR0aD0iNi40MjUwOCIgc3Ryb2tlLW1pdGVybGltaXQ9IjEwIiBzdHJva2UtbGluZWNhcD0icm91bmQiIHN0cm9rZS1saW5lam9pbj0icm91bmQiLz4KPHBhdGggZD0iTTMxNTMuODggMTU2Ny4wMUMzMTAzLjQgMTU3MC4xOCAzMDA5Ljk3IDE1NzIuNTQgMjkwMC41MiAxNTc0LjM2QzI3NDQuNDUgMTU3Ni44OSAyNTU1LjcyIDE1NzguMjkgMjQxMi4xOSAxNTc5LjEzQzIzNzQuODkgMTU3OS4zNCAyMzQwLjY0IDE1NzkuNTUgMjMxMC44MiAxNTc5LjcyQzIyNTcuNjQgMTU4MC4wMiAyMTcwLjAzIDE1ODAuMTkgMjA2Ny4yNiAxNTgwLjIzQzIwNTIuMSAxNTgwLjIzIDIwMzYuNjQgMTU4MC4yMyAyMDIwLjg4IDE1ODAuMjdDMjAxNy4xNyAxNTg2LjQ4IDIwMTAuODMgMTU5MC42MiAyMDA3LjMyIDE1OTIuNTZDMjAwNS43NiAxNTkzLjQxIDIwMDQuMDMgMTU5My44MyAyMDAyLjIxIDE1OTMuODNIMTk5MC44MUgxODQyLjU5QzE4NDAuNTYgMTU5My44MyAxODM4LjQ5IDE1OTMuMjggMTgzNi44IDE1OTIuMThDMTgzNC43MyAxNTkwLjc5IDE4MzMuMDQgMTU4OS40IDE4MzEuNjEgMTU4OC4wNEMxODMxLjUyIDE1ODcuOTYgMTgzMS40IDE1ODcuODcgMTgzMS4yNyAxNTg3Ljc1QzE4MzEuMTggMTU4Ny42NiAxODMxLjE0IDE1ODcuNjIgMTgzMS4xIDE1ODcuNTRDMTgyOS43MSAxNTg2LjE0IDE4MjguNjEgMTU4NC43NSAxODI3Ljc2IDE1ODMuMzVDMTgyNy4zNCAxNTgyLjY0IDE4MjYuOTYgMTU4MS45MiAxODI2LjY2IDE1ODEuMkMxODI2LjU0IDE1ODAuOTEgMTgyNi41IDE1ODAuNTcgMTgyNi4zNyAxNTgwLjI3QzE1ODQuNzYgMTU4MC4xOSAxMzM3Ljk5IDE1NzkuODUgMTI2Ni4wNiAxNTc5Ljc2QzEyNjcuMTYgMTU4Ny4zMyAxMjY4LjU5IDE1OTUuMzkgMTI3MC4yOCAxNjAzLjhDMTMxMy43MSAxNjAzLjkzIDEzNTcuMTcgMTYwNC4wOSAxNDAwLjU5IDE2MDQuMjJDMTQ3Ny42OCAxNjA0LjQzIDE1NTQuODEgMTYwNC42NCAxNjMxLjkgMTYwNC44MUMxNzEyLjE5IDE2MDQuOTggMTc5Mi40OSAxNjA1LjE1IDE4NzIuNzUgMTYwNS4yOEMxOTMzLjg3IDE2MDUuMzYgMTk5NC45OSAxNjA1LjQgMjA1Ni4xMSAxNjA1LjQ1QzIwNzUuNzEgMTYwNS40NSAyMDk1LjMxIDE2MDUuNDkgMjExNC44NyAxNjA1LjQ5QzIxOTMuMjIgMTYwNS41MyAyMjcxLjU4IDE2MDUuNDkgMjM0OS44OSAxNjA1LjRDMjQyMy4wOSAxNjA1LjMyIDI0OTYuMzMgMTYwNS4xNSAyNTY5LjUzIDE2MDQuOUMyNjM0Ljg0IDE2MDQuNjkgMjcwMC4xOCAxNjA0LjM5IDI3NjUuNDggMTYwMy45M0MyODIwLjE0IDE2MDMuNTUgMjg3NC43NiAxNjAzLjEyIDI5MjkuNDIgMTYwMi40NUMyOTcwLjY0IDE2MDEuOTQgMzAxMS44MyAxNjAxLjM1IDMwNTMuMDUgMTYwMC4zNEMzMDc4LjA2IDE1OTkuNzQgMzEwMy4wNiAxNTk5LjE5IDMxMjguMDMgMTU5Ny41NUMzMTgzLjg3IDE1OTMuODcgMzIzMS41MiAxNTg5LjAyIDMyNzEuODEgMTU4My44MkMzMzk4LjU3IDE1NjcuNDMgMzQ1MS44OCAxNTQ3LjI4IDM0NTEuODggMTU0Ny4yOEMzMzkyLjI0IDE1NTMuMjQgMzI2Ni40NSAxNTU5LjkxIDMxNTMuODggMTU2Ny4wMVYxNTY3LjAxWiIgc3Ryb2tlPSIjMjMxRjIwIiBzdHJva2Utd2lkdGg9IjYuNDI1MDgiIHN0cm9rZS1taXRlcmxpbWl0PSIxMCIgc3Ryb2tlLWxpbmVjYXA9InJvdW5kIiBzdHJva2UtbGluZWpvaW49InJvdW5kIi8+CjxwYXRoIGQ9Ik0xMzA3LjUgMTc0MS4yNUMxMzA3LjUgMTc0MS4yNSAxMjc4LjI3IDE3NTUuMjMgMTIxNy4yMyAxNzEzLjkyQzExNTYuMTkgMTY3Mi42MSAxMTY3LjY0IDE1NjQuNTIgMTE2Ny42NCAxNTY0LjUySDEyNjQuMkMxMjY5LjQ0IDE2MjQuOTIgMTMwNy41IDE3NDEuMjUgMTMwNy41IDE3NDEuMjVWMTc0MS4yNVoiIHN0cm9rZT0iIzIzMUYyMCIgc3Ryb2tlLXdpZHRoPSI2LjQyNTA4IiBzdHJva2UtbWl0ZXJsaW1pdD0iMTAiIHN0cm9rZS1saW5lY2FwPSJyb3VuZCIgc3Ryb2tlLWxpbmVqb2luPSJyb3VuZCIvPgo8cGF0aCBkPSJNMTI3NS41NiAxNTI3Ljc3TDEyNjMuNjkgMTU0Ny43QzEyNjMuNDQgMTU1Mi41NiAxMjYzLjY1IDE1NTguMjIgMTI2NC4yIDE1NjQuNDdIMTE2Ny42NEwxMTUwLjk2IDE1NDMuOTVDMTE1MS4yNSAxNTQzLjk1IDExNTEuNSAxNTQzLjk5IDExNTEuOCAxNTQzLjk5QzExNjIuMjggMTUzMC45OCAxMTc0LjgyIDE1MTguNDMgMTE4OS42IDE1MDhDMTIyMi41OSAxNTAyLjcyIDEyNTkuMDkgMTQ5Ni44OSAxMjk3LjY1IDE0OTAuODFMMTI3NS41NiAxNTI3Ljc3WiIgc3Ryb2tlPSIjMjMxRjIwIiBzdHJva2Utd2lkdGg9IjYuNDI1MDgiIHN0cm9rZS1taXRlcmxpbWl0PSIxMCIgc3Ryb2tlLWxpbmVjYXA9InJvdW5kIiBzdHJva2UtbGluZWpvaW49InJvdW5kIi8+CjxwYXRoIGQ9Ik00MS42MTQyIDg1Mi41NjZMMTQuMjg1MiA4NjMuNzE3Vjg3My4zOVY4ODMuMDYzTDQxLjYxNDIgODk0LjIxNEM0MS42MTQyIDg4Ny42NjcgNDEuNjE0MiA4ODAuMjMzIDQxLjU3MiA4NzMuMzlDNDEuNTcyIDg2Ni41NDcgNDEuNjE0MiA4NTkuMDcxIDQxLjYxNDIgODUyLjU2NloiIHN0cm9rZT0iIzIzMUYyMCIgc3Ryb2tlLXdpZHRoPSI2LjQyNTA4IiBzdHJva2UtbWl0ZXJsaW1pdD0iMTAiIHN0cm9rZS1saW5lY2FwPSJyb3VuZCIgc3Ryb2tlLWxpbmVqb2luPSJyb3VuZCIvPgo8cGF0aCBkPSJNMTQuMjg1MiA5MDYuNDIxVjg4My4wNjNMNDEuNjE0MiA4OTQuMjE0QzQxLjYxNDIgODk5LjUzNiA0MS41NzIgOTA0LjI2NyA0MS40ODc1IDkwNy41MTlMMTQuMjg1MiA5MDYuNDIxWiIgc3Ryb2tlPSIjMjMxRjIwIiBzdHJva2Utd2lkdGg9IjYuNDI1MDgiIHN0cm9rZS1taXRlcmxpbWl0PSIxMCIgc3Ryb2tlLWxpbmVjYXA9InJvdW5kIiBzdHJva2UtbGluZWpvaW49InJvdW5kIi8+CjxwYXRoIGQ9Ik00MS40MDMgOTEwLjA1NEM0MS4xNDk2IDkxNi41NTkgMzIuOTU1MSA5MjcuNzk1IDI2LjYxOTEgOTM1LjU2N0MyNS42NDc2IDkzNC44NDkgMjQuNzYwNiA5MzQuMDQ2IDI0LjAwMDMgOTMzLjExN0wxNy43NDg4IDkyNS40MjlDMTUuNTEwMSA5MjIuNjQyIDE0LjI4NTIgOTE5LjE3OCAxNC4yODUyIDkxNS41ODdWOTA2LjQ2NEw0MS40ODc1IDkwNy41MkM0MS40NDUzIDkwOC40OTEgNDEuNDQ1MyA5MDkuMzM2IDQxLjQwMyA5MTAuMDU0VjkxMC4wNTRaIiBzdHJva2U9IiMyMzFGMjAiIHN0cm9rZS13aWR0aD0iNi40MjUwOCIgc3Ryb2tlLW1pdGVybGltaXQ9IjEwIiBzdHJva2UtbGluZWNhcD0icm91bmQiIHN0cm9rZS1saW5lam9pbj0icm91bmQiLz4KPHBhdGggZD0iTTQzMi4wNzggMTUyMy4xMkM0MjIuNTMyIDE1MjIuNjEgNDExLjYzNCAxNTIxLjgxIDQwMC4xODcgMTUyMC41OUMzNjkuMTQxIDE1MDAuNDggMzE3Ljc3NyAxNDY1LjM0IDI5NC44ODMgMTQzOS4wMkMyOTQuODgzIDE0MzkuMDIgMjY2LjA3NiAxNDI3LjE1IDIzOC4wNzEgMTM4Ni40OEMyMTAuMTA4IDEzNDUuOCAxMjEuMDI1IDEyMzYuMzYgMTYzLjg1NiAxMjI0LjUzTDE2My45ODMgMTIyNC41N0MxNjYuODU1IDEyMjguNTggMTY5Ljc2OSAxMjMyLjQ3IDE3Mi42ODQgMTIzNi40SDE3Mi42NDJDMTU3LjQzNSAxMjYxLjE5IDM4MS4yMjEgMTQ3NS4wNSA0MzIuMDc4IDE1MjMuMTJWMTUyMy4xMloiIHN0cm9rZT0iIzIzMUYyMCIgc3Ryb2tlLXdpZHRoPSI2LjQyNTA4IiBzdHJva2UtbWl0ZXJsaW1pdD0iMTAiIHN0cm9rZS1saW5lY2FwPSJyb3VuZCIgc3Ryb2tlLWxpbmVqb2luPSJyb3VuZCIvPgo8cGF0aCBkPSJNNDY0LjQzNCAxNTIzLjhDNDU5LjM2NSAxNTI0LjAxIDQ0Ny40NTMgMTUyMy45MiA0MzIuMDc4IDE1MjMuMTJDMzgxLjI2NCAxNDc1LjA1IDE1Ny40MzUgMTI2MS4xOSAxNzIuNjQyIDEyMzYuNEgxNzIuNjg0QzIwNC40NDggMTI3OS4xNCAyMzguNzQ3IDEzMTYuODIgMjcwLjgwNyAxMzQ4LjU5QzI5OC41MTYgMTM3Ni4wOCAzMjQuNTM2IDEzOTkuMjcgMzQ1LjUyOSAxNDE3LjYxQzM3OC4yNjUgMTQ0Ni4xNiA0MTguNjQ2IDE0NzkuMTEgNDQ4LjQyNSAxNTAzLjA2QzQ1OC41NjIgMTUxMS4yMSA0NjcuNDMzIDE1MTguMjYgNDc0LjQwMiAxNTIzLjhDNDcxLjI3NiAxNTIzLjY3IDQ2Ny45NCAxNTIzLjYzIDQ2NC40MzQgMTUyMy44VjE1MjMuOFoiIHN0cm9rZT0iIzIzMUYyMCIgc3Ryb2tlLXdpZHRoPSI2LjQyNTA4IiBzdHJva2UtbWl0ZXJsaW1pdD0iMTAiIHN0cm9rZS1saW5lY2FwPSJyb3VuZCIgc3Ryb2tlLWxpbmVqb2luPSJyb3VuZCIvPgo8cGF0aCBkPSJNMjM2LjI1NSAxNDE0LjAyTDI2MC4wMzYgMTQxMy4xM0MyNjAuMDM2IDE0MTMuMTMgMjk3LjcxNCAxNDQwLjI5IDM0OC44NjYgMTQ0Mi44MiIgc3Ryb2tlPSIjMjMxRjIwIiBzdHJva2Utd2lkdGg9IjYuNDI1MDgiIHN0cm9rZS1taXRlcmxpbWl0PSIxMCIgc3Ryb2tlLWxpbmVjYXA9InJvdW5kIiBzdHJva2UtbGluZWpvaW49InJvdW5kIi8+CjxwYXRoIGQ9Ik0yMTEuMjQ5IDEzNDkuMjJDMjExLjI0OSAxMzQ5LjIyIDIzNi41NTEgMTM1MS4zNyAyNTYuMTkyIDEzNDguNTkiIHN0cm9rZT0iIzIzMUYyMCIgc3Ryb2tlLXdpZHRoPSI2LjQyNTA4IiBzdHJva2UtbWl0ZXJsaW1pdD0iMTAiIHN0cm9rZS1saW5lY2FwPSJyb3VuZCIgc3Ryb2tlLWxpbmVqb2luPSJyb3VuZCIvPgo8cGF0aCBkPSJNMTY1Ljc1NyAxMjc5LjM2SDE5NS4xOTgiIHN0cm9rZT0iIzIzMUYyMCIgc3Ryb2tlLXdpZHRoPSI2LjQyNTA4IiBzdHJva2UtbWl0ZXJsaW1pdD0iMTAiIHN0cm9rZS1saW5lY2FwPSJyb3VuZCIgc3Ryb2tlLWxpbmVqb2luPSJyb3VuZCIvPgo8cGF0aCBkPSJNMjg3Ny42MyAxNTI0LjNIMjcwNC4wN0MyNzAxLjAzIDE1MjQuMyAyNjk4LjExIDE1MjUuNTcgMjY5Ni4wNCAxNTI3Ljg1QzI2OTAuNzYgMTUzMy42IDI2ODMuNzUgMTU0NS41NSAyNzAxLjQ1IDE1NTcuNDJDMjcwMy4xNCAxNTU4LjU2IDI3MDUuMjEgMTU1OS4wNyAyNzA3LjI0IDE1NTkuMDdIMjg2Ni44NkMyODY4LjYzIDE1NTkuMDcgMjg3MC40MSAxNTU4LjY0IDI4NzEuOTcgMTU1Ny44QzI4NzcuMjkgMTU1NC44OSAyODg5LjE2IDE1NDYuOTQgMjg4OC40NCAxNTM0LjIzQzI4ODguMTUgMTUyOC42MSAyODgzLjI1IDE1MjQuMyAyODc3LjYzIDE1MjQuM1YxNTI0LjNaIiBzdHJva2U9IiMyMzFGMjAiIHN0cm9rZS13aWR0aD0iNi40MjUwOCIgc3Ryb2tlLW1pdGVybGltaXQ9IjEwIiBzdHJva2UtbGluZWNhcD0icm91bmQiIHN0cm9rZS1saW5lam9pbj0icm91bmQiLz4KPHBhdGggZD0iTTI4MzUuNTYgMTUyNC4zTDI4MTkuMTMgMTU0MS42NkgyNzQ1LjY3TDI3MjUuNTcgMTUyNC4zSDI3MDQuMDdDMjcwMS4wMyAxNTI0LjMgMjY5OC4xMSAxNTI1LjU3IDI2OTYuMDQgMTUyNy44MUMyNjkwLjc2IDE1MzMuNTUgMjY4My43NSAxNTQ1LjUxIDI3MDEuNDUgMTU1Ny4zOEMyNzAzLjE0IDE1NTguNTIgMjcwNS4yMSAxNTU5LjAzIDI3MDcuMjQgMTU1OS4wM0gyODU1LjQ1QzI4NDguMzYgMTU0Mi4wOSAyODM1LjU2IDE1MjQuMyAyODM1LjU2IDE1MjQuM1YxNTI0LjNaIiBzdHJva2U9IiMyMzFGMjAiIHN0cm9rZS13aWR0aD0iNi40MjUwOCIgc3Ryb2tlLW1pdGVybGltaXQ9IjEwIiBzdHJva2UtbGluZWNhcD0icm91bmQiIHN0cm9rZS1saW5lam9pbj0icm91bmQiLz4KPHBhdGggZD0iTTI4NzcuNjMgMTUyNC4zSDI4MzUuNTJDMjgzNS41MiAxNTI0LjMgMjg0OC4zNiAxNTQyLjA0IDI4NTUuNDYgMTU1OS4wN0gyODY2Ljg2QzI4NjguNjMgMTU1OS4wNyAyODcwLjQxIDE1NTguNjQgMjg3MS45NyAxNTU3LjhDMjg3Ny4yOSAxNTU0Ljg5IDI4ODkuMTYgMTU0Ni45NCAyODg4LjQ0IDE1MzQuMjNDMjg4OC4xNSAxNTI4LjYxIDI4ODMuMjUgMTUyNC4zIDI4NzcuNjMgMTUyNC4zVjE1MjQuM1oiIHN0cm9rZT0iIzIzMUYyMCIgc3Ryb2tlLXdpZHRoPSI2LjQyNTA4IiBzdHJva2UtbWl0ZXJsaW1pdD0iMTAiIHN0cm9rZS1saW5lY2FwPSJyb3VuZCIgc3Ryb2tlLWxpbmVqb2luPSJyb3VuZCIvPgo8cGF0aCBkPSJNMjcyNS41NyAxNTI0LjNMMjc0NS42NyAxNTQxLjcxSDI4MTkuMTNMMjgzNS41NiAxNTI0LjNIMjcyNS41N1oiIGZpbGw9IiMyMzFGMjAiLz4KPHBhdGggZD0iTTIwMTIuOTQgMTU1OS4wN0gxODM5LjM4QzE4MzYuMzQgMTU1OS4wNyAxODMzLjQyIDE1NjAuMzMgMTgzMS4zNSAxNTYyLjYyQzE4MjYuMDcgMTU2OC4zNiAxODE5LjA2IDE1ODAuMzEgMTgzNi43NiAxNTkyLjE4QzE4MzguNDUgMTU5My4zMiAxODQwLjUyIDE1OTMuODMgMTg0Mi41NSAxNTkzLjgzSDIwMDIuMTdDMjAwMy45NCAxNTkzLjgzIDIwMDUuNzIgMTU5My40MSAyMDA3LjI4IDE1OTIuNTZDMjAxMi42IDE1ODkuNjUgMjAyNC40NyAxNTgxLjcxIDIwMjMuNzUgMTU2OC45OUMyMDIzLjQ2IDE1NjMuMzggMjAxOC41NiAxNTU5LjA3IDIwMTIuOTQgMTU1OS4wN1YxNTU5LjA3WiIgc3Ryb2tlPSIjMjMxRjIwIiBzdHJva2Utd2lkdGg9IjYuNDI1MDgiIHN0cm9rZS1taXRlcmxpbWl0PSIxMCIgc3Ryb2tlLWxpbmVjYXA9InJvdW5kIiBzdHJva2UtbGluZWpvaW49InJvdW5kIi8+CjxwYXRoIGQ9Ik0xOTcwLjg3IDE1NTkuMDdMMTk1NC40NCAxNTc2LjQzSDE4ODAuOThMMTg2MC44OCAxNTU5LjA3SDE4MzkuMzhDMTgzNi4zNCAxNTU5LjA3IDE4MzMuNDIgMTU2MC4zMyAxODMxLjM1IDE1NjIuNTdDMTgyNi4wNyAxNTY4LjMyIDE4MTkuMDYgMTU4MC4yNyAxODM2Ljc2IDE1OTIuMTRDMTgzOC40NSAxNTkzLjI4IDE4NDAuNTIgMTU5My43OSAxODQyLjU1IDE1OTMuNzlIMTk5MC43N0MxOTgzLjY3IDE1NzYuODEgMTk3MC44NyAxNTU5LjA3IDE5NzAuODcgMTU1OS4wN1YxNTU5LjA3WiIgc3Ryb2tlPSIjMjMxRjIwIiBzdHJva2Utd2lkdGg9IjYuNDI1MDgiIHN0cm9rZS1taXRlcmxpbWl0PSIxMCIgc3Ryb2tlLWxpbmVjYXA9InJvdW5kIiBzdHJva2UtbGluZWpvaW49InJvdW5kIi8+CjxwYXRoIGQ9Ik0yMDEyLjk0IDE1NTkuMDdIMTk3MC44M0MxOTcwLjgzIDE1NTkuMDcgMTk4My42NyAxNTc2LjgxIDE5OTAuNzcgMTU5My44M0gyMDAyLjE3QzIwMDMuOTQgMTU5My44MyAyMDA1LjcyIDE1OTMuNDEgMjAwNy4yOCAxNTkyLjU2QzIwMTIuNiAxNTg5LjY1IDIwMjQuNDcgMTU4MS43MSAyMDIzLjc1IDE1NjguOTlDMjAyMy40NiAxNTYzLjM4IDIwMTguNTYgMTU1OS4wNyAyMDEyLjk0IDE1NTkuMDdWMTU1OS4wN1oiIHN0cm9rZT0iIzIzMUYyMCIgc3Ryb2tlLXdpZHRoPSI2LjQyNTA4IiBzdHJva2UtbWl0ZXJsaW1pdD0iMTAiIHN0cm9rZS1saW5lY2FwPSJyb3VuZCIgc3Ryb2tlLWxpbmVqb2luPSJyb3VuZCIvPgo8cGF0aCBkPSJNMTg2MC44OCAxNTU5LjA3TDE4ODAuOTggMTU3Ni40N0gxOTU0LjQ0TDE5NzAuODcgMTU1OS4wN0gxODYwLjg4WiIgZmlsbD0iIzIzMUYyMCIvPgo8cmVjdCB4PSIyNDU5IiB5PSI3MTUiIHdpZHRoPSIyNTMiIGhlaWdodD0iMzYxIiByeD0iODAiIHRyYW5zZm9ybT0icm90YXRlKC05MCAyNDU5IDcxNSkiIHN0cm9rZT0iYmxhY2siIHN0cm9rZS13aWR0aD0iNiIgc3Ryb2tlLW1pdGVybGltaXQ9IjAiIHN0cm9rZS1saW5lY2FwPSJyb3VuZCIvPgo8cmVjdCB4PSIyNDYwIiB5PSIxMjg1IiB3aWR0aD0iMjUzIiBoZWlnaHQ9IjM2MSIgcng9IjgwIiB0cmFuc2Zvcm09InJvdGF0ZSgtOTAgMjQ2MCAxMjg1KSIgc3Ryb2tlPSJibGFjayIgc3Ryb2tlLXdpZHRoPSI2IiBzdHJva2UtbWl0ZXJsaW1pdD0iMCIgc3Ryb2tlLWxpbmVjYXA9InJvdW5kIi8+CjxyZWN0IHg9IjI0NTkiIHk9IjEwMDAiIHdpZHRoPSIyNTMiIGhlaWdodD0iMzYxIiByeD0iODAiIHRyYW5zZm9ybT0icm90YXRlKC05MCAyNDU5IDEwMDApIiBzdHJva2U9ImJsYWNrIiBzdHJva2Utd2lkdGg9IjYiIHN0cm9rZS1taXRlcmxpbWl0PSIwIiBzdHJva2UtbGluZWNhcD0icm91bmQiLz4KPHJlY3QgeD0iMTY0OSIgeT0iODU3IiB3aWR0aD0iMzk1IiBoZWlnaHQ9IjM4OCIgcng9IjgwIiB0cmFuc2Zvcm09InJvdGF0ZSgtOTAgMTY0OSA4NTcpIiBzdHJva2U9ImJsYWNrIiBzdHJva2Utd2lkdGg9IjYiIHN0cm9rZS1taXRlcmxpbWl0PSIwIiBzdHJva2UtbGluZWNhcD0icm91bmQiLz4KPHJlY3QgeD0iMTY0OSIgeT0iMTI4NCIgd2lkdGg9IjM5NSIgaGVpZ2h0PSIzODgiIHJ4PSI4MCIgdHJhbnNmb3JtPSJyb3RhdGUoLTkwIDE2NDkgMTI4NCkiIHN0cm9rZT0iYmxhY2siIHN0cm9rZS13aWR0aD0iNiIgc3Ryb2tlLW1pdGVybGltaXQ9IjAiIHN0cm9rZS1saW5lY2FwPSJyb3VuZCIvPgo8L2c+CjxkZWZzPgo8Y2xpcFBhdGggaWQ9ImNsaXAwXzFfNjgwIj4KPHJlY3Qgd2lkdGg9IjM4MDgiIGhlaWdodD0iMTc0Ni43NCIgZmlsbD0id2hpdGUiLz4KPC9jbGlwUGF0aD4KPC9kZWZzPgo8L3N2Zz4=;rotation=90;movable=0;resizable=0;rotatable=0;deletable=0;editable=0;connectable=0;" parent="1" vertex="1">
                    <mxGeometry x="-1517.28" y="-1840" width="3894.57" height="1790" as="geometry"/>
                </mxCell>
                <mxCell id="Ya8vrf_3RM9fZCfHisWS-58" value="" style="rounded=1;whiteSpace=wrap;html=1;strokeWidth=4;fillColor=#FFFFFF;strokeColor=#cccccc;shadow=1;" parent="1" vertex="1">
                    <mxGeometry x="110.01" y="300" width="640" height="270" as="geometry"/>
                </mxCell>
                <mxCell id="Ya8vrf_3RM9fZCfHisWS-29" style="edgeStyle=orthogonalEdgeStyle;rounded=1;orthogonalLoop=1;jettySize=auto;html=1;exitX=0.5;exitY=1;exitDx=0;exitDy=0;strokeColor=#9E9E9E;strokeWidth=4;endArrow=none;endFill=0;jumpStyle=arc;" parent="1" source="Pvl9Io29hKtsctuFg94f-44" target="Ya8vrf_3RM9fZCfHisWS-26" edge="1">
                    <mxGeometry relative="1" as="geometry">
                        <mxPoint x="410.01" y="130" as="targetPoint"/>
                        <Array as="points">
                            <mxPoint x="365" y="640"/>
                            <mxPoint x="222" y="640"/>
                        </Array>
                    </mxGeometry>
                </mxCell>
                <mxCell id="Ya8vrf_3RM9fZCfHisWS-52" value="12 gauge" style="edgeLabel;align=center;verticalAlign=middle;resizable=0;points=[];fontColor=#000000;labelBorderColor=none;labelBackgroundColor=#FFFFFF;spacingTop=0;spacingBottom=0;spacing=0;horizontal=1;rotation=-90;html=1;fontSize=8;" parent="Ya8vrf_3RM9fZCfHisWS-29" vertex="1" connectable="0">
                    <mxGeometry x="0.0316" y="-1" relative="1" as="geometry">
                        <mxPoint y="-106" as="offset"/>
                    </mxGeometry>
                </mxCell>
                <mxCell id="Ya8vrf_3RM9fZCfHisWS-1" value="Mono Amplifier&amp;nbsp;&lt;font style=&quot;font-size: 8px&quot;&gt;800w RMS @ 2-ohm x 1&lt;br&gt;&lt;/font&gt;" style="rounded=0;whiteSpace=wrap;html=1;strokeWidth=2;strokeColor=none;fillColor=none;fontColor=#000000;shadow=0;" parent="1" vertex="1">
                    <mxGeometry x="297.5" y="298" width="187.5" height="30" as="geometry"/>
                </mxCell>
                <mxCell id="Ya8vrf_3RM9fZCfHisWS-6" style="edgeStyle=orthogonalEdgeStyle;orthogonalLoop=1;jettySize=auto;html=1;entryX=0.5;entryY=1;entryDx=0;entryDy=0;exitX=0.867;exitY=0.983;exitDx=0;exitDy=0;endArrow=none;endFill=0;strokeWidth=8;strokeColor=#FF0000;exitPerimeter=0;rounded=1;jumpStyle=arc;" parent="1" source="Ya8vrf_3RM9fZCfHisWS-3" target="Pvl9Io29hKtsctuFg94f-39" edge="1">
                    <mxGeometry relative="1" as="geometry">
                        <Array as="points">
                            <mxPoint x="244" y="400"/>
                            <mxPoint x="344" y="400"/>
                        </Array>
                    </mxGeometry>
                </mxCell>
                <mxCell id="Ya8vrf_3RM9fZCfHisWS-68" value="4 gauge" style="edgeLabel;html=1;align=center;verticalAlign=middle;resizable=0;points=[];fontSize=8;fontColor=#000000;labelBackgroundColor=#FFFFFF;" parent="Ya8vrf_3RM9fZCfHisWS-6" vertex="1" connectable="0">
                    <mxGeometry x="0.3726" relative="1" as="geometry">
                        <mxPoint x="-64" as="offset"/>
                    </mxGeometry>
                </mxCell>
                <mxCell id="Ya8vrf_3RM9fZCfHisWS-8" style="edgeStyle=orthogonalEdgeStyle;orthogonalLoop=1;jettySize=auto;html=1;exitX=0.75;exitY=1;exitDx=0;exitDy=0;entryX=0.5;entryY=1;entryDx=0;entryDy=0;strokeColor=#FF0000;strokeWidth=8;endArrow=none;endFill=0;rounded=1;jumpStyle=arc;" parent="1" source="Ya8vrf_3RM9fZCfHisWS-3" target="8Ycj_TcYPaLNM2qeTH3q-29" edge="1">
                    <mxGeometry relative="1" as="geometry">
                        <Array as="points">
                            <mxPoint x="230" y="410"/>
                            <mxPoint x="709" y="410"/>
                        </Array>
                    </mxGeometry>
                </mxCell>
                <mxCell id="Ya8vrf_3RM9fZCfHisWS-66" value="4 gauge" style="edgeLabel;html=1;align=center;verticalAlign=middle;resizable=0;points=[];fontSize=8;fontColor=#000000;labelBackgroundColor=#FFFFFF;" parent="Ya8vrf_3RM9fZCfHisWS-8" vertex="1" connectable="0">
                    <mxGeometry x="0.0906" y="1" relative="1" as="geometry">
                        <mxPoint x="-21" as="offset"/>
                    </mxGeometry>
                </mxCell>
                <mxCell id="Ya8vrf_3RM9fZCfHisWS-9" style="edgeStyle=orthogonalEdgeStyle;orthogonalLoop=1;jettySize=auto;html=1;exitX=0.5;exitY=1;exitDx=0;exitDy=0;strokeColor=#000000;strokeWidth=8;endArrow=none;endFill=0;rounded=1;jumpStyle=arc;entryX=0.5;entryY=1;entryDx=0;entryDy=0;" parent="1" source="Ya8vrf_3RM9fZCfHisWS-3" target="8Ycj_TcYPaLNM2qeTH3q-28" edge="1">
                    <mxGeometry relative="1" as="geometry">
                        <Array as="points">
                            <mxPoint x="200" y="430"/>
                            <mxPoint x="696" y="430"/>
                            <mxPoint x="696" y="348"/>
                        </Array>
                    </mxGeometry>
                </mxCell>
                <mxCell id="Ya8vrf_3RM9fZCfHisWS-65" value="4 gauge" style="edgeLabel;html=1;align=center;verticalAlign=middle;resizable=0;points=[];fontSize=8;fontColor=#000000;labelBackgroundColor=#FFFFFF;" parent="Ya8vrf_3RM9fZCfHisWS-9" vertex="1" connectable="0">
                    <mxGeometry x="0.1249" y="-2" relative="1" as="geometry">
                        <mxPoint x="24" y="-2" as="offset"/>
                    </mxGeometry>
                </mxCell>
                <mxCell id="Ya8vrf_3RM9fZCfHisWS-11" style="edgeStyle=orthogonalEdgeStyle;orthogonalLoop=1;jettySize=auto;html=1;exitX=0.25;exitY=1;exitDx=0;exitDy=0;strokeColor=#FF0000;strokeWidth=6;endArrow=none;endFill=0;rounded=1;jumpStyle=arc;entryX=1;entryY=0.25;entryDx=0;entryDy=0;" parent="1" source="Ya8vrf_3RM9fZCfHisWS-3" target="Ya8vrf_3RM9fZCfHisWS-4" edge="1">
                    <mxGeometry relative="1" as="geometry"/>
                </mxCell>
                <mxCell id="Ya8vrf_3RM9fZCfHisWS-69" value="8 gauge" style="edgeLabel;html=1;align=center;verticalAlign=middle;resizable=0;points=[];fontSize=8;fontColor=#000000;rotation=-90;labelBackgroundColor=#FFFFFF;" parent="Ya8vrf_3RM9fZCfHisWS-11" vertex="1" connectable="0">
                    <mxGeometry x="-0.5017" y="2" relative="1" as="geometry">
                        <mxPoint x="-3" y="-2" as="offset"/>
                    </mxGeometry>
                </mxCell>
                <mxCell id="Ya8vrf_3RM9fZCfHisWS-41" style="edgeStyle=orthogonalEdgeStyle;rounded=1;jumpStyle=arc;orthogonalLoop=1;jettySize=auto;html=1;strokeColor=#FF0000;strokeWidth=8;endArrow=oval;endFill=1;exitX=0.136;exitY=1;exitDx=0;exitDy=0;exitPerimeter=0;" parent="1" source="Ya8vrf_3RM9fZCfHisWS-3" edge="1">
                    <mxGeometry relative="1" as="geometry">
                        <mxPoint x="160.01" y="380" as="sourcePoint"/>
                        <mxPoint x="156.01" y="400" as="targetPoint"/>
                    </mxGeometry>
                </mxCell>
                <mxCell id="Ya8vrf_3RM9fZCfHisWS-43" style="edgeStyle=orthogonalEdgeStyle;rounded=1;jumpStyle=arc;orthogonalLoop=1;jettySize=auto;html=1;exitX=0.25;exitY=0;exitDx=0;exitDy=0;strokeColor=#FF0000;strokeWidth=10;endArrow=none;endFill=0;" parent="1" source="Ya8vrf_3RM9fZCfHisWS-3" target="Ya8vrf_3RM9fZCfHisWS-42" edge="1">
                    <mxGeometry relative="1" as="geometry">
                        <Array as="points">
                            <mxPoint x="170" y="280"/>
                            <mxPoint x="70" y="280"/>
                        </Array>
                    </mxGeometry>
                </mxCell>
                <mxCell id="Ya8vrf_3RM9fZCfHisWS-71" value="0 gauge" style="edgeLabel;html=1;align=center;verticalAlign=middle;resizable=0;points=[];fontSize=8;fontColor=#000000;spacing=0;" parent="Ya8vrf_3RM9fZCfHisWS-43" vertex="1" connectable="0">
                    <mxGeometry x="0.04" relative="1" as="geometry">
                        <mxPoint y="-1" as="offset"/>
                    </mxGeometry>
                </mxCell>
                <mxCell id="Ya8vrf_3RM9fZCfHisWS-45" style="edgeStyle=orthogonalEdgeStyle;rounded=1;jumpStyle=arc;orthogonalLoop=1;jettySize=auto;html=1;exitX=0.75;exitY=0;exitDx=0;exitDy=0;strokeColor=#000000;strokeWidth=10;endArrow=block;endFill=1;" parent="1" source="Ya8vrf_3RM9fZCfHisWS-3" edge="1">
                    <mxGeometry relative="1" as="geometry">
                        <mxPoint x="230" y="200" as="targetPoint"/>
                        <Array as="points">
                            <mxPoint x="230.01" y="240"/>
                        </Array>
                    </mxGeometry>
                </mxCell>
                <mxCell id="Ya8vrf_3RM9fZCfHisWS-72" value="0 gauge" style="edgeLabel;html=1;align=center;verticalAlign=middle;resizable=0;points=[];fontSize=8;fontColor=#000000;spacing=3;spacingBottom=0;rotation=-90;" parent="Ya8vrf_3RM9fZCfHisWS-45" vertex="1" connectable="0">
                    <mxGeometry x="-0.0364" y="-1" relative="1" as="geometry">
                        <mxPoint x="-2" y="-1" as="offset"/>
                    </mxGeometry>
                </mxCell>
                <mxCell id="Ya8vrf_3RM9fZCfHisWS-47" style="edgeStyle=orthogonalEdgeStyle;rounded=1;jumpStyle=arc;orthogonalLoop=1;jettySize=auto;html=1;exitX=0.5;exitY=0;exitDx=0;exitDy=0;strokeColor=#000000;strokeWidth=6;endArrow=oval;endFill=1;" parent="1" source="Ya8vrf_3RM9fZCfHisWS-3" edge="1">
                    <mxGeometry relative="1" as="geometry">
                        <mxPoint x="200.01" y="300" as="targetPoint"/>
                    </mxGeometry>
                </mxCell>
                <mxCell id="Ya8vrf_3RM9fZCfHisWS-3" value="Dist. &lt;br&gt;Block" style="rounded=1;whiteSpace=wrap;html=1;strokeWidth=2;strokeColor=none;fillColor=#808080;fontColor=#FFFFFF;shadow=1;" parent="1" vertex="1">
                    <mxGeometry x="140.01" y="320" width="120" height="60" as="geometry"/>
                </mxCell>
                <mxCell id="Ya8vrf_3RM9fZCfHisWS-12" style="edgeStyle=orthogonalEdgeStyle;orthogonalLoop=1;jettySize=auto;html=1;exitX=0;exitY=0.5;exitDx=0;exitDy=0;strokeColor=#CCCCCC;strokeWidth=3;endArrow=none;endFill=0;rounded=1;jumpStyle=arc;entryX=0;entryY=0.25;entryDx=0;entryDy=0;" parent="1" source="Ya8vrf_3RM9fZCfHisWS-4" target="Ya8vrf_3RM9fZCfHisWS-5" edge="1">
                    <mxGeometry relative="1" as="geometry">
                        <Array as="points">
                            <mxPoint x="191.26999999999998" y="550"/>
                            <mxPoint x="295.27" y="550"/>
                        </Array>
                    </mxGeometry>
                </mxCell>
                <mxCell id="Ya8vrf_3RM9fZCfHisWS-74" value="12 gauge" style="edgeLabel;html=1;align=center;verticalAlign=middle;resizable=0;points=[];fontSize=8;fontColor=#000000;labelBackgroundColor=#FFFFFF;" parent="Ya8vrf_3RM9fZCfHisWS-12" vertex="1" connectable="0">
                    <mxGeometry x="0.2134" relative="1" as="geometry">
                        <mxPoint x="7" as="offset"/>
                    </mxGeometry>
                </mxCell>
                <mxCell id="Ya8vrf_3RM9fZCfHisWS-13" style="edgeStyle=orthogonalEdgeStyle;orthogonalLoop=1;jettySize=auto;html=1;strokeColor=#000000;strokeWidth=6;endArrow=none;endFill=0;rounded=1;jumpStyle=arc;exitX=0.558;exitY=-0.003;exitDx=0;exitDy=0;exitPerimeter=0;" parent="1" source="Ya8vrf_3RM9fZCfHisWS-4" target="Ya8vrf_3RM9fZCfHisWS-3" edge="1">
                    <mxGeometry relative="1" as="geometry">
                        <Array as="points">
                            <mxPoint x="120" y="495"/>
                            <mxPoint x="120" y="440"/>
                            <mxPoint x="191" y="440"/>
                        </Array>
                    </mxGeometry>
                </mxCell>
                <mxCell id="Ya8vrf_3RM9fZCfHisWS-75" value="8 gauge" style="edgeLabel;html=1;align=center;verticalAlign=middle;resizable=0;points=[];fontSize=8;fontColor=#000000;rotation=-90;labelBackgroundColor=#FFFFFF;" parent="Ya8vrf_3RM9fZCfHisWS-13" vertex="1" connectable="0">
                    <mxGeometry x="-0.6279" y="1" relative="1" as="geometry">
                        <mxPoint x="-1" y="-2" as="offset"/>
                    </mxGeometry>
                </mxCell>
                <mxCell id="Ya8vrf_3RM9fZCfHisWS-4" value="Fuse Panel&lt;br&gt;&lt;br&gt;&lt;br&gt;&lt;br&gt;" style="rounded=1;whiteSpace=wrap;html=1;strokeWidth=2;strokeColor=none;fillColor=#808080;fontColor=#FFFFFF;shadow=1;rotation=-90;" parent="1" vertex="1">
                    <mxGeometry x="151.26999999999998" y="440" width="80" height="120" as="geometry"/>
                </mxCell>
                <mxCell id="Ya8vrf_3RM9fZCfHisWS-14" style="edgeStyle=orthogonalEdgeStyle;orthogonalLoop=1;jettySize=auto;html=1;exitX=0;exitY=0.75;exitDx=0;exitDy=0;strokeColor=#000000;strokeWidth=4;endArrow=none;endFill=0;rounded=1;jumpStyle=arc;" parent="1" source="Ya8vrf_3RM9fZCfHisWS-5" target="Ya8vrf_3RM9fZCfHisWS-4" edge="1">
                    <mxGeometry relative="1" as="geometry">
                        <mxPoint x="160.26999999999998" y="681" as="sourcePoint"/>
                        <mxPoint x="150.26999999999998" y="505" as="targetPoint"/>
                        <Array as="points">
                            <mxPoint x="325.27" y="560"/>
                            <mxPoint x="120.27000000000001" y="560"/>
                            <mxPoint x="120.27000000000001" y="505"/>
                        </Array>
                    </mxGeometry>
                </mxCell>
                <mxCell id="Ya8vrf_3RM9fZCfHisWS-73" value="12 gauge" style="edgeLabel;html=1;align=center;verticalAlign=middle;resizable=0;points=[];fontSize=8;fontColor=#000000;labelBackgroundColor=#FFFFFF;" parent="Ya8vrf_3RM9fZCfHisWS-14" vertex="1" connectable="0">
                    <mxGeometry x="-0.2143" y="-3" relative="1" as="geometry">
                        <mxPoint x="-71" y="2" as="offset"/>
                    </mxGeometry>
                </mxCell>
                <mxCell id="Ya8vrf_3RM9fZCfHisWS-17" value="" style="edgeStyle=orthogonalEdgeStyle;orthogonalLoop=1;jettySize=auto;html=1;entryX=0.5;entryY=1;entryDx=0;entryDy=0;strokeColor=#FF0000;strokeWidth=4;endArrow=none;endFill=0;exitX=0.5;exitY=0;exitDx=0;exitDy=0;rounded=1;jumpStyle=arc;" parent="1" source="Ya8vrf_3RM9fZCfHisWS-5" target="Ya8vrf_3RM9fZCfHisWS-4" edge="1">
                    <mxGeometry relative="1" as="geometry"/>
                </mxCell>
                <mxCell id="Ya8vrf_3RM9fZCfHisWS-79" value="12 gauge" style="edgeLabel;html=1;align=center;verticalAlign=middle;resizable=0;points=[];fontSize=8;fontColor=#000000;rotation=-90;labelBackgroundColor=#FFFFFF;" parent="Ya8vrf_3RM9fZCfHisWS-17" vertex="1" connectable="0">
                    <mxGeometry x="-0.2281" y="-1" relative="1" as="geometry">
                        <mxPoint x="-5" y="1" as="offset"/>
                    </mxGeometry>
                </mxCell>
                <mxCell id="Ya8vrf_3RM9fZCfHisWS-19" style="edgeStyle=orthogonalEdgeStyle;rounded=1;orthogonalLoop=1;jettySize=auto;html=1;strokeColor=#007FFF;strokeWidth=2;endArrow=diamond;endFill=1;jumpStyle=arc;exitX=0.5;exitY=1;exitDx=0;exitDy=0;" parent="1" source="Ya8vrf_3RM9fZCfHisWS-5" target="Ya8vrf_3RM9fZCfHisWS-22" edge="1">
                    <mxGeometry relative="1" as="geometry">
                        <mxPoint x="410.01" y="650" as="sourcePoint"/>
                        <mxPoint x="830.01" y="700" as="targetPoint"/>
                        <Array as="points">
                            <mxPoint x="350" y="500"/>
                            <mxPoint x="350" y="610"/>
                        </Array>
                    </mxGeometry>
                </mxCell>
                <mxCell id="Ya8vrf_3RM9fZCfHisWS-60" value="18 gauge" style="edgeLabel;html=1;align=center;verticalAlign=middle;resizable=0;points=[];fontColor=#000000;fontSize=8;labelBackgroundColor=#FFFFFF;rotation=-90;" parent="Ya8vrf_3RM9fZCfHisWS-19" vertex="1" connectable="0">
                    <mxGeometry x="-0.5305" y="-1" relative="1" as="geometry">
                        <mxPoint y="-37" as="offset"/>
                    </mxGeometry>
                </mxCell>
                <mxCell id="Ya8vrf_3RM9fZCfHisWS-5" value="Relay" style="rounded=1;whiteSpace=wrap;html=1;strokeWidth=2;strokeColor=none;fillColor=#000000;fontColor=#FFFFFF;shadow=1;rotation=-90;" parent="1" vertex="1">
                    <mxGeometry x="280.27" y="470" width="60" height="60" as="geometry"/>
                </mxCell>
                <mxCell id="Ya8vrf_3RM9fZCfHisWS-22" value="Remote turn-on&lt;br&gt;lead" style="text;html=1;align=center;verticalAlign=middle;resizable=0;points=[];autosize=1;strokeColor=none;fillColor=none;" parent="1" vertex="1">
                    <mxGeometry x="-15.000000000000009" y="590" width="110" height="40" as="geometry"/>
                </mxCell>
                <mxCell id="Ya8vrf_3RM9fZCfHisWS-26" value="Subwoofer&lt;br&gt;&lt;font style=&quot;font-size: 8px&quot;&gt;800w RMS @ 2-ohm&lt;/font&gt;" style="ellipse;whiteSpace=wrap;html=1;aspect=fixed;strokeWidth=7;fillColor=#60a917;fontColor=#ffffff;strokeColor=#97D077;" parent="1" vertex="1">
                    <mxGeometry x="157.27" y="670" width="130" height="130" as="geometry"/>
                </mxCell>
                <mxCell id="Ya8vrf_3RM9fZCfHisWS-7" style="edgeStyle=orthogonalEdgeStyle;orthogonalLoop=1;jettySize=auto;html=1;strokeWidth=8;endArrow=none;endFill=0;rounded=1;jumpStyle=arc;entryX=0.5;entryY=1;entryDx=0;entryDy=0;" parent="1" target="Pvl9Io29hKtsctuFg94f-37" edge="1">
                    <mxGeometry relative="1" as="geometry">
                        <mxPoint x="210.01" y="380" as="sourcePoint"/>
                        <mxPoint x="423.01" y="400" as="targetPoint"/>
                        <Array as="points">
                            <mxPoint x="210" y="420"/>
                            <mxPoint x="319" y="420"/>
                            <mxPoint x="319" y="344"/>
                        </Array>
                    </mxGeometry>
                </mxCell>
                <mxCell id="Ya8vrf_3RM9fZCfHisWS-67" value="4 gauge" style="edgeLabel;html=1;align=center;verticalAlign=middle;resizable=0;points=[];fontSize=8;fontColor=#000000;labelBackgroundColor=#FFFFFF;" parent="Ya8vrf_3RM9fZCfHisWS-7" vertex="1" connectable="0">
                    <mxGeometry x="0.0627" y="-1" relative="1" as="geometry">
                        <mxPoint x="-46" y="-1" as="offset"/>
                    </mxGeometry>
                </mxCell>
                <mxCell id="Ya8vrf_3RM9fZCfHisWS-31" value="Remote Knob" style="rounded=0;whiteSpace=wrap;html=1;strokeWidth=2;strokeColor=none;fillColor=none;" parent="1" vertex="1">
                    <mxGeometry x="730.01" y="215" width="90" height="30" as="geometry"/>
                </mxCell>
                <mxCell id="9" style="edgeStyle=orthogonalEdgeStyle;html=1;exitX=0;exitY=0.5;exitDx=0;exitDy=0;entryX=0.5;entryY=1;entryDx=0;entryDy=0;fontSize=6;endArrow=none;endFill=0;strokeWidth=10;strokeColor=#FF0000;" parent="1" source="Ya8vrf_3RM9fZCfHisWS-42" target="8" edge="1">
                    <mxGeometry relative="1" as="geometry"/>
                </mxCell>
                <mxCell id="Ya8vrf_3RM9fZCfHisWS-42" value="Fuse&lt;br&gt;&lt;br&gt;" style="rounded=1;whiteSpace=wrap;html=1;strokeWidth=2;fillColor=#808080;strokeColor=none;fontColor=#FFFFFF;shadow=1;rotation=90;" parent="1" vertex="1">
                    <mxGeometry x="40.010000000000005" y="215" width="60" height="30" as="geometry"/>
                </mxCell>
                <mxCell id="Ya8vrf_3RM9fZCfHisWS-50" value="&lt;font color=&quot;#000000&quot;&gt;Speaker Taps/Head Unit&lt;/font&gt;" style="text;html=1;align=center;verticalAlign=middle;resizable=0;points=[];autosize=1;strokeColor=none;fillColor=none;fontColor=#FFFFFF;rounded=1;strokeWidth=2;" parent="1" vertex="1">
                    <mxGeometry x="590.01" y="846" width="150" height="20" as="geometry"/>
                </mxCell>
                <mxCell id="Ya8vrf_3RM9fZCfHisWS-20" style="edgeStyle=orthogonalEdgeStyle;orthogonalLoop=1;jettySize=auto;html=1;strokeColor=#007FFF;strokeWidth=2;endArrow=none;endFill=0;rounded=1;jumpStyle=arc;jumpSize=6;exitX=1;exitY=0.75;exitDx=0;exitDy=0;entryX=0.5;entryY=1;entryDx=0;entryDy=0;" parent="1" source="Ya8vrf_3RM9fZCfHisWS-4" target="Pvl9Io29hKtsctuFg94f-38" edge="1">
                    <mxGeometry relative="1" as="geometry">
                        <mxPoint x="380.01" y="550" as="sourcePoint"/>
                        <mxPoint x="420.01" y="400" as="targetPoint"/>
                        <Array as="points">
                            <mxPoint x="221" y="440"/>
                            <mxPoint x="331" y="440"/>
                            <mxPoint x="331" y="344"/>
                        </Array>
                    </mxGeometry>
                </mxCell>
                <mxCell id="Ya8vrf_3RM9fZCfHisWS-61" value="18 gauge" style="edgeLabel;html=1;align=center;verticalAlign=middle;resizable=0;points=[];fontSize=8;fontColor=#000000;labelBackgroundColor=#FFFFFF;" parent="Ya8vrf_3RM9fZCfHisWS-20" vertex="1" connectable="0">
                    <mxGeometry x="-0.3066" y="1" relative="1" as="geometry">
                        <mxPoint x="4" as="offset"/>
                    </mxGeometry>
                </mxCell>
                <mxCell id="Ya8vrf_3RM9fZCfHisWS-21" style="edgeStyle=orthogonalEdgeStyle;orthogonalLoop=1;jettySize=auto;html=1;entryX=0.5;entryY=1;entryDx=0;entryDy=0;strokeColor=#007FFF;strokeWidth=2;endArrow=none;endFill=0;rounded=1;jumpStyle=arc;exitX=1;exitY=0.869;exitDx=0;exitDy=0;exitPerimeter=0;" parent="1" source="Ya8vrf_3RM9fZCfHisWS-4" target="8Ycj_TcYPaLNM2qeTH3q-27" edge="1">
                    <mxGeometry relative="1" as="geometry">
                        <mxPoint x="380.01" y="560" as="sourcePoint"/>
                        <Array as="points">
                            <mxPoint x="236" y="450"/>
                            <mxPoint x="684" y="450"/>
                            <mxPoint x="684" y="348"/>
                            <mxPoint x="684" y="348"/>
                        </Array>
                    </mxGeometry>
                </mxCell>
                <mxCell id="Ya8vrf_3RM9fZCfHisWS-62" value="18 gauge" style="edgeLabel;html=1;align=center;verticalAlign=middle;resizable=0;points=[];fontSize=8;fontColor=#000000;labelBackgroundColor=#FFFFFF;" parent="Ya8vrf_3RM9fZCfHisWS-21" vertex="1" connectable="0">
                    <mxGeometry x="-0.3486" y="-2" relative="1" as="geometry">
                        <mxPoint x="154" y="-2" as="offset"/>
                    </mxGeometry>
                </mxCell>
                <mxCell id="Ya8vrf_3RM9fZCfHisWS-49" style="edgeStyle=orthogonalEdgeStyle;rounded=1;jumpStyle=arc;orthogonalLoop=1;jettySize=auto;html=1;strokeColor=#9E9E9E;strokeWidth=2;fontColor=#FFFFFF;endArrow=diamond;endFill=1;jumpSize=6;exitX=0.5;exitY=1;exitDx=0;exitDy=0;" parent="1" source="Pvl9Io29hKtsctuFg94f-30" target="Ya8vrf_3RM9fZCfHisWS-50" edge="1">
                    <mxGeometry relative="1" as="geometry">
                        <mxPoint x="467.01" y="400" as="sourcePoint"/>
                        <mxPoint x="788.01" y="560" as="targetPoint"/>
                        <Array as="points">
                            <mxPoint x="454" y="490"/>
                            <mxPoint x="800" y="490"/>
                            <mxPoint x="800" y="855"/>
                        </Array>
                    </mxGeometry>
                </mxCell>
                <mxCell id="Ya8vrf_3RM9fZCfHisWS-51" style="edgeStyle=orthogonalEdgeStyle;rounded=1;jumpStyle=arc;orthogonalLoop=1;jettySize=auto;html=1;strokeColor=#9E9E9E;strokeWidth=2;fontColor=#000000;endArrow=diamond;endFill=1;shadow=0;jumpSize=6;startArrow=none;exitX=0.5;exitY=1;exitDx=0;exitDy=0;" parent="1" source="Pvl9Io29hKtsctuFg94f-28" target="Ya8vrf_3RM9fZCfHisWS-50" edge="1">
                    <mxGeometry relative="1" as="geometry">
                        <Array as="points">
                            <mxPoint x="454" y="490"/>
                            <mxPoint x="800" y="490"/>
                            <mxPoint x="800" y="855"/>
                        </Array>
                    </mxGeometry>
                </mxCell>
                <mxCell id="2" value="&lt;font style=&quot;font-size: 6px;&quot;&gt;200A fuse&lt;/font&gt;" style="rounded=0;whiteSpace=wrap;html=1;strokeColor=none;fillColor=#FFFFFF;rotation=90;fontSize=6;verticalAlign=bottom;" parent="1" vertex="1">
                    <mxGeometry x="227.34000000000003" y="354.58" width="34.12" height="10.75" as="geometry"/>
                </mxCell>
                <mxCell id="3" value="&lt;font style=&quot;font-size: 6px&quot;&gt;100A fuse&lt;/font&gt;" style="rounded=0;whiteSpace=wrap;html=1;strokeColor=none;fillColor=#FFFFFF;rotation=90;fontSize=6;verticalAlign=bottom;" parent="1" vertex="1">
                    <mxGeometry x="212.32999999999998" y="354.32" width="33.88" height="11.5" as="geometry"/>
                </mxCell>
                <mxCell id="4" value="&lt;font style=&quot;font-size: 6px&quot;&gt;50A fuse&lt;/font&gt;" style="rounded=0;whiteSpace=wrap;html=1;strokeColor=none;fillColor=#FFFFFF;rotation=90;fontSize=6;verticalAlign=bottom;" parent="1" vertex="1">
                    <mxGeometry x="155.01" y="355.88" width="30" height="11.5" as="geometry"/>
                </mxCell>
                <mxCell id="5" value="&lt;font style=&quot;font-size: 6px&quot;&gt;30A fuse&lt;/font&gt;" style="rounded=0;whiteSpace=wrap;html=1;strokeColor=none;fillColor=#FFFFFF;rotation=90;fontSize=6;verticalAlign=bottom;" parent="1" vertex="1">
                    <mxGeometry x="175.76999999999998" y="515" width="31" height="11.5" as="geometry"/>
                </mxCell>
                <mxCell id="6" value="&lt;font style=&quot;font-size: 6px&quot;&gt;3A fuse&lt;/font&gt;" style="rounded=0;whiteSpace=wrap;html=1;strokeColor=none;fillColor=#FFFFFF;rotation=90;fontSize=6;verticalAlign=bottom;" parent="1" vertex="1">
                    <mxGeometry x="206.76999999999998" y="473" width="31" height="11.5" as="geometry"/>
                </mxCell>
                <mxCell id="7" value="&lt;font style=&quot;font-size: 6px&quot;&gt;3A fuse&lt;/font&gt;" style="rounded=0;whiteSpace=wrap;html=1;strokeColor=none;fillColor=#FFFFFF;rotation=90;fontSize=6;verticalAlign=bottom;" parent="1" vertex="1">
                    <mxGeometry x="221.26999999999998" y="473" width="31" height="11.5" as="geometry"/>
                </mxCell>
                <mxCell id="8" value="Battery" style="rounded=1;whiteSpace=wrap;html=1;strokeWidth=2;fillColor=#000000;strokeColor=none;fontColor=#FFFFFF;shadow=1;" parent="1" vertex="1">
                    <mxGeometry x="10.000000000000005" y="90" width="60" height="60" as="geometry"/>
                </mxCell>
                <mxCell id="10" value="&lt;font style=&quot;font-size: 6px&quot;&gt;350A fuse&lt;/font&gt;" style="rounded=0;whiteSpace=wrap;html=1;strokeColor=none;fillColor=#FFFFFF;rotation=90;fontSize=6;verticalAlign=bottom;" parent="1" vertex="1">
                    <mxGeometry x="47.760000000000005" y="224.25" width="32.5" height="11.5" as="geometry"/>
                </mxCell>
                <mxCell id="11" style="edgeStyle=orthogonalEdgeStyle;rounded=1;jumpStyle=arc;orthogonalLoop=1;jettySize=auto;html=1;strokeColor=#000000;strokeWidth=10;endArrow=block;endFill=1;" parent="1" source="8" edge="1">
                    <mxGeometry relative="1" as="geometry">
                        <mxPoint x="240" y="120" as="targetPoint"/>
                        <mxPoint x="240.01" y="330" as="sourcePoint"/>
                    </mxGeometry>
                </mxCell>
                <mxCell id="12" value="0 gauge" style="edgeLabel;html=1;align=center;verticalAlign=middle;resizable=0;points=[];fontSize=8;fontColor=#000000;" parent="11" vertex="1" connectable="0">
                    <mxGeometry x="-0.0364" y="-1" relative="1" as="geometry">
                        <mxPoint x="-15" y="-1" as="offset"/>
                    </mxGeometry>
                </mxCell>
                <mxCell id="16" value="Speaker&lt;br&gt;&lt;font style=&quot;font-size: 8px&quot;&gt;80w RMS @&lt;br&gt;4-ohm&lt;/font&gt;" style="ellipse;whiteSpace=wrap;html=1;aspect=fixed;strokeWidth=5;fillColor=#60a917;fontColor=#ffffff;strokeColor=#97D077;" parent="1" vertex="1">
                    <mxGeometry x="440" y="700" width="90" height="90" as="geometry"/>
                </mxCell>
                <mxCell id="17" value="Speaker&lt;br&gt;&lt;font style=&quot;font-size: 8px&quot;&gt;80w RMS @&lt;br&gt;4-ohm&lt;/font&gt;" style="ellipse;whiteSpace=wrap;html=1;aspect=fixed;strokeWidth=5;fillColor=#60a917;fontColor=#ffffff;strokeColor=#97D077;" parent="1" vertex="1">
                    <mxGeometry x="680" y="700" width="90" height="90" as="geometry"/>
                </mxCell>
                <mxCell id="18" value="Speaker&lt;br&gt;&lt;font style=&quot;font-size: 8px&quot;&gt;80w RMS @&lt;br&gt;4-ohm&lt;/font&gt;" style="ellipse;whiteSpace=wrap;html=1;aspect=fixed;strokeWidth=5;fillColor=#60a917;fontColor=#ffffff;strokeColor=#97D077;" parent="1" vertex="1">
                    <mxGeometry x="560" y="700" width="90" height="90" as="geometry"/>
                </mxCell>
                <mxCell id="19" value="Speaker&lt;br&gt;&lt;font style=&quot;font-size: 8px&quot;&gt;80w RMS @&lt;br&gt;4-ohm&lt;/font&gt;" style="ellipse;whiteSpace=wrap;html=1;aspect=fixed;strokeWidth=5;fillColor=#60a917;fontColor=#ffffff;strokeColor=#97D077;" parent="1" vertex="1">
                    <mxGeometry x="320" y="700" width="90" height="90" as="geometry"/>
                </mxCell>
                <mxCell id="20" style="edgeStyle=orthogonalEdgeStyle;rounded=1;jumpStyle=arc;jumpSize=7;orthogonalLoop=1;jettySize=auto;html=1;shadow=0;strokeColor=#9E9E9E;strokeWidth=2;fontColor=#000000;endArrow=none;endFill=0;" parent="1" source="8Ycj_TcYPaLNM2qeTH3q-52" target="16" edge="1">
                    <mxGeometry relative="1" as="geometry">
                        <Array as="points">
                            <mxPoint x="532" y="380"/>
                            <mxPoint x="600" y="380"/>
                            <mxPoint x="600" y="670"/>
                            <mxPoint x="485" y="670"/>
                        </Array>
                        <mxPoint x="625.01" y="421.75" as="sourcePoint"/>
                        <mxPoint x="650.31" y="662.74" as="targetPoint"/>
                    </mxGeometry>
                </mxCell>
                <mxCell id="21" style="edgeStyle=orthogonalEdgeStyle;rounded=1;jumpStyle=arc;jumpSize=7;orthogonalLoop=1;jettySize=auto;html=1;shadow=0;strokeColor=#9E9E9E;strokeWidth=2;fontColor=#000000;endArrow=none;endFill=0;exitX=0.5;exitY=1;exitDx=0;exitDy=0;" parent="1" source="8Ycj_TcYPaLNM2qeTH3q-54" target="18" edge="1">
                    <mxGeometry relative="1" as="geometry">
                        <mxPoint x="636.71" y="421.75" as="sourcePoint"/>
                        <Array as="points">
                            <mxPoint x="553" y="380"/>
                            <mxPoint x="600" y="380"/>
                        </Array>
                        <mxPoint x="650.31" y="662.0799999999999" as="targetPoint"/>
                    </mxGeometry>
                </mxCell>
                <mxCell id="22" style="edgeStyle=orthogonalEdgeStyle;rounded=1;jumpStyle=arc;jumpSize=7;orthogonalLoop=1;jettySize=auto;html=1;shadow=0;strokeColor=#9E9E9E;strokeWidth=2;fontColor=#000000;endArrow=none;endFill=0;exitX=0.5;exitY=1;exitDx=0;exitDy=0;" parent="1" source="8Ycj_TcYPaLNM2qeTH3q-64" target="19" edge="1">
                    <mxGeometry relative="1" as="geometry">
                        <Array as="points">
                            <mxPoint x="574" y="380"/>
                            <mxPoint x="600" y="380"/>
                            <mxPoint x="600" y="670"/>
                            <mxPoint x="365" y="670"/>
                        </Array>
                        <mxPoint x="647.01" y="421.75" as="sourcePoint"/>
                        <mxPoint x="650.01" y="661.75" as="targetPoint"/>
                    </mxGeometry>
                </mxCell>
                <mxCell id="23" style="edgeStyle=orthogonalEdgeStyle;rounded=1;jumpStyle=arc;jumpSize=7;orthogonalLoop=1;jettySize=auto;html=1;shadow=0;strokeColor=#9E9E9E;strokeWidth=2;fontColor=#000000;endArrow=none;endFill=0;entryX=0.5;entryY=0;entryDx=0;entryDy=0;exitX=0.5;exitY=1;exitDx=0;exitDy=0;" parent="1" source="8Ycj_TcYPaLNM2qeTH3q-58" target="17" edge="1">
                    <mxGeometry relative="1" as="geometry">
                        <mxPoint x="660.01" y="421.75" as="sourcePoint"/>
                        <Array as="points">
                            <mxPoint x="596" y="380"/>
                            <mxPoint x="600" y="380"/>
                            <mxPoint x="600" y="670"/>
                            <mxPoint x="725" y="670"/>
                        </Array>
                        <mxPoint x="650.01" y="661.75" as="targetPoint"/>
                    </mxGeometry>
                </mxCell>
                <mxCell id="24" value="16 gauge" style="edgeLabel;html=1;align=center;verticalAlign=middle;resizable=0;points=[];fontSize=8;labelBackgroundColor=#FFFFFF;rotation=90;" parent="23" vertex="1" connectable="0">
                    <mxGeometry x="-0.1446" y="1" relative="1" as="geometry">
                        <mxPoint y="-7" as="offset"/>
                    </mxGeometry>
                </mxCell>
                <mxCell id="Ya8vrf_3RM9fZCfHisWS-2" value="Stereo Amplifier&amp;nbsp;&lt;span style=&quot;font-size: 8px&quot;&gt;75w RMS @ 4-ohm x 4&lt;/span&gt;" style="rounded=0;whiteSpace=wrap;html=1;strokeWidth=2;strokeColor=none;fillColor=none;fontColor=#000000;shadow=0;sketch=0;glass=0;" parent="1" vertex="1">
                    <mxGeometry x="530.51" y="295.13" width="180" height="35.75" as="geometry"/>
                </mxCell>
                <mxCell id="Ya8vrf_3RM9fZCfHisWS-54" style="edgeStyle=orthogonalEdgeStyle;rounded=1;jumpStyle=arc;jumpSize=7;orthogonalLoop=1;jettySize=auto;html=1;exitX=0.5;exitY=0;exitDx=0;exitDy=0;shadow=0;strokeColor=#9E9E9E;strokeWidth=2;fontColor=#000000;endArrow=diamond;endFill=1;" parent="1" source="8Ycj_TcYPaLNM2qeTH3q-50" target="Ya8vrf_3RM9fZCfHisWS-50" edge="1">
                    <mxGeometry relative="1" as="geometry">
                        <Array as="points">
                            <mxPoint x="640" y="480"/>
                            <mxPoint x="800" y="480"/>
                            <mxPoint x="800" y="855"/>
                        </Array>
                    </mxGeometry>
                </mxCell>
                <mxCell id="Ya8vrf_3RM9fZCfHisWS-57" style="edgeStyle=orthogonalEdgeStyle;rounded=1;jumpStyle=arc;jumpSize=7;orthogonalLoop=1;jettySize=auto;html=1;shadow=0;strokeColor=#9E9E9E;strokeWidth=2;fontColor=#000000;endArrow=diamond;endFill=1;exitX=0.5;exitY=0;exitDx=0;exitDy=0;" parent="1" source="8Ycj_TcYPaLNM2qeTH3q-40" target="Ya8vrf_3RM9fZCfHisWS-50" edge="1">
                    <mxGeometry relative="1" as="geometry">
                        <mxPoint x="720.01" y="420" as="sourcePoint"/>
                        <Array as="points">
                            <mxPoint x="662" y="480"/>
                            <mxPoint x="800" y="480"/>
                            <mxPoint x="800" y="855"/>
                        </Array>
                    </mxGeometry>
                </mxCell>
                <mxCell id="26" value="&lt;span style=&quot;font-size: 8px;&quot;&gt;16 gauge&lt;/span&gt;" style="edgeLabel;html=1;align=center;verticalAlign=middle;resizable=0;points=[];fontColor=#000000;rotation=90;fontSize=8;" parent="Ya8vrf_3RM9fZCfHisWS-57" vertex="1" connectable="0">
                    <mxGeometry x="-0.0791" relative="1" as="geometry">
                        <mxPoint y="65" as="offset"/>
                    </mxGeometry>
                </mxCell>
                <mxCell id="15" style="edgeStyle=orthogonalEdgeStyle;rounded=1;jumpStyle=arc;orthogonalLoop=1;jettySize=auto;html=1;exitX=0.5;exitY=1;exitDx=0;exitDy=0;strokeColor=#007FFF;strokeWidth=2;endArrow=diamond;endFill=1;" parent="1" source="8Ycj_TcYPaLNM2qeTH3q-34" target="Ya8vrf_3RM9fZCfHisWS-31" edge="1">
                    <mxGeometry relative="1" as="geometry">
                        <mxPoint x="428.40999999999985" y="430" as="sourcePoint"/>
                        <mxPoint x="770.01" y="220" as="targetPoint"/>
                        <Array as="points">
                            <mxPoint x="621" y="380"/>
                            <mxPoint x="775" y="380"/>
                        </Array>
                    </mxGeometry>
                </mxCell>
                <mxCell id="Ya8vrf_3RM9fZCfHisWS-32" style="edgeStyle=orthogonalEdgeStyle;rounded=1;jumpStyle=arc;orthogonalLoop=1;jettySize=auto;html=1;exitX=0.5;exitY=0;exitDx=0;exitDy=0;strokeColor=#007FFF;strokeWidth=2;endArrow=diamond;endFill=1;entryX=0;entryY=0.5;entryDx=0;entryDy=0;" parent="1" source="Pvl9Io29hKtsctuFg94f-53" target="Ya8vrf_3RM9fZCfHisWS-31" edge="1">
                    <mxGeometry relative="1" as="geometry">
                        <Array as="points">
                            <mxPoint x="425" y="380"/>
                            <mxPoint x="500" y="380"/>
                            <mxPoint x="500" y="230"/>
                        </Array>
                        <mxPoint x="650.01" y="165" as="targetPoint"/>
                    </mxGeometry>
                </mxCell>
                <mxCell id="8Ycj_TcYPaLNM2qeTH3q-24" value="" style="group" parent="1" vertex="1" connectable="0">
                    <mxGeometry x="520.01" y="321.88" width="201" height="40" as="geometry"/>
                </mxCell>
                <mxCell id="8Ycj_TcYPaLNM2qeTH3q-25" value="" style="shape=image;verticalLabelPosition=bottom;labelBackgroundColor=#ffffff;verticalAlign=top;aspect=fixed;imageAspect=0;image=data:image/svg+xml,PHN2ZyB4bWxuczppbmtzY2FwZT0iaHR0cDovL3d3dy5pbmtzY2FwZS5vcmcvbmFtZXNwYWNlcy9pbmtzY2FwZSIgeG1sbnM6c29kaXBvZGk9Imh0dHA6Ly9zb2RpcG9kaS5zb3VyY2Vmb3JnZS5uZXQvRFREL3NvZGlwb2RpLTAuZHRkIiB4bWxucz0iaHR0cDovL3d3dy53My5vcmcvMjAwMC9zdmciIHhtbG5zOnN2Zz0iaHR0cDovL3d3dy53My5vcmcvMjAwMC9zdmciIHdpZHRoPSIyMDEuMjkzODJtbSIgaGVpZ2h0PSIzOS44OTYxNzJtbSIgdmlld0JveD0iMCAwIDIwMS4yOTM4MyAzOS44OTYxNzEiIHZlcnNpb249IjEuMSIgaWQ9InN2ZzQ2NCIgaW5rc2NhcGU6dmVyc2lvbj0iMS4yLjEgKDljNmQ0MWUsIDIwMjItMDctMTQpIiBzb2RpcG9kaTpkb2NuYW1lPSJhbXAtc3RlcmVvLnN2ZyI+CiAgPHNvZGlwb2RpOm5hbWVkdmlldyBpZD0ibmFtZWR2aWV3NDY2IiBwYWdlY29sb3I9IiNmZmZmZmYiIGJvcmRlcmNvbG9yPSIjMDAwMDAwIiBib3JkZXJvcGFjaXR5PSIwLjI1IiBpbmtzY2FwZTpzaG93cGFnZXNoYWRvdz0iMiIgaW5rc2NhcGU6cGFnZW9wYWNpdHk9IjAuMCIgaW5rc2NhcGU6cGFnZWNoZWNrZXJib2FyZD0iMCIgaW5rc2NhcGU6ZGVza2NvbG9yPSIjZDFkMWQxIiBpbmtzY2FwZTpkb2N1bWVudC11bml0cz0ibW0iIHNob3dncmlkPSJmYWxzZSIgaW5rc2NhcGU6em9vbT0iMSIgaW5rc2NhcGU6Y3g9IjM3OC41IiBpbmtzY2FwZTpjeT0iNDEzLjUiIGlua3NjYXBlOndpbmRvdy13aWR0aD0iMTM5MCIgaW5rc2NhcGU6d2luZG93LWhlaWdodD0iMTIwNSIgaW5rc2NhcGU6d2luZG93LXg9IjIwMyIgaW5rc2NhcGU6d2luZG93LXk9IjY5MyIgaW5rc2NhcGU6d2luZG93LW1heGltaXplZD0iMCIgaW5rc2NhcGU6Y3VycmVudC1sYXllcj0ibGF5ZXIxIi8+CiAgPGRlZnMgaWQ9ImRlZnM0NjEiLz4KICA8ZyBpbmtzY2FwZTpsYWJlbD0iTGF5ZXIgMSIgaW5rc2NhcGU6Z3JvdXBtb2RlPSJsYXllciIgaWQ9ImxheWVyMSIgdHJhbnNmb3JtPSJ0cmFuc2xhdGUoLTMuNDYyNTE3MiwtMzkuMzM2Mjc2KSI+CiAgICA8cGF0aCBpZD0icGF0aDM4NCIgc3R5bGU9ImZpbGw6bm9uZTtmaWxsLW9wYWNpdHk6MTtzdHJva2U6I2NjY2NjYztzdHJva2Utd2lkdGg6MztzdHJva2UtbGluZWpvaW46cm91bmQ7c3Ryb2tlLWRhc2hhcnJheTpub25lO3N0cm9rZS1vcGFjaXR5OjE7cGFpbnQtb3JkZXI6bm9ybWFsIiBkPSJtIDIwLjYwODM1NCw0MC44MzYyNzYgLTYuMzUsMy4yNzMxODUgQyA2LjcyNjA3LDQ3Ljk5MjAzNyA1LjQzMTc2OTUsNDguNzc1MDIyIDUuMDk5MjIzMSw0OS42NDk2OTIgNC45NDUxNTQzLDUwLjA1NDkyMSA0LjkxOTI1Nyw1NC4zODE5MjUgNS4wMzIwNDM4LDYwLjg3MTIyOSBMIDUuMjE1NDk1MSw3MS40MzMzNzUgNS45NTI0MDEsNzIuNTM5MjUgYyAwLjQwNTMyMjYsMC42MDgwNyAxLjUwOTc1NjgsMS44Njg0NTEgMi40NTQ2MzA2LDIuODAxMzggbCAxLjcxODI0MTQsMS42OTY1MzcgNC45NzY5NTcsMC4xOTQzMDMgYyAyLjczNzM1MSwwLjEwNjkgMTguNjY1MzM1LDAuMjEzMjYyIDM1LjM5NTc3MiwwLjIzNjE2MiAxNi43MzA0NCwwLjAyMjg5IDMwLjQ3MTAxNCwwLjA5MzA2IDMwLjUzNDA1NCwwLjE1NjA2MyAwLjIwMTIyNiwwLjIwMTIxOSAxMDMuMDczNTA0LDAuMDk4OTcgMTEwLjIxMzQyNCwtMC4xMDk1NTQgbCA2Ljg2MDA1LC0wLjIwMDUwNSAyLjA3MjIzLC0yLjE4Mzg0NiBjIDEuMTM5OTYsLTEuMjAxMjE5IDIuMjM0NTQsLTIuNTAyOTg3IDIuNDMxODksLTIuODkyODQ3IDAuMjc0NjgsLTAuNTQyNTg5IDAuNDAxMzIsLTMuMjI0NTY5IDAuNTQwNTMsLTExLjQzNjUxMSAwLjE3OTI5LC0xMC41NzU4ODkgMC4xNzM4NywtMTAuNzM3ODUyIC0wLjM2NDMyLC0xMS40MjIwNDIgLTAuNjQ4MzEsLTAuODI0MjA5IC0xLjkzOTIyLC0xLjU1NDA2NiAtOS43ODgwMywtNS41MzE5NjIgbCAtNS45Mzk2OSwtMy4wMTAxNTIgaCAtODMuMjI0ODkgeiIvPgogIDwvZz4KPC9zdmc+;" parent="8Ycj_TcYPaLNM2qeTH3q-24" vertex="1">
                    <mxGeometry width="201" height="40" as="geometry"/>
                </mxCell>
                <mxCell id="8Ycj_TcYPaLNM2qeTH3q-26" value="" style="group" parent="8Ycj_TcYPaLNM2qeTH3q-24" vertex="1" connectable="0">
                    <mxGeometry x="155" y="11.690000000000055" width="42.620000000000005" height="16.61999999999989" as="geometry"/>
                </mxCell>
                <mxCell id="8Ycj_TcYPaLNM2qeTH3q-27" value="" style="ellipse;whiteSpace=wrap;html=1;aspect=fixed;labelBackgroundColor=#FFFFFF;labelBorderColor=#FF0000;fontSize=8;strokeWidth=2;strokeColor=none;fillColor=#CCCCCC;" parent="8Ycj_TcYPaLNM2qeTH3q-26" vertex="1">
                    <mxGeometry x="4.1200000000000045" y="7.869999999999891" width="8.75" height="8.75" as="geometry"/>
                </mxCell>
                <mxCell id="8Ycj_TcYPaLNM2qeTH3q-28" value="" style="ellipse;whiteSpace=wrap;html=1;aspect=fixed;labelBackgroundColor=#FFFFFF;labelBorderColor=#FF0000;fontSize=8;strokeWidth=2;strokeColor=none;fillColor=#CCCCCC;" parent="8Ycj_TcYPaLNM2qeTH3q-26" vertex="1">
                    <mxGeometry x="16.870000000000005" y="7.869999999999891" width="8.75" height="8.75" as="geometry"/>
                </mxCell>
                <mxCell id="8Ycj_TcYPaLNM2qeTH3q-29" value="" style="ellipse;whiteSpace=wrap;html=1;aspect=fixed;labelBackgroundColor=#FFFFFF;labelBorderColor=#FF0000;fontSize=8;strokeWidth=2;strokeColor=none;fillColor=#CCCCCC;" parent="8Ycj_TcYPaLNM2qeTH3q-26" vertex="1">
                    <mxGeometry x="29.620000000000005" y="7.869999999999891" width="8.75" height="8.75" as="geometry"/>
                </mxCell>
                <mxCell id="8Ycj_TcYPaLNM2qeTH3q-30" value="REM" style="text;html=1;strokeColor=none;fillColor=none;align=center;verticalAlign=middle;rounded=0;labelBackgroundColor=none;labelBorderColor=none;fontSize=4;fontColor=#cccccc;fontStyle=1;whiteSpace=wrap;" parent="8Ycj_TcYPaLNM2qeTH3q-26" vertex="1">
                    <mxGeometry width="17" height="10" as="geometry"/>
                </mxCell>
                <mxCell id="8Ycj_TcYPaLNM2qeTH3q-31" value="GND" style="text;html=1;strokeColor=none;fillColor=none;align=center;verticalAlign=middle;rounded=0;labelBackgroundColor=none;labelBorderColor=none;fontSize=4;fontColor=#cccccc;fontStyle=1;whiteSpace=wrap;" parent="8Ycj_TcYPaLNM2qeTH3q-26" vertex="1">
                    <mxGeometry x="12.870000000000005" width="17" height="10" as="geometry"/>
                </mxCell>
                <mxCell id="8Ycj_TcYPaLNM2qeTH3q-32" value="B+" style="text;html=1;strokeColor=none;fillColor=none;align=center;verticalAlign=middle;rounded=0;labelBackgroundColor=none;labelBorderColor=none;fontSize=4;fontColor=#cccccc;fontStyle=1;whiteSpace=wrap;" parent="8Ycj_TcYPaLNM2qeTH3q-26" vertex="1">
                    <mxGeometry x="25.620000000000005" width="17" height="10" as="geometry"/>
                </mxCell>
                <mxCell id="8Ycj_TcYPaLNM2qeTH3q-33" value="" style="group" parent="8Ycj_TcYPaLNM2qeTH3q-24" vertex="1" connectable="0">
                    <mxGeometry x="92" y="1.6899999999999409" width="20" height="36.18999999999994" as="geometry"/>
                </mxCell>
                <mxCell id="8Ycj_TcYPaLNM2qeTH3q-34" value="" style="rounded=1;whiteSpace=wrap;html=1;labelBackgroundColor=#FFFFFF;labelBorderColor=#FF0000;fontSize=8;strokeColor=#cccccc;strokeWidth=2;fillColor=#CCCCCC;" parent="8Ycj_TcYPaLNM2qeTH3q-33" vertex="1">
                    <mxGeometry x="5.5" y="8.31000000000006" width="6" height="10" as="geometry"/>
                </mxCell>
                <mxCell id="8Ycj_TcYPaLNM2qeTH3q-35" value="RPL" style="text;html=1;strokeColor=none;fillColor=none;align=center;verticalAlign=middle;rounded=0;labelBackgroundColor=none;labelBorderColor=none;fontSize=4;fontColor=#cccccc;fontStyle=1;whiteSpace=wrap;" parent="8Ycj_TcYPaLNM2qeTH3q-33" vertex="1">
                    <mxGeometry width="17" height="10" as="geometry"/>
                </mxCell>
                <mxCell id="8Ycj_TcYPaLNM2qeTH3q-36" value="" style="rounded=1;whiteSpace=wrap;html=1;labelBackgroundColor=#FFFFFF;labelBorderColor=#FF0000;fontSize=8;strokeColor=#cccccc;strokeWidth=2;fillColor=#CCCCCC;" parent="8Ycj_TcYPaLNM2qeTH3q-33" vertex="1">
                    <mxGeometry x="5.5" y="22.690000000000055" width="6" height="10" as="geometry"/>
                </mxCell>
                <mxCell id="8Ycj_TcYPaLNM2qeTH3q-37" value="IN" style="text;html=1;strokeColor=none;fillColor=none;align=center;verticalAlign=middle;rounded=0;labelBackgroundColor=none;labelBorderColor=none;fontSize=4;fontColor=#cccccc;fontStyle=1;whiteSpace=wrap;rotation=90;" parent="8Ycj_TcYPaLNM2qeTH3q-33" vertex="1">
                    <mxGeometry x="6.5" y="8.309999999999945" width="17" height="10" as="geometry"/>
                </mxCell>
                <mxCell id="8Ycj_TcYPaLNM2qeTH3q-38" value="OUT" style="text;html=1;strokeColor=none;fillColor=none;align=center;verticalAlign=middle;rounded=0;labelBackgroundColor=none;labelBorderColor=none;fontSize=4;fontColor=#cccccc;fontStyle=1;whiteSpace=wrap;rotation=90;" parent="8Ycj_TcYPaLNM2qeTH3q-33" vertex="1">
                    <mxGeometry x="5.5" y="22.68999999999994" width="17" height="10" as="geometry"/>
                </mxCell>
                <mxCell id="8Ycj_TcYPaLNM2qeTH3q-39" value="" style="group" parent="8Ycj_TcYPaLNM2qeTH3q-24" vertex="1" connectable="0">
                    <mxGeometry x="111.75" y="7" width="45.25" height="30" as="geometry"/>
                </mxCell>
                <mxCell id="8Ycj_TcYPaLNM2qeTH3q-40" value="REAR" style="text;html=1;strokeColor=none;fillColor=none;align=center;verticalAlign=middle;rounded=0;labelBackgroundColor=#FFFFFF;labelBorderColor=none;fontSize=4;fontColor=#cccccc;fontStyle=1;whiteSpace=wrap;" parent="8Ycj_TcYPaLNM2qeTH3q-39" vertex="1">
                    <mxGeometry x="21.75" y="20" width="17" height="10" as="geometry"/>
                </mxCell>
                <mxCell id="8Ycj_TcYPaLNM2qeTH3q-41" value="" style="ellipse;whiteSpace=wrap;html=1;aspect=fixed;labelBackgroundColor=#FFFFFF;labelBorderColor=#FF0000;fontSize=8;strokeWidth=2;strokeColor=none;fillColor=#CCCCCC;" parent="8Ycj_TcYPaLNM2qeTH3q-39" vertex="1">
                    <mxGeometry x="15.25" width="8.75" height="8.75" as="geometry"/>
                </mxCell>
                <mxCell id="8Ycj_TcYPaLNM2qeTH3q-42" value="" style="ellipse;whiteSpace=wrap;html=1;aspect=fixed;labelBackgroundColor=#FFFFFF;labelBorderColor=#FF0000;fontSize=8;strokeWidth=2;strokeColor=none;fillColor=#CCCCCC;" parent="8Ycj_TcYPaLNM2qeTH3q-39" vertex="1">
                    <mxGeometry x="26" width="8.75" height="8.75" as="geometry"/>
                </mxCell>
                <mxCell id="8Ycj_TcYPaLNM2qeTH3q-43" value="" style="ellipse;whiteSpace=wrap;html=1;aspect=fixed;labelBackgroundColor=#FFFFFF;labelBorderColor=#FF0000;fontSize=8;strokeWidth=2;strokeColor=none;fillColor=#CCCCCC;" parent="8Ycj_TcYPaLNM2qeTH3q-39" vertex="1">
                    <mxGeometry x="15.25" y="11.25" width="8.75" height="8.75" as="geometry"/>
                </mxCell>
                <mxCell id="8Ycj_TcYPaLNM2qeTH3q-44" value="" style="ellipse;whiteSpace=wrap;html=1;aspect=fixed;labelBackgroundColor=#FFFFFF;labelBorderColor=#FF0000;fontSize=8;strokeWidth=2;strokeColor=none;fillColor=#CCCCCC;" parent="8Ycj_TcYPaLNM2qeTH3q-39" vertex="1">
                    <mxGeometry x="26" y="11.25" width="8.75" height="8.75" as="geometry"/>
                </mxCell>
                <mxCell id="8Ycj_TcYPaLNM2qeTH3q-45" value="L" style="text;html=1;strokeColor=none;fillColor=none;align=left;verticalAlign=middle;rounded=0;labelBackgroundColor=none;labelBorderColor=none;fontSize=4;fontColor=#cccccc;fontStyle=1;whiteSpace=wrap;" parent="8Ycj_TcYPaLNM2qeTH3q-39" vertex="1">
                    <mxGeometry x="34.75" width="10.5" height="10" as="geometry"/>
                </mxCell>
                <mxCell id="8Ycj_TcYPaLNM2qeTH3q-46" value="R" style="text;html=1;strokeColor=none;fillColor=none;align=left;verticalAlign=middle;rounded=0;labelBackgroundColor=none;labelBorderColor=none;fontSize=4;fontColor=#cccccc;fontStyle=1;whiteSpace=wrap;" parent="8Ycj_TcYPaLNM2qeTH3q-39" vertex="1">
                    <mxGeometry x="35.25" y="11.25" width="10" height="10" as="geometry"/>
                </mxCell>
                <mxCell id="8Ycj_TcYPaLNM2qeTH3q-47" value="&lt;span style=&quot;background-color: rgb(255 , 255 , 255)&quot;&gt;PT&lt;/span&gt;" style="text;html=1;strokeColor=none;fillColor=none;align=center;verticalAlign=middle;rounded=0;labelBackgroundColor=none;labelBorderColor=none;fontSize=4;fontColor=#cccccc;fontStyle=1;whiteSpace=wrap;" parent="8Ycj_TcYPaLNM2qeTH3q-39" vertex="1">
                    <mxGeometry x="11.129999999999995" y="20" width="17" height="10" as="geometry"/>
                </mxCell>
                <mxCell id="8Ycj_TcYPaLNM2qeTH3q-48" value="" style="ellipse;whiteSpace=wrap;html=1;aspect=fixed;labelBackgroundColor=#FFFFFF;labelBorderColor=#FF0000;fontSize=8;strokeWidth=2;strokeColor=none;fillColor=#CCCCCC;" parent="8Ycj_TcYPaLNM2qeTH3q-39" vertex="1">
                    <mxGeometry x="4.1200000000000045" width="8.75" height="8.75" as="geometry"/>
                </mxCell>
                <mxCell id="8Ycj_TcYPaLNM2qeTH3q-49" value="" style="ellipse;whiteSpace=wrap;html=1;aspect=fixed;labelBackgroundColor=#FFFFFF;labelBorderColor=#FF0000;fontSize=8;strokeWidth=2;strokeColor=none;fillColor=#CCCCCC;" parent="8Ycj_TcYPaLNM2qeTH3q-39" vertex="1">
                    <mxGeometry x="4.1200000000000045" y="11.25" width="8.75" height="8.75" as="geometry"/>
                </mxCell>
                <mxCell id="8Ycj_TcYPaLNM2qeTH3q-50" value="FRNT" style="text;html=1;strokeColor=none;fillColor=none;align=center;verticalAlign=middle;rounded=0;labelBackgroundColor=#FFFFFF;labelBorderColor=none;fontSize=4;fontColor=#cccccc;fontStyle=1;whiteSpace=wrap;" parent="8Ycj_TcYPaLNM2qeTH3q-39" vertex="1">
                    <mxGeometry y="20" width="17" height="10" as="geometry"/>
                </mxCell>
                <mxCell id="8Ycj_TcYPaLNM2qeTH3q-51" value="" style="group" parent="8Ycj_TcYPaLNM2qeTH3q-24" vertex="1" connectable="0">
                    <mxGeometry x="6.689999999999998" y="4.690000000000055" width="84.06" height="28.860000000000014" as="geometry"/>
                </mxCell>
                <mxCell id="8Ycj_TcYPaLNM2qeTH3q-52" value="" style="ellipse;whiteSpace=wrap;html=1;aspect=fixed;labelBackgroundColor=#FFFFFF;labelBorderColor=#FF0000;fontSize=8;strokeWidth=2;strokeColor=none;fillColor=#CCCCCC;" parent="8Ycj_TcYPaLNM2qeTH3q-51" vertex="1">
                    <mxGeometry x="0.4399999999999977" y="11.769999999999982" width="8.75" height="8.75" as="geometry"/>
                </mxCell>
                <mxCell id="8Ycj_TcYPaLNM2qeTH3q-53" value="" style="ellipse;whiteSpace=wrap;html=1;aspect=fixed;labelBackgroundColor=#FFFFFF;labelBorderColor=#FF0000;fontSize=8;strokeWidth=2;strokeColor=none;fillColor=#CCCCCC;" parent="8Ycj_TcYPaLNM2qeTH3q-51" vertex="1">
                    <mxGeometry x="11.189999999999998" y="11.769999999999982" width="8.75" height="8.75" as="geometry"/>
                </mxCell>
                <mxCell id="8Ycj_TcYPaLNM2qeTH3q-54" value="" style="ellipse;whiteSpace=wrap;html=1;aspect=fixed;labelBackgroundColor=#FFFFFF;labelBorderColor=#FF0000;fontSize=8;strokeWidth=2;strokeColor=none;fillColor=#CCCCCC;" parent="8Ycj_TcYPaLNM2qeTH3q-51" vertex="1">
                    <mxGeometry x="21.939999999999998" y="11.889999999999986" width="8.75" height="8.75" as="geometry"/>
                </mxCell>
                <mxCell id="8Ycj_TcYPaLNM2qeTH3q-55" value="" style="ellipse;whiteSpace=wrap;html=1;aspect=fixed;labelBackgroundColor=#FFFFFF;labelBorderColor=#FF0000;fontSize=8;strokeWidth=2;strokeColor=none;fillColor=#CCCCCC;" parent="8Ycj_TcYPaLNM2qeTH3q-51" vertex="1">
                    <mxGeometry x="32.69" y="11.889999999999986" width="8.75" height="8.75" as="geometry"/>
                </mxCell>
                <mxCell id="8Ycj_TcYPaLNM2qeTH3q-56" value="" style="ellipse;whiteSpace=wrap;html=1;aspect=fixed;labelBackgroundColor=#FFFFFF;labelBorderColor=#FF0000;fontSize=8;strokeWidth=2;strokeColor=none;fillColor=#CCCCCC;" parent="8Ycj_TcYPaLNM2qeTH3q-51" vertex="1">
                    <mxGeometry x="43.06" y="11.990000000000009" width="8.75" height="8.75" as="geometry"/>
                </mxCell>
                <mxCell id="8Ycj_TcYPaLNM2qeTH3q-57" value="" style="ellipse;whiteSpace=wrap;html=1;aspect=fixed;labelBackgroundColor=#FFFFFF;labelBorderColor=#FF0000;fontSize=8;strokeWidth=2;strokeColor=none;fillColor=#CCCCCC;" parent="8Ycj_TcYPaLNM2qeTH3q-51" vertex="1">
                    <mxGeometry x="53.81" y="11.990000000000009" width="8.75" height="8.75" as="geometry"/>
                </mxCell>
                <mxCell id="8Ycj_TcYPaLNM2qeTH3q-58" value="" style="ellipse;whiteSpace=wrap;html=1;aspect=fixed;labelBackgroundColor=#FFFFFF;labelBorderColor=#FF0000;fontSize=8;strokeWidth=2;strokeColor=none;fillColor=#CCCCCC;" parent="8Ycj_TcYPaLNM2qeTH3q-51" vertex="1">
                    <mxGeometry x="64.56" y="12.110000000000014" width="8.75" height="8.75" as="geometry"/>
                </mxCell>
                <mxCell id="8Ycj_TcYPaLNM2qeTH3q-59" value="" style="ellipse;whiteSpace=wrap;html=1;aspect=fixed;labelBackgroundColor=#FFFFFF;labelBorderColor=#FF0000;fontSize=8;strokeWidth=2;strokeColor=none;fillColor=#CCCCCC;" parent="8Ycj_TcYPaLNM2qeTH3q-51" vertex="1">
                    <mxGeometry x="75.31" y="12.110000000000014" width="8.75" height="8.75" as="geometry"/>
                </mxCell>
                <mxCell id="8Ycj_TcYPaLNM2qeTH3q-60" value="+" style="text;html=1;strokeColor=none;fillColor=none;align=center;verticalAlign=middle;rounded=0;labelBackgroundColor=none;labelBorderColor=none;fontSize=4;fontColor=#cccccc;fontStyle=1;whiteSpace=wrap;" parent="8Ycj_TcYPaLNM2qeTH3q-51" vertex="1">
                    <mxGeometry y="4.1099999999999" width="9.62" height="10" as="geometry"/>
                </mxCell>
                <mxCell id="8Ycj_TcYPaLNM2qeTH3q-61" value="-" style="text;html=1;strokeColor=none;fillColor=none;align=center;verticalAlign=middle;rounded=0;labelBackgroundColor=none;labelBorderColor=none;fontSize=4;fontColor=#cccccc;fontStyle=1;whiteSpace=wrap;" parent="8Ycj_TcYPaLNM2qeTH3q-51" vertex="1">
                    <mxGeometry x="10.75" y="4.1099999999999" width="9.62" height="10" as="geometry"/>
                </mxCell>
                <mxCell id="8Ycj_TcYPaLNM2qeTH3q-62" value="+" style="text;html=1;strokeColor=none;fillColor=none;align=center;verticalAlign=middle;rounded=0;labelBackgroundColor=none;labelBorderColor=none;fontSize=4;fontColor=#cccccc;fontStyle=1;whiteSpace=wrap;" parent="8Ycj_TcYPaLNM2qeTH3q-51" vertex="1">
                    <mxGeometry x="21.069999999999993" y="4.1099999999999" width="9.62" height="10" as="geometry"/>
                </mxCell>
                <mxCell id="8Ycj_TcYPaLNM2qeTH3q-63" value="-" style="text;html=1;strokeColor=none;fillColor=none;align=center;verticalAlign=middle;rounded=0;labelBackgroundColor=none;labelBorderColor=none;fontSize=4;fontColor=#cccccc;fontStyle=1;whiteSpace=wrap;" parent="8Ycj_TcYPaLNM2qeTH3q-51" vertex="1">
                    <mxGeometry x="31.819999999999993" y="4.1099999999999" width="9.62" height="10" as="geometry"/>
                </mxCell>
                <mxCell id="8Ycj_TcYPaLNM2qeTH3q-64" value="+" style="text;html=1;strokeColor=none;fillColor=none;align=center;verticalAlign=middle;rounded=0;labelBackgroundColor=none;labelBorderColor=none;fontSize=4;fontColor=#cccccc;fontStyle=1;whiteSpace=wrap;" parent="8Ycj_TcYPaLNM2qeTH3q-51" vertex="1">
                    <mxGeometry x="42.620000000000005" y="4.1099999999999" width="9.62" height="10" as="geometry"/>
                </mxCell>
                <mxCell id="8Ycj_TcYPaLNM2qeTH3q-65" value="-" style="text;html=1;strokeColor=none;fillColor=none;align=center;verticalAlign=middle;rounded=0;labelBackgroundColor=none;labelBorderColor=none;fontSize=4;fontColor=#cccccc;fontStyle=1;whiteSpace=wrap;" parent="8Ycj_TcYPaLNM2qeTH3q-51" vertex="1">
                    <mxGeometry x="53.370000000000005" y="4.1099999999999" width="9.62" height="10" as="geometry"/>
                </mxCell>
                <mxCell id="8Ycj_TcYPaLNM2qeTH3q-66" value="+" style="text;html=1;strokeColor=none;fillColor=none;align=center;verticalAlign=middle;rounded=0;labelBackgroundColor=none;labelBorderColor=none;fontSize=4;fontColor=#cccccc;fontStyle=1;whiteSpace=wrap;" parent="8Ycj_TcYPaLNM2qeTH3q-51" vertex="1">
                    <mxGeometry x="63.69" y="4.1099999999999" width="9.62" height="10" as="geometry"/>
                </mxCell>
                <mxCell id="8Ycj_TcYPaLNM2qeTH3q-67" value="-" style="text;html=1;strokeColor=none;fillColor=none;align=center;verticalAlign=middle;rounded=0;labelBackgroundColor=none;labelBorderColor=none;fontSize=4;fontColor=#cccccc;fontStyle=1;whiteSpace=wrap;" parent="8Ycj_TcYPaLNM2qeTH3q-51" vertex="1">
                    <mxGeometry x="74.44" y="4.1099999999999" width="9.62" height="10" as="geometry"/>
                </mxCell>
                <mxCell id="8Ycj_TcYPaLNM2qeTH3q-68" value="FRONT" style="text;html=1;strokeColor=none;fillColor=none;align=center;verticalAlign=middle;rounded=0;labelBackgroundColor=none;labelBorderColor=none;fontSize=4;fontColor=#cccccc;fontStyle=1;whiteSpace=wrap;" parent="8Ycj_TcYPaLNM2qeTH3q-51" vertex="1">
                    <mxGeometry x="12.189999999999998" width="17" height="10" as="geometry"/>
                </mxCell>
                <mxCell id="8Ycj_TcYPaLNM2qeTH3q-69" value="REAR" style="text;html=1;strokeColor=none;fillColor=none;align=center;verticalAlign=middle;rounded=0;labelBackgroundColor=none;labelBorderColor=none;fontSize=4;fontColor=#cccccc;fontStyle=1;whiteSpace=wrap;" parent="8Ycj_TcYPaLNM2qeTH3q-51" vertex="1">
                    <mxGeometry x="54.44" width="17" height="10" as="geometry"/>
                </mxCell>
                <mxCell id="8Ycj_TcYPaLNM2qeTH3q-70" value="L" style="text;html=1;strokeColor=none;fillColor=none;align=center;verticalAlign=middle;rounded=0;labelBackgroundColor=none;labelBorderColor=none;fontSize=4;fontColor=#cccccc;fontStyle=1;whiteSpace=wrap;" parent="8Ycj_TcYPaLNM2qeTH3q-51" vertex="1">
                    <mxGeometry x="0.9399999999999977" y="18.860000000000014" width="17" height="10" as="geometry"/>
                </mxCell>
                <mxCell id="8Ycj_TcYPaLNM2qeTH3q-71" value="R" style="text;html=1;strokeColor=none;fillColor=none;align=center;verticalAlign=middle;rounded=0;labelBackgroundColor=none;labelBorderColor=none;fontSize=4;fontColor=#cccccc;fontStyle=1;whiteSpace=wrap;" parent="8Ycj_TcYPaLNM2qeTH3q-51" vertex="1">
                    <mxGeometry x="23.939999999999998" y="18.860000000000014" width="17" height="10" as="geometry"/>
                </mxCell>
                <mxCell id="8Ycj_TcYPaLNM2qeTH3q-72" value="L" style="text;html=1;strokeColor=none;fillColor=none;align=center;verticalAlign=middle;rounded=0;labelBackgroundColor=none;labelBorderColor=none;fontSize=4;fontColor=#cccccc;fontStyle=1;whiteSpace=wrap;" parent="8Ycj_TcYPaLNM2qeTH3q-51" vertex="1">
                    <mxGeometry x="44.06" y="18.860000000000014" width="17" height="10" as="geometry"/>
                </mxCell>
                <mxCell id="8Ycj_TcYPaLNM2qeTH3q-73" value="R" style="text;html=1;strokeColor=none;fillColor=none;align=center;verticalAlign=middle;rounded=0;labelBackgroundColor=none;labelBorderColor=none;fontSize=4;fontColor=#cccccc;fontStyle=1;whiteSpace=wrap;" parent="8Ycj_TcYPaLNM2qeTH3q-51" vertex="1">
                    <mxGeometry x="66.06" y="18.860000000000014" width="17" height="10" as="geometry"/>
                </mxCell>
                <mxCell id="Pvl9Io29hKtsctuFg94f-24" value="" style="group" parent="1" vertex="1" connectable="0">
                    <mxGeometry x="300" y="321.88" width="185" height="35" as="geometry"/>
                </mxCell>
                <mxCell id="Pvl9Io29hKtsctuFg94f-25" value="" style="shape=image;verticalLabelPosition=bottom;labelBackgroundColor=#ffffff;verticalAlign=top;aspect=fixed;imageAspect=0;image=data:image/svg+xml,PHN2ZyB4bWxuczppbmtzY2FwZT0iaHR0cDovL3d3dy5pbmtzY2FwZS5vcmcvbmFtZXNwYWNlcy9pbmtzY2FwZSIgeG1sbnM6c29kaXBvZGk9Imh0dHA6Ly9zb2RpcG9kaS5zb3VyY2Vmb3JnZS5uZXQvRFREL3NvZGlwb2RpLTAuZHRkIiB4bWxucz0iaHR0cDovL3d3dy53My5vcmcvMjAwMC9zdmciIHhtbG5zOnN2Zz0iaHR0cDovL3d3dy53My5vcmcvMjAwMC9zdmciIHdpZHRoPSIxODUuMTIyMDZtbSIgaGVpZ2h0PSIzNC42NTEzMjFtbSIgdmlld0JveD0iMCAwIDE4NS4xMjIwNiAzNC42NTEzMjEiIHZlcnNpb249IjEuMSIgaWQ9InN2ZzUiIHhtbDpzcGFjZT0icHJlc2VydmUiIHNvZGlwb2RpOmRvY25hbWU9ImFtcC1tb25vLnN2ZyIgaW5rc2NhcGU6dmVyc2lvbj0iMS4yLjEgKDljNmQ0MWUsIDIwMjItMDctMTQpIj48c29kaXBvZGk6bmFtZWR2aWV3IGlkPSJuYW1lZHZpZXc3IiBwYWdlY29sb3I9IiNmZmZmZmYiIGJvcmRlcmNvbG9yPSIjMDAwMDAwIiBib3JkZXJvcGFjaXR5PSIwLjI1IiBpbmtzY2FwZTpzaG93cGFnZXNoYWRvdz0iMiIgaW5rc2NhcGU6cGFnZW9wYWNpdHk9IjAuMCIgaW5rc2NhcGU6cGFnZWNoZWNrZXJib2FyZD0iMCIgaW5rc2NhcGU6ZGVza2NvbG9yPSIjZDFkMWQxIiBpbmtzY2FwZTpkb2N1bWVudC11bml0cz0ibW0iIHNob3dncmlkPSJmYWxzZSIgaW5rc2NhcGU6em9vbT0iMSIgaW5rc2NhcGU6Y3g9IjI4Ni41IiBpbmtzY2FwZTpjeT0iLTQ4LjUiIGlua3NjYXBlOndpbmRvdy13aWR0aD0iMTg5NiIgaW5rc2NhcGU6d2luZG93LWhlaWdodD0iMjEwNyIgaW5rc2NhcGU6d2luZG93LXg9IjEwMSIgaW5rc2NhcGU6d2luZG93LXk9IjE0NyIgaW5rc2NhcGU6d2luZG93LW1heGltaXplZD0iMCIgaW5rc2NhcGU6Y3VycmVudC1sYXllcj0ibGF5ZXIxIi8+PGRlZnMgaWQ9ImRlZnMyIi8+PGcgaW5rc2NhcGU6bGFiZWw9IkxheWVyIDEiIGlua3NjYXBlOmdyb3VwbW9kZT0ibGF5ZXIiIGlkPSJsYXllcjEiIHRyYW5zZm9ybT0idHJhbnNsYXRlKC0xOC4yOTg4MzYsLTU4LjM0NTE1OCkiPjxwYXRoIGlkPSJwYXRoMTQ2MDAiIGNsaXAtcGF0aD0ibm9uZSIgc3R5bGU9ImZpbGw6bm9uZTtzdHJva2U6I2NjY2NjYztzdHJva2Utd2lkdGg6MztzdHJva2UtZGFzaGFycmF5Om5vbmU7c3Ryb2tlLW9wYWNpdHk6MSIgZD0ibSAyMy42MDU1MzcsNTkuODQ1MTgzIC0xLjQzNDAyMSwwLjg2MDkzIC0xLjQzNDAyMSwwLjg2MDkzIC0wLjQ1ODg4NiwxMy43NDE3OSAtMC40NTg4ODcsMTMuNzQyMzE3IDEuMDQwMjQ3LDEuMDQwMjQgMS4wNDAyNDYsMS4wNDA3NyA4LjQ5MDQzOCwwLjE5MjIzIGMgMi4wNDQ4OTUsMC4wNDYyIDMuNzgzNTI1LDAuMTA3MTkgNS4yMzg0NCwwLjE3MjA5IEggMTczLjMxMTY0IGMgMi43Njc1OCwtMC4wODg5IDYuNzYxMjYsLTAuMTU4OTEgMTAuMTQ0NiwtMC4xNzA1NCA0LjUxMTE1LC0wLjAxNTUgMTAuMDUyMjUsLTAuMTA0NjMgMTIuMzEzNDYsLTAuMTk4NDMgbCA0LjExMTM4LC0wLjE3MDU0IDEuMDEwMjcsLTAuODczMzMgMS4wMDk3NiwtMC44NzMzMyAtMC4yOTA0MiwtMTAuMTMzNzQ3IGMgLTAuMTU5NzYsLTUuNTczNjggLTAuMzY0NjksLTExLjgyMTk1IC0wLjQ1NTc5LC0xMy44ODQ0MiBsIC0wLjE2NTg4LC0zLjc0OTY0IC0xLjQ5MDM1LC0wLjc5Mzc1IC0xLjQ5MDM0LC0wLjc5MzI0IC04Ny4yMDE0LC0wLjAwNSB6Ii8+PC9nPjwvc3ZnPg==;" parent="Pvl9Io29hKtsctuFg94f-24" vertex="1">
                    <mxGeometry width="185" height="35" as="geometry"/>
                </mxCell>
                <mxCell id="Pvl9Io29hKtsctuFg94f-26" value="" style="group" parent="Pvl9Io29hKtsctuFg94f-24" vertex="1" connectable="0">
                    <mxGeometry x="150" y="4.3799999999999955" width="30" height="30" as="geometry"/>
                </mxCell>
                <mxCell id="Pvl9Io29hKtsctuFg94f-27" value="" style="group" parent="Pvl9Io29hKtsctuFg94f-26" vertex="1" connectable="0">
                    <mxGeometry width="30" height="30" as="geometry"/>
                </mxCell>
                <mxCell id="Pvl9Io29hKtsctuFg94f-28" value="" style="ellipse;whiteSpace=wrap;html=1;aspect=fixed;labelBackgroundColor=#FFFFFF;labelBorderColor=#FF0000;fontSize=8;strokeWidth=2;strokeColor=none;fillColor=#CCCCCC;" parent="Pvl9Io29hKtsctuFg94f-27" vertex="1">
                    <mxGeometry width="8.75" height="8.75" as="geometry"/>
                </mxCell>
                <mxCell id="Pvl9Io29hKtsctuFg94f-29" value="" style="ellipse;whiteSpace=wrap;html=1;aspect=fixed;labelBackgroundColor=#FFFFFF;labelBorderColor=#FF0000;fontSize=8;strokeWidth=2;strokeColor=none;fillColor=#CCCCCC;" parent="Pvl9Io29hKtsctuFg94f-27" vertex="1">
                    <mxGeometry x="10.75" width="8.75" height="8.75" as="geometry"/>
                </mxCell>
                <mxCell id="Pvl9Io29hKtsctuFg94f-30" value="" style="ellipse;whiteSpace=wrap;html=1;aspect=fixed;labelBackgroundColor=#FFFFFF;labelBorderColor=#FF0000;fontSize=8;strokeWidth=2;strokeColor=none;fillColor=#CCCCCC;" parent="Pvl9Io29hKtsctuFg94f-27" vertex="1">
                    <mxGeometry y="11.25" width="8.75" height="8.75" as="geometry"/>
                </mxCell>
                <mxCell id="Pvl9Io29hKtsctuFg94f-31" value="" style="ellipse;whiteSpace=wrap;html=1;aspect=fixed;labelBackgroundColor=#FFFFFF;labelBorderColor=#FF0000;fontSize=8;strokeWidth=2;strokeColor=none;fillColor=#CCCCCC;" parent="Pvl9Io29hKtsctuFg94f-27" vertex="1">
                    <mxGeometry x="10.75" y="11.25" width="8.75" height="8.75" as="geometry"/>
                </mxCell>
                <mxCell id="Pvl9Io29hKtsctuFg94f-32" value="L" style="text;html=1;strokeColor=none;fillColor=none;align=left;verticalAlign=middle;rounded=0;labelBackgroundColor=none;labelBorderColor=none;fontSize=4;fontColor=#cccccc;fontStyle=1;whiteSpace=wrap;" parent="Pvl9Io29hKtsctuFg94f-27" vertex="1">
                    <mxGeometry x="19.5" width="10.5" height="10" as="geometry"/>
                </mxCell>
                <mxCell id="Pvl9Io29hKtsctuFg94f-33" value="R" style="text;html=1;strokeColor=none;fillColor=none;align=left;verticalAlign=middle;rounded=0;labelBackgroundColor=none;labelBorderColor=none;fontSize=4;fontColor=#cccccc;fontStyle=1;whiteSpace=wrap;" parent="Pvl9Io29hKtsctuFg94f-27" vertex="1">
                    <mxGeometry x="20" y="11.25" width="10" height="10" as="geometry"/>
                </mxCell>
                <mxCell id="Pvl9Io29hKtsctuFg94f-34" value="&lt;span style=&quot;background-color: rgb(255 , 255 , 255)&quot;&gt;SUB&lt;/span&gt;" style="text;html=1;strokeColor=none;fillColor=none;align=center;verticalAlign=middle;rounded=0;labelBackgroundColor=none;labelBorderColor=none;fontSize=4;fontColor=#cccccc;fontStyle=1;whiteSpace=wrap;" parent="Pvl9Io29hKtsctuFg94f-27" vertex="1">
                    <mxGeometry x="-4.1200000000000045" y="20" width="17" height="10" as="geometry"/>
                </mxCell>
                <mxCell id="Pvl9Io29hKtsctuFg94f-35" value="PT" style="text;html=1;strokeColor=none;fillColor=none;align=center;verticalAlign=middle;rounded=0;labelBackgroundColor=none;labelBorderColor=none;fontSize=4;fontColor=#cccccc;fontStyle=1;whiteSpace=wrap;" parent="Pvl9Io29hKtsctuFg94f-26" vertex="1">
                    <mxGeometry x="6.5" y="20" width="17" height="10" as="geometry"/>
                </mxCell>
                <mxCell id="Pvl9Io29hKtsctuFg94f-36" value="" style="group" parent="Pvl9Io29hKtsctuFg94f-24" vertex="1" connectable="0">
                    <mxGeometry x="10.129999999999995" y="5.1299999999999955" width="42.620000000000005" height="16.620000000000005" as="geometry"/>
                </mxCell>
                <mxCell id="Pvl9Io29hKtsctuFg94f-37" value="" style="ellipse;whiteSpace=wrap;html=1;aspect=fixed;labelBackgroundColor=#FFFFFF;labelBorderColor=#FF0000;fontSize=8;strokeWidth=2;strokeColor=none;fillColor=#CCCCCC;" parent="Pvl9Io29hKtsctuFg94f-36" vertex="1">
                    <mxGeometry x="4.1200000000000045" y="7.8700000000000045" width="8.75" height="8.75" as="geometry"/>
                </mxCell>
                <mxCell id="Pvl9Io29hKtsctuFg94f-38" value="" style="ellipse;whiteSpace=wrap;html=1;aspect=fixed;labelBackgroundColor=#FFFFFF;labelBorderColor=#FF0000;fontSize=8;strokeWidth=2;strokeColor=none;fillColor=#CCCCCC;" parent="Pvl9Io29hKtsctuFg94f-36" vertex="1">
                    <mxGeometry x="16.870000000000005" y="7.8700000000000045" width="8.75" height="8.75" as="geometry"/>
                </mxCell>
                <mxCell id="Pvl9Io29hKtsctuFg94f-39" value="" style="ellipse;whiteSpace=wrap;html=1;aspect=fixed;labelBackgroundColor=#FFFFFF;labelBorderColor=#FF0000;fontSize=8;strokeWidth=2;strokeColor=none;fillColor=#CCCCCC;" parent="Pvl9Io29hKtsctuFg94f-36" vertex="1">
                    <mxGeometry x="29.620000000000005" y="7.8700000000000045" width="8.75" height="8.75" as="geometry"/>
                </mxCell>
                <mxCell id="Pvl9Io29hKtsctuFg94f-40" value="GND" style="text;html=1;strokeColor=none;fillColor=none;align=center;verticalAlign=middle;rounded=0;labelBackgroundColor=none;labelBorderColor=none;fontSize=4;fontColor=#cccccc;fontStyle=1;whiteSpace=wrap;" parent="Pvl9Io29hKtsctuFg94f-36" vertex="1">
                    <mxGeometry width="17" height="10" as="geometry"/>
                </mxCell>
                <mxCell id="Pvl9Io29hKtsctuFg94f-41" value="REM" style="text;html=1;strokeColor=none;fillColor=none;align=center;verticalAlign=middle;rounded=0;labelBackgroundColor=none;labelBorderColor=none;fontSize=4;fontColor=#cccccc;fontStyle=1;whiteSpace=wrap;" parent="Pvl9Io29hKtsctuFg94f-36" vertex="1">
                    <mxGeometry x="12.870000000000005" width="17" height="10" as="geometry"/>
                </mxCell>
                <mxCell id="Pvl9Io29hKtsctuFg94f-42" value="B+" style="text;html=1;strokeColor=none;fillColor=none;align=center;verticalAlign=middle;rounded=0;labelBackgroundColor=none;labelBorderColor=none;fontSize=4;fontColor=#cccccc;fontStyle=1;whiteSpace=wrap;" parent="Pvl9Io29hKtsctuFg94f-36" vertex="1">
                    <mxGeometry x="25.620000000000005" width="17" height="10" as="geometry"/>
                </mxCell>
                <mxCell id="Pvl9Io29hKtsctuFg94f-43" value="" style="group" parent="Pvl9Io29hKtsctuFg94f-24" vertex="1" connectable="0">
                    <mxGeometry x="61" y="5.1299999999999955" width="46.75" height="16.75" as="geometry"/>
                </mxCell>
                <mxCell id="Pvl9Io29hKtsctuFg94f-44" value="" style="ellipse;whiteSpace=wrap;html=1;aspect=fixed;labelBackgroundColor=#FFFFFF;labelBorderColor=#FF0000;fontSize=8;strokeWidth=2;strokeColor=none;fillColor=#CCCCCC;" parent="Pvl9Io29hKtsctuFg94f-43" vertex="1">
                    <mxGeometry y="7.8700000000000045" width="8.75" height="8.75" as="geometry"/>
                </mxCell>
                <mxCell id="Pvl9Io29hKtsctuFg94f-45" value="" style="ellipse;whiteSpace=wrap;html=1;aspect=fixed;labelBackgroundColor=#FFFFFF;labelBorderColor=#FF0000;fontSize=8;strokeWidth=2;strokeColor=none;fillColor=#CCCCCC;" parent="Pvl9Io29hKtsctuFg94f-43" vertex="1">
                    <mxGeometry x="13" y="7.8700000000000045" width="8.75" height="8.75" as="geometry"/>
                </mxCell>
                <mxCell id="Pvl9Io29hKtsctuFg94f-46" value="" style="ellipse;whiteSpace=wrap;html=1;aspect=fixed;labelBackgroundColor=#FFFFFF;labelBorderColor=#FF0000;fontSize=8;strokeWidth=2;strokeColor=none;fillColor=#CCCCCC;" parent="Pvl9Io29hKtsctuFg94f-43" vertex="1">
                    <mxGeometry x="25" y="7.8700000000000045" width="8.75" height="8.75" as="geometry"/>
                </mxCell>
                <mxCell id="Pvl9Io29hKtsctuFg94f-47" value="" style="ellipse;whiteSpace=wrap;html=1;aspect=fixed;labelBackgroundColor=#FFFFFF;labelBorderColor=#FF0000;fontSize=8;strokeWidth=2;strokeColor=none;fillColor=#CCCCCC;" parent="Pvl9Io29hKtsctuFg94f-43" vertex="1">
                    <mxGeometry x="38" y="8" width="8.75" height="8.75" as="geometry"/>
                </mxCell>
                <mxCell id="Pvl9Io29hKtsctuFg94f-48" value="+A-" style="text;html=1;strokeColor=none;fillColor=none;align=center;verticalAlign=middle;rounded=0;labelBackgroundColor=none;labelBorderColor=none;fontSize=4;fontColor=#cccccc;fontStyle=1;whiteSpace=wrap;" parent="Pvl9Io29hKtsctuFg94f-43" vertex="1">
                    <mxGeometry x="2" width="17" height="10" as="geometry"/>
                </mxCell>
                <mxCell id="Pvl9Io29hKtsctuFg94f-49" value="+B-" style="text;html=1;strokeColor=none;fillColor=none;align=center;verticalAlign=middle;rounded=0;labelBackgroundColor=none;labelBorderColor=none;fontSize=4;fontColor=#cccccc;fontStyle=1;whiteSpace=wrap;" parent="Pvl9Io29hKtsctuFg94f-43" vertex="1">
                    <mxGeometry x="27" width="17" height="10" as="geometry"/>
                </mxCell>
                <mxCell id="Pvl9Io29hKtsctuFg94f-50" value="" style="group" parent="Pvl9Io29hKtsctuFg94f-24" vertex="1" connectable="0">
                    <mxGeometry x="116.5" y="8.5" width="28.5" height="20.129999999999995" as="geometry"/>
                </mxCell>
                <mxCell id="Pvl9Io29hKtsctuFg94f-51" value="" style="rounded=1;whiteSpace=wrap;html=1;labelBackgroundColor=#FFFFFF;labelBorderColor=#FF0000;fontSize=8;strokeColor=#cccccc;strokeWidth=2;fillColor=#CCCCCC;" parent="Pvl9Io29hKtsctuFg94f-50" vertex="1">
                    <mxGeometry x="5.5" y="0.12999999999999545" width="6" height="10" as="geometry"/>
                </mxCell>
                <mxCell id="Pvl9Io29hKtsctuFg94f-52" value="" style="rounded=1;whiteSpace=wrap;html=1;labelBackgroundColor=#FFFFFF;labelBorderColor=#FF0000;fontSize=8;strokeColor=#cccccc;strokeWidth=2;fillColor=#CCCCCC;" parent="Pvl9Io29hKtsctuFg94f-50" vertex="1">
                    <mxGeometry x="17.5" width="6" height="10" as="geometry"/>
                </mxCell>
                <mxCell id="Pvl9Io29hKtsctuFg94f-53" value="&lt;span style=&quot;background-color: rgb(255 , 255 , 255)&quot;&gt;RLC&lt;/span&gt;" style="text;html=1;strokeColor=none;fillColor=none;align=center;verticalAlign=middle;rounded=0;labelBackgroundColor=none;labelBorderColor=none;fontSize=4;fontColor=#cccccc;fontStyle=1;whiteSpace=wrap;" parent="Pvl9Io29hKtsctuFg94f-50" vertex="1">
                    <mxGeometry y="10.129999999999995" width="17" height="10" as="geometry"/>
                </mxCell>
                <mxCell id="Pvl9Io29hKtsctuFg94f-54" value="HLI" style="text;html=1;strokeColor=none;fillColor=none;align=center;verticalAlign=middle;rounded=0;labelBackgroundColor=none;labelBorderColor=none;fontSize=4;fontColor=#cccccc;fontStyle=1;whiteSpace=wrap;" parent="Pvl9Io29hKtsctuFg94f-50" vertex="1">
                    <mxGeometry x="11.5" y="10.129999999999995" width="17" height="10" as="geometry"/>
                </mxCell>
            </root>
        </mxGraphModel>
    </diagram>
    <diagram id="r9JXmWo9z3kw8nVHbm8W" name="Page-2">
        <mxGraphModel grid="1" gridSize="10" guides="1" tooltips="1" connect="1" arrows="1" page="1" fold="1" pageScale="1" pageWidth="850" pageHeight="1100" math="0" shadow="0">
            <root>
                <mxCell id="jW0tcmKeyihmLjfxq5Ru-0"/>
                <mxCell id="jW0tcmKeyihmLjfxq5Ru-1" parent="jW0tcmKeyihmLjfxq5Ru-0"/>
                <mxCell id="QVSoskFH4548YTWzDZNm-86" value="" style="group" vertex="1" connectable="0" parent="jW0tcmKeyihmLjfxq5Ru-1">
                    <mxGeometry x="220" y="470" width="185" height="35" as="geometry"/>
                </mxCell>
                <mxCell id="jW0tcmKeyihmLjfxq5Ru-2" value="" style="shape=image;verticalLabelPosition=bottom;labelBackgroundColor=#ffffff;verticalAlign=top;aspect=fixed;imageAspect=0;image=data:image/svg+xml,PHN2ZyB4bWxuczppbmtzY2FwZT0iaHR0cDovL3d3dy5pbmtzY2FwZS5vcmcvbmFtZXNwYWNlcy9pbmtzY2FwZSIgeG1sbnM6c29kaXBvZGk9Imh0dHA6Ly9zb2RpcG9kaS5zb3VyY2Vmb3JnZS5uZXQvRFREL3NvZGlwb2RpLTAuZHRkIiB4bWxucz0iaHR0cDovL3d3dy53My5vcmcvMjAwMC9zdmciIHhtbG5zOnN2Zz0iaHR0cDovL3d3dy53My5vcmcvMjAwMC9zdmciIHdpZHRoPSIxODUuMTIyMDZtbSIgaGVpZ2h0PSIzNC42NTEzMjFtbSIgdmlld0JveD0iMCAwIDE4NS4xMjIwNiAzNC42NTEzMjEiIHZlcnNpb249IjEuMSIgaWQ9InN2ZzUiIHhtbDpzcGFjZT0icHJlc2VydmUiIHNvZGlwb2RpOmRvY25hbWU9ImFtcC1tb25vLnN2ZyIgaW5rc2NhcGU6dmVyc2lvbj0iMS4yLjEgKDljNmQ0MWUsIDIwMjItMDctMTQpIj48c29kaXBvZGk6bmFtZWR2aWV3IGlkPSJuYW1lZHZpZXc3IiBwYWdlY29sb3I9IiNmZmZmZmYiIGJvcmRlcmNvbG9yPSIjMDAwMDAwIiBib3JkZXJvcGFjaXR5PSIwLjI1IiBpbmtzY2FwZTpzaG93cGFnZXNoYWRvdz0iMiIgaW5rc2NhcGU6cGFnZW9wYWNpdHk9IjAuMCIgaW5rc2NhcGU6cGFnZWNoZWNrZXJib2FyZD0iMCIgaW5rc2NhcGU6ZGVza2NvbG9yPSIjZDFkMWQxIiBpbmtzY2FwZTpkb2N1bWVudC11bml0cz0ibW0iIHNob3dncmlkPSJmYWxzZSIgaW5rc2NhcGU6em9vbT0iMSIgaW5rc2NhcGU6Y3g9IjI4Ni41IiBpbmtzY2FwZTpjeT0iLTQ4LjUiIGlua3NjYXBlOndpbmRvdy13aWR0aD0iMTg5NiIgaW5rc2NhcGU6d2luZG93LWhlaWdodD0iMjEwNyIgaW5rc2NhcGU6d2luZG93LXg9IjEwMSIgaW5rc2NhcGU6d2luZG93LXk9IjE0NyIgaW5rc2NhcGU6d2luZG93LW1heGltaXplZD0iMCIgaW5rc2NhcGU6Y3VycmVudC1sYXllcj0ibGF5ZXIxIi8+PGRlZnMgaWQ9ImRlZnMyIi8+PGcgaW5rc2NhcGU6bGFiZWw9IkxheWVyIDEiIGlua3NjYXBlOmdyb3VwbW9kZT0ibGF5ZXIiIGlkPSJsYXllcjEiIHRyYW5zZm9ybT0idHJhbnNsYXRlKC0xOC4yOTg4MzYsLTU4LjM0NTE1OCkiPjxwYXRoIGlkPSJwYXRoMTQ2MDAiIGNsaXAtcGF0aD0ibm9uZSIgc3R5bGU9ImZpbGw6bm9uZTtzdHJva2U6I2NjY2NjYztzdHJva2Utd2lkdGg6MztzdHJva2UtZGFzaGFycmF5Om5vbmU7c3Ryb2tlLW9wYWNpdHk6MSIgZD0ibSAyMy42MDU1MzcsNTkuODQ1MTgzIC0xLjQzNDAyMSwwLjg2MDkzIC0xLjQzNDAyMSwwLjg2MDkzIC0wLjQ1ODg4NiwxMy43NDE3OSAtMC40NTg4ODcsMTMuNzQyMzE3IDEuMDQwMjQ3LDEuMDQwMjQgMS4wNDAyNDYsMS4wNDA3NyA4LjQ5MDQzOCwwLjE5MjIzIGMgMi4wNDQ4OTUsMC4wNDYyIDMuNzgzNTI1LDAuMTA3MTkgNS4yMzg0NCwwLjE3MjA5IEggMTczLjMxMTY0IGMgMi43Njc1OCwtMC4wODg5IDYuNzYxMjYsLTAuMTU4OTEgMTAuMTQ0NiwtMC4xNzA1NCA0LjUxMTE1LC0wLjAxNTUgMTAuMDUyMjUsLTAuMTA0NjMgMTIuMzEzNDYsLTAuMTk4NDMgbCA0LjExMTM4LC0wLjE3MDU0IDEuMDEwMjcsLTAuODczMzMgMS4wMDk3NiwtMC44NzMzMyAtMC4yOTA0MiwtMTAuMTMzNzQ3IGMgLTAuMTU5NzYsLTUuNTczNjggLTAuMzY0NjksLTExLjgyMTk1IC0wLjQ1NTc5LC0xMy44ODQ0MiBsIC0wLjE2NTg4LC0zLjc0OTY0IC0xLjQ5MDM1LC0wLjc5Mzc1IC0xLjQ5MDM0LC0wLjc5MzI0IC04Ny4yMDE0LC0wLjAwNSB6Ii8+PC9nPjwvc3ZnPg==;" parent="QVSoskFH4548YTWzDZNm-86" vertex="1">
                    <mxGeometry width="185" height="35" as="geometry"/>
                </mxCell>
                <mxCell id="QVSoskFH4548YTWzDZNm-45" value="" style="group" vertex="1" connectable="0" parent="QVSoskFH4548YTWzDZNm-86">
                    <mxGeometry x="150" y="4.3799999999999955" width="30" height="30" as="geometry"/>
                </mxCell>
                <mxCell id="QVSoskFH4548YTWzDZNm-24" value="" style="group" parent="QVSoskFH4548YTWzDZNm-45" vertex="1" connectable="0">
                    <mxGeometry width="30" height="30" as="geometry"/>
                </mxCell>
                <mxCell id="QVSoskFH4548YTWzDZNm-8" value="" style="ellipse;whiteSpace=wrap;html=1;aspect=fixed;labelBackgroundColor=#FFFFFF;labelBorderColor=#FF0000;fontSize=8;strokeWidth=2;strokeColor=none;fillColor=#CCCCCC;" parent="QVSoskFH4548YTWzDZNm-24" vertex="1">
                    <mxGeometry width="8.75" height="8.75" as="geometry"/>
                </mxCell>
                <mxCell id="QVSoskFH4548YTWzDZNm-9" value="" style="ellipse;whiteSpace=wrap;html=1;aspect=fixed;labelBackgroundColor=#FFFFFF;labelBorderColor=#FF0000;fontSize=8;strokeWidth=2;strokeColor=none;fillColor=#CCCCCC;" parent="QVSoskFH4548YTWzDZNm-24" vertex="1">
                    <mxGeometry x="10.75" width="8.75" height="8.75" as="geometry"/>
                </mxCell>
                <mxCell id="QVSoskFH4548YTWzDZNm-10" value="" style="ellipse;whiteSpace=wrap;html=1;aspect=fixed;labelBackgroundColor=#FFFFFF;labelBorderColor=#FF0000;fontSize=8;strokeWidth=2;strokeColor=none;fillColor=#CCCCCC;" parent="QVSoskFH4548YTWzDZNm-24" vertex="1">
                    <mxGeometry y="11.25" width="8.75" height="8.75" as="geometry"/>
                </mxCell>
                <mxCell id="QVSoskFH4548YTWzDZNm-11" value="" style="ellipse;whiteSpace=wrap;html=1;aspect=fixed;labelBackgroundColor=#FFFFFF;labelBorderColor=#FF0000;fontSize=8;strokeWidth=2;strokeColor=none;fillColor=#CCCCCC;" parent="QVSoskFH4548YTWzDZNm-24" vertex="1">
                    <mxGeometry x="10.75" y="11.25" width="8.75" height="8.75" as="geometry"/>
                </mxCell>
                <mxCell id="QVSoskFH4548YTWzDZNm-22" value="L" style="text;html=1;strokeColor=none;fillColor=none;align=left;verticalAlign=middle;rounded=0;labelBackgroundColor=none;labelBorderColor=none;fontSize=4;fontColor=#cccccc;fontStyle=1;whiteSpace=wrap;" parent="QVSoskFH4548YTWzDZNm-24" vertex="1">
                    <mxGeometry x="19.5" width="10.5" height="10" as="geometry"/>
                </mxCell>
                <mxCell id="QVSoskFH4548YTWzDZNm-23" value="R" style="text;html=1;strokeColor=none;fillColor=none;align=left;verticalAlign=middle;rounded=0;labelBackgroundColor=none;labelBorderColor=none;fontSize=4;fontColor=#cccccc;fontStyle=1;whiteSpace=wrap;" parent="QVSoskFH4548YTWzDZNm-24" vertex="1">
                    <mxGeometry x="20" y="11.25" width="10" height="10" as="geometry"/>
                </mxCell>
                <mxCell id="QVSoskFH4548YTWzDZNm-26" value="SUB" style="text;html=1;strokeColor=none;fillColor=none;align=center;verticalAlign=middle;rounded=0;labelBackgroundColor=none;labelBorderColor=none;fontSize=4;fontColor=#cccccc;fontStyle=1;whiteSpace=wrap;" parent="QVSoskFH4548YTWzDZNm-24" vertex="1">
                    <mxGeometry x="-4.1200000000000045" y="20" width="17" height="10" as="geometry"/>
                </mxCell>
                <mxCell id="QVSoskFH4548YTWzDZNm-27" value="PT" style="text;html=1;strokeColor=none;fillColor=none;align=center;verticalAlign=middle;rounded=0;labelBackgroundColor=none;labelBorderColor=none;fontSize=4;fontColor=#cccccc;fontStyle=1;whiteSpace=wrap;" parent="QVSoskFH4548YTWzDZNm-45" vertex="1">
                    <mxGeometry x="6.5" y="20" width="17" height="10" as="geometry"/>
                </mxCell>
                <mxCell id="QVSoskFH4548YTWzDZNm-47" value="" style="group" vertex="1" connectable="0" parent="QVSoskFH4548YTWzDZNm-86">
                    <mxGeometry x="10.129999999999995" y="5.1299999999999955" width="42.620000000000005" height="16.620000000000005" as="geometry"/>
                </mxCell>
                <mxCell id="QVSoskFH4548YTWzDZNm-1" value="" style="ellipse;whiteSpace=wrap;html=1;aspect=fixed;labelBackgroundColor=#FFFFFF;labelBorderColor=#FF0000;fontSize=8;strokeWidth=2;strokeColor=none;fillColor=#CCCCCC;" parent="QVSoskFH4548YTWzDZNm-47" vertex="1">
                    <mxGeometry x="4.1200000000000045" y="7.8700000000000045" width="8.75" height="8.75" as="geometry"/>
                </mxCell>
                <mxCell id="QVSoskFH4548YTWzDZNm-2" value="" style="ellipse;whiteSpace=wrap;html=1;aspect=fixed;labelBackgroundColor=#FFFFFF;labelBorderColor=#FF0000;fontSize=8;strokeWidth=2;strokeColor=none;fillColor=#CCCCCC;" parent="QVSoskFH4548YTWzDZNm-47" vertex="1">
                    <mxGeometry x="16.870000000000005" y="7.8700000000000045" width="8.75" height="8.75" as="geometry"/>
                </mxCell>
                <mxCell id="QVSoskFH4548YTWzDZNm-3" value="" style="ellipse;whiteSpace=wrap;html=1;aspect=fixed;labelBackgroundColor=#FFFFFF;labelBorderColor=#FF0000;fontSize=8;strokeWidth=2;strokeColor=none;fillColor=#CCCCCC;" parent="QVSoskFH4548YTWzDZNm-47" vertex="1">
                    <mxGeometry x="29.620000000000005" y="7.8700000000000045" width="8.75" height="8.75" as="geometry"/>
                </mxCell>
                <mxCell id="QVSoskFH4548YTWzDZNm-15" value="GND" style="text;html=1;strokeColor=none;fillColor=none;align=center;verticalAlign=middle;rounded=0;labelBackgroundColor=none;labelBorderColor=none;fontSize=4;fontColor=#cccccc;fontStyle=1;whiteSpace=wrap;" parent="QVSoskFH4548YTWzDZNm-47" vertex="1">
                    <mxGeometry width="17" height="10" as="geometry"/>
                </mxCell>
                <mxCell id="QVSoskFH4548YTWzDZNm-16" value="REM" style="text;html=1;strokeColor=none;fillColor=none;align=center;verticalAlign=middle;rounded=0;labelBackgroundColor=none;labelBorderColor=none;fontSize=4;fontColor=#cccccc;fontStyle=1;whiteSpace=wrap;" parent="QVSoskFH4548YTWzDZNm-47" vertex="1">
                    <mxGeometry x="12.870000000000005" width="17" height="10" as="geometry"/>
                </mxCell>
                <mxCell id="QVSoskFH4548YTWzDZNm-17" value="B+" style="text;html=1;strokeColor=none;fillColor=none;align=center;verticalAlign=middle;rounded=0;labelBackgroundColor=none;labelBorderColor=none;fontSize=4;fontColor=#cccccc;fontStyle=1;whiteSpace=wrap;" parent="QVSoskFH4548YTWzDZNm-47" vertex="1">
                    <mxGeometry x="25.620000000000005" width="17" height="10" as="geometry"/>
                </mxCell>
                <mxCell id="QVSoskFH4548YTWzDZNm-48" value="" style="group" vertex="1" connectable="0" parent="QVSoskFH4548YTWzDZNm-86">
                    <mxGeometry x="61" y="5.1299999999999955" width="46.75" height="16.75" as="geometry"/>
                </mxCell>
                <mxCell id="QVSoskFH4548YTWzDZNm-4" value="" style="ellipse;whiteSpace=wrap;html=1;aspect=fixed;labelBackgroundColor=#FFFFFF;labelBorderColor=#FF0000;fontSize=8;strokeWidth=2;strokeColor=none;fillColor=#CCCCCC;" parent="QVSoskFH4548YTWzDZNm-48" vertex="1">
                    <mxGeometry y="7.8700000000000045" width="8.75" height="8.75" as="geometry"/>
                </mxCell>
                <mxCell id="QVSoskFH4548YTWzDZNm-5" value="" style="ellipse;whiteSpace=wrap;html=1;aspect=fixed;labelBackgroundColor=#FFFFFF;labelBorderColor=#FF0000;fontSize=8;strokeWidth=2;strokeColor=none;fillColor=#CCCCCC;" parent="QVSoskFH4548YTWzDZNm-48" vertex="1">
                    <mxGeometry x="13" y="7.8700000000000045" width="8.75" height="8.75" as="geometry"/>
                </mxCell>
                <mxCell id="QVSoskFH4548YTWzDZNm-6" value="" style="ellipse;whiteSpace=wrap;html=1;aspect=fixed;labelBackgroundColor=#FFFFFF;labelBorderColor=#FF0000;fontSize=8;strokeWidth=2;strokeColor=none;fillColor=#CCCCCC;" parent="QVSoskFH4548YTWzDZNm-48" vertex="1">
                    <mxGeometry x="25" y="7.8700000000000045" width="8.75" height="8.75" as="geometry"/>
                </mxCell>
                <mxCell id="QVSoskFH4548YTWzDZNm-7" value="" style="ellipse;whiteSpace=wrap;html=1;aspect=fixed;labelBackgroundColor=#FFFFFF;labelBorderColor=#FF0000;fontSize=8;strokeWidth=2;strokeColor=none;fillColor=#CCCCCC;" parent="QVSoskFH4548YTWzDZNm-48" vertex="1">
                    <mxGeometry x="38" y="8" width="8.75" height="8.75" as="geometry"/>
                </mxCell>
                <mxCell id="QVSoskFH4548YTWzDZNm-18" value="+A-" style="text;html=1;strokeColor=none;fillColor=none;align=center;verticalAlign=middle;rounded=0;labelBackgroundColor=none;labelBorderColor=none;fontSize=4;fontColor=#cccccc;fontStyle=1;whiteSpace=wrap;" parent="QVSoskFH4548YTWzDZNm-48" vertex="1">
                    <mxGeometry x="2" width="17" height="10" as="geometry"/>
                </mxCell>
                <mxCell id="QVSoskFH4548YTWzDZNm-19" value="+B-" style="text;html=1;strokeColor=none;fillColor=none;align=center;verticalAlign=middle;rounded=0;labelBackgroundColor=none;labelBorderColor=none;fontSize=4;fontColor=#cccccc;fontStyle=1;whiteSpace=wrap;" parent="QVSoskFH4548YTWzDZNm-48" vertex="1">
                    <mxGeometry x="27" width="17" height="10" as="geometry"/>
                </mxCell>
                <mxCell id="QVSoskFH4548YTWzDZNm-50" value="" style="group" vertex="1" connectable="0" parent="QVSoskFH4548YTWzDZNm-86">
                    <mxGeometry x="116.5" y="8.5" width="28.5" height="20.129999999999995" as="geometry"/>
                </mxCell>
                <mxCell id="QVSoskFH4548YTWzDZNm-12" value="" style="rounded=1;whiteSpace=wrap;html=1;labelBackgroundColor=#FFFFFF;labelBorderColor=#FF0000;fontSize=8;strokeColor=#cccccc;strokeWidth=2;fillColor=#CCCCCC;" parent="QVSoskFH4548YTWzDZNm-50" vertex="1">
                    <mxGeometry x="5.5" y="0.12999999999999545" width="6" height="10" as="geometry"/>
                </mxCell>
                <mxCell id="QVSoskFH4548YTWzDZNm-13" value="" style="rounded=1;whiteSpace=wrap;html=1;labelBackgroundColor=#FFFFFF;labelBorderColor=#FF0000;fontSize=8;strokeColor=#cccccc;strokeWidth=2;fillColor=#CCCCCC;" parent="QVSoskFH4548YTWzDZNm-50" vertex="1">
                    <mxGeometry x="17.5" width="6" height="10" as="geometry"/>
                </mxCell>
                <mxCell id="QVSoskFH4548YTWzDZNm-20" value="RLC" style="text;html=1;strokeColor=none;fillColor=none;align=center;verticalAlign=middle;rounded=0;labelBackgroundColor=none;labelBorderColor=none;fontSize=4;fontColor=#cccccc;fontStyle=1;whiteSpace=wrap;" parent="QVSoskFH4548YTWzDZNm-50" vertex="1">
                    <mxGeometry y="10.129999999999995" width="17" height="10" as="geometry"/>
                </mxCell>
                <mxCell id="QVSoskFH4548YTWzDZNm-21" value="HLI" style="text;html=1;strokeColor=none;fillColor=none;align=center;verticalAlign=middle;rounded=0;labelBackgroundColor=none;labelBorderColor=none;fontSize=4;fontColor=#cccccc;fontStyle=1;whiteSpace=wrap;" parent="QVSoskFH4548YTWzDZNm-50" vertex="1">
                    <mxGeometry x="11.5" y="10.129999999999995" width="17" height="10" as="geometry"/>
                </mxCell>
                <mxCell id="QVSoskFH4548YTWzDZNm-87" value="" style="group" vertex="1" connectable="0" parent="jW0tcmKeyihmLjfxq5Ru-1">
                    <mxGeometry x="220" y="550" width="201" height="40" as="geometry"/>
                </mxCell>
                <mxCell id="QVSoskFH4548YTWzDZNm-0" value="" style="shape=image;verticalLabelPosition=bottom;labelBackgroundColor=#ffffff;verticalAlign=top;aspect=fixed;imageAspect=0;image=data:image/svg+xml,PHN2ZyB4bWxuczppbmtzY2FwZT0iaHR0cDovL3d3dy5pbmtzY2FwZS5vcmcvbmFtZXNwYWNlcy9pbmtzY2FwZSIgeG1sbnM6c29kaXBvZGk9Imh0dHA6Ly9zb2RpcG9kaS5zb3VyY2Vmb3JnZS5uZXQvRFREL3NvZGlwb2RpLTAuZHRkIiB4bWxucz0iaHR0cDovL3d3dy53My5vcmcvMjAwMC9zdmciIHhtbG5zOnN2Zz0iaHR0cDovL3d3dy53My5vcmcvMjAwMC9zdmciIHdpZHRoPSIyMDEuMjkzODJtbSIgaGVpZ2h0PSIzOS44OTYxNzJtbSIgdmlld0JveD0iMCAwIDIwMS4yOTM4MyAzOS44OTYxNzEiIHZlcnNpb249IjEuMSIgaWQ9InN2ZzQ2NCIgaW5rc2NhcGU6dmVyc2lvbj0iMS4yLjEgKDljNmQ0MWUsIDIwMjItMDctMTQpIiBzb2RpcG9kaTpkb2NuYW1lPSJhbXAtc3RlcmVvLnN2ZyI+CiAgPHNvZGlwb2RpOm5hbWVkdmlldyBpZD0ibmFtZWR2aWV3NDY2IiBwYWdlY29sb3I9IiNmZmZmZmYiIGJvcmRlcmNvbG9yPSIjMDAwMDAwIiBib3JkZXJvcGFjaXR5PSIwLjI1IiBpbmtzY2FwZTpzaG93cGFnZXNoYWRvdz0iMiIgaW5rc2NhcGU6cGFnZW9wYWNpdHk9IjAuMCIgaW5rc2NhcGU6cGFnZWNoZWNrZXJib2FyZD0iMCIgaW5rc2NhcGU6ZGVza2NvbG9yPSIjZDFkMWQxIiBpbmtzY2FwZTpkb2N1bWVudC11bml0cz0ibW0iIHNob3dncmlkPSJmYWxzZSIgaW5rc2NhcGU6em9vbT0iMSIgaW5rc2NhcGU6Y3g9IjM3OC41IiBpbmtzY2FwZTpjeT0iNDEzLjUiIGlua3NjYXBlOndpbmRvdy13aWR0aD0iMTM5MCIgaW5rc2NhcGU6d2luZG93LWhlaWdodD0iMTIwNSIgaW5rc2NhcGU6d2luZG93LXg9IjIwMyIgaW5rc2NhcGU6d2luZG93LXk9IjY5MyIgaW5rc2NhcGU6d2luZG93LW1heGltaXplZD0iMCIgaW5rc2NhcGU6Y3VycmVudC1sYXllcj0ibGF5ZXIxIi8+CiAgPGRlZnMgaWQ9ImRlZnM0NjEiLz4KICA8ZyBpbmtzY2FwZTpsYWJlbD0iTGF5ZXIgMSIgaW5rc2NhcGU6Z3JvdXBtb2RlPSJsYXllciIgaWQ9ImxheWVyMSIgdHJhbnNmb3JtPSJ0cmFuc2xhdGUoLTMuNDYyNTE3MiwtMzkuMzM2Mjc2KSI+CiAgICA8cGF0aCBpZD0icGF0aDM4NCIgc3R5bGU9ImZpbGw6bm9uZTtmaWxsLW9wYWNpdHk6MTtzdHJva2U6I2NjY2NjYztzdHJva2Utd2lkdGg6MztzdHJva2UtbGluZWpvaW46cm91bmQ7c3Ryb2tlLWRhc2hhcnJheTpub25lO3N0cm9rZS1vcGFjaXR5OjE7cGFpbnQtb3JkZXI6bm9ybWFsIiBkPSJtIDIwLjYwODM1NCw0MC44MzYyNzYgLTYuMzUsMy4yNzMxODUgQyA2LjcyNjA3LDQ3Ljk5MjAzNyA1LjQzMTc2OTUsNDguNzc1MDIyIDUuMDk5MjIzMSw0OS42NDk2OTIgNC45NDUxNTQzLDUwLjA1NDkyMSA0LjkxOTI1Nyw1NC4zODE5MjUgNS4wMzIwNDM4LDYwLjg3MTIyOSBMIDUuMjE1NDk1MSw3MS40MzMzNzUgNS45NTI0MDEsNzIuNTM5MjUgYyAwLjQwNTMyMjYsMC42MDgwNyAxLjUwOTc1NjgsMS44Njg0NTEgMi40NTQ2MzA2LDIuODAxMzggbCAxLjcxODI0MTQsMS42OTY1MzcgNC45NzY5NTcsMC4xOTQzMDMgYyAyLjczNzM1MSwwLjEwNjkgMTguNjY1MzM1LDAuMjEzMjYyIDM1LjM5NTc3MiwwLjIzNjE2MiAxNi43MzA0NCwwLjAyMjg5IDMwLjQ3MTAxNCwwLjA5MzA2IDMwLjUzNDA1NCwwLjE1NjA2MyAwLjIwMTIyNiwwLjIwMTIxOSAxMDMuMDczNTA0LDAuMDk4OTcgMTEwLjIxMzQyNCwtMC4xMDk1NTQgbCA2Ljg2MDA1LC0wLjIwMDUwNSAyLjA3MjIzLC0yLjE4Mzg0NiBjIDEuMTM5OTYsLTEuMjAxMjE5IDIuMjM0NTQsLTIuNTAyOTg3IDIuNDMxODksLTIuODkyODQ3IDAuMjc0NjgsLTAuNTQyNTg5IDAuNDAxMzIsLTMuMjI0NTY5IDAuNTQwNTMsLTExLjQzNjUxMSAwLjE3OTI5LC0xMC41NzU4ODkgMC4xNzM4NywtMTAuNzM3ODUyIC0wLjM2NDMyLC0xMS40MjIwNDIgLTAuNjQ4MzEsLTAuODI0MjA5IC0xLjkzOTIyLC0xLjU1NDA2NiAtOS43ODgwMywtNS41MzE5NjIgbCAtNS45Mzk2OSwtMy4wMTAxNTIgaCAtODMuMjI0ODkgeiIvPgogIDwvZz4KPC9zdmc+;" parent="QVSoskFH4548YTWzDZNm-87" vertex="1">
                    <mxGeometry width="201" height="40" as="geometry"/>
                </mxCell>
                <mxCell id="QVSoskFH4548YTWzDZNm-46" value="" style="group" vertex="1" connectable="0" parent="QVSoskFH4548YTWzDZNm-87">
                    <mxGeometry x="155" y="11.690000000000055" width="42.620000000000005" height="16.61999999999989" as="geometry"/>
                </mxCell>
                <mxCell id="QVSoskFH4548YTWzDZNm-14" value="" style="ellipse;whiteSpace=wrap;html=1;aspect=fixed;labelBackgroundColor=#FFFFFF;labelBorderColor=#FF0000;fontSize=8;strokeWidth=2;strokeColor=none;fillColor=#CCCCCC;" vertex="1" parent="QVSoskFH4548YTWzDZNm-46">
                    <mxGeometry x="4.1200000000000045" y="7.869999999999891" width="8.75" height="8.75" as="geometry"/>
                </mxCell>
                <mxCell id="QVSoskFH4548YTWzDZNm-25" value="" style="ellipse;whiteSpace=wrap;html=1;aspect=fixed;labelBackgroundColor=#FFFFFF;labelBorderColor=#FF0000;fontSize=8;strokeWidth=2;strokeColor=none;fillColor=#CCCCCC;" vertex="1" parent="QVSoskFH4548YTWzDZNm-46">
                    <mxGeometry x="16.870000000000005" y="7.869999999999891" width="8.75" height="8.75" as="geometry"/>
                </mxCell>
                <mxCell id="QVSoskFH4548YTWzDZNm-28" value="" style="ellipse;whiteSpace=wrap;html=1;aspect=fixed;labelBackgroundColor=#FFFFFF;labelBorderColor=#FF0000;fontSize=8;strokeWidth=2;strokeColor=none;fillColor=#CCCCCC;" vertex="1" parent="QVSoskFH4548YTWzDZNm-46">
                    <mxGeometry x="29.620000000000005" y="7.869999999999891" width="8.75" height="8.75" as="geometry"/>
                </mxCell>
                <mxCell id="QVSoskFH4548YTWzDZNm-29" value="REM" style="text;html=1;strokeColor=none;fillColor=none;align=center;verticalAlign=middle;rounded=0;labelBackgroundColor=none;labelBorderColor=none;fontSize=4;fontColor=#cccccc;fontStyle=1;whiteSpace=wrap;" vertex="1" parent="QVSoskFH4548YTWzDZNm-46">
                    <mxGeometry width="17" height="10" as="geometry"/>
                </mxCell>
                <mxCell id="QVSoskFH4548YTWzDZNm-30" value="GND" style="text;html=1;strokeColor=none;fillColor=none;align=center;verticalAlign=middle;rounded=0;labelBackgroundColor=none;labelBorderColor=none;fontSize=4;fontColor=#cccccc;fontStyle=1;whiteSpace=wrap;" vertex="1" parent="QVSoskFH4548YTWzDZNm-46">
                    <mxGeometry x="12.870000000000005" width="17" height="10" as="geometry"/>
                </mxCell>
                <mxCell id="QVSoskFH4548YTWzDZNm-31" value="B+" style="text;html=1;strokeColor=none;fillColor=none;align=center;verticalAlign=middle;rounded=0;labelBackgroundColor=none;labelBorderColor=none;fontSize=4;fontColor=#cccccc;fontStyle=1;whiteSpace=wrap;" vertex="1" parent="QVSoskFH4548YTWzDZNm-46">
                    <mxGeometry x="25.620000000000005" width="17" height="10" as="geometry"/>
                </mxCell>
                <mxCell id="QVSoskFH4548YTWzDZNm-63" value="" style="group" vertex="1" connectable="0" parent="QVSoskFH4548YTWzDZNm-87">
                    <mxGeometry x="92" y="1.6899999999999409" width="20" height="36.18999999999994" as="geometry"/>
                </mxCell>
                <mxCell id="QVSoskFH4548YTWzDZNm-57" value="" style="rounded=1;whiteSpace=wrap;html=1;labelBackgroundColor=#FFFFFF;labelBorderColor=#FF0000;fontSize=8;strokeColor=#cccccc;strokeWidth=2;fillColor=#CCCCCC;" vertex="1" parent="QVSoskFH4548YTWzDZNm-63">
                    <mxGeometry x="5.5" y="8.31000000000006" width="6" height="10" as="geometry"/>
                </mxCell>
                <mxCell id="QVSoskFH4548YTWzDZNm-58" value="RPL" style="text;html=1;strokeColor=none;fillColor=none;align=center;verticalAlign=middle;rounded=0;labelBackgroundColor=none;labelBorderColor=none;fontSize=4;fontColor=#cccccc;fontStyle=1;whiteSpace=wrap;" vertex="1" parent="QVSoskFH4548YTWzDZNm-63">
                    <mxGeometry width="17" height="10" as="geometry"/>
                </mxCell>
                <mxCell id="QVSoskFH4548YTWzDZNm-60" value="" style="rounded=1;whiteSpace=wrap;html=1;labelBackgroundColor=#FFFFFF;labelBorderColor=#FF0000;fontSize=8;strokeColor=#cccccc;strokeWidth=2;fillColor=#CCCCCC;" vertex="1" parent="QVSoskFH4548YTWzDZNm-63">
                    <mxGeometry x="5.5" y="22.690000000000055" width="6" height="10" as="geometry"/>
                </mxCell>
                <mxCell id="QVSoskFH4548YTWzDZNm-61" value="IN" style="text;html=1;strokeColor=none;fillColor=none;align=center;verticalAlign=middle;rounded=0;labelBackgroundColor=none;labelBorderColor=none;fontSize=4;fontColor=#cccccc;fontStyle=1;whiteSpace=wrap;rotation=90;" vertex="1" parent="QVSoskFH4548YTWzDZNm-63">
                    <mxGeometry x="6.5" y="8.309999999999945" width="17" height="10" as="geometry"/>
                </mxCell>
                <mxCell id="QVSoskFH4548YTWzDZNm-62" value="OUT" style="text;html=1;strokeColor=none;fillColor=none;align=center;verticalAlign=middle;rounded=0;labelBackgroundColor=none;labelBorderColor=none;fontSize=4;fontColor=#cccccc;fontStyle=1;whiteSpace=wrap;rotation=90;" vertex="1" parent="QVSoskFH4548YTWzDZNm-63">
                    <mxGeometry x="5.5" y="22.68999999999994" width="17" height="10" as="geometry"/>
                </mxCell>
                <mxCell id="QVSoskFH4548YTWzDZNm-64" value="" style="group" vertex="1" connectable="0" parent="QVSoskFH4548YTWzDZNm-87">
                    <mxGeometry x="111.75" y="7" width="45.25" height="30" as="geometry"/>
                </mxCell>
                <mxCell id="QVSoskFH4548YTWzDZNm-40" value="REAR" style="text;html=1;strokeColor=none;fillColor=none;align=center;verticalAlign=middle;rounded=0;labelBackgroundColor=none;labelBorderColor=none;fontSize=4;fontColor=#cccccc;fontStyle=1;whiteSpace=wrap;" vertex="1" parent="QVSoskFH4548YTWzDZNm-64">
                    <mxGeometry x="21.75" y="20" width="17" height="10" as="geometry"/>
                </mxCell>
                <mxCell id="QVSoskFH4548YTWzDZNm-33" value="" style="ellipse;whiteSpace=wrap;html=1;aspect=fixed;labelBackgroundColor=#FFFFFF;labelBorderColor=#FF0000;fontSize=8;strokeWidth=2;strokeColor=none;fillColor=#CCCCCC;" vertex="1" parent="QVSoskFH4548YTWzDZNm-64">
                    <mxGeometry x="15.25" width="8.75" height="8.75" as="geometry"/>
                </mxCell>
                <mxCell id="QVSoskFH4548YTWzDZNm-34" value="" style="ellipse;whiteSpace=wrap;html=1;aspect=fixed;labelBackgroundColor=#FFFFFF;labelBorderColor=#FF0000;fontSize=8;strokeWidth=2;strokeColor=none;fillColor=#CCCCCC;" vertex="1" parent="QVSoskFH4548YTWzDZNm-64">
                    <mxGeometry x="26" width="8.75" height="8.75" as="geometry"/>
                </mxCell>
                <mxCell id="QVSoskFH4548YTWzDZNm-35" value="" style="ellipse;whiteSpace=wrap;html=1;aspect=fixed;labelBackgroundColor=#FFFFFF;labelBorderColor=#FF0000;fontSize=8;strokeWidth=2;strokeColor=none;fillColor=#CCCCCC;" vertex="1" parent="QVSoskFH4548YTWzDZNm-64">
                    <mxGeometry x="15.25" y="11.25" width="8.75" height="8.75" as="geometry"/>
                </mxCell>
                <mxCell id="QVSoskFH4548YTWzDZNm-36" value="" style="ellipse;whiteSpace=wrap;html=1;aspect=fixed;labelBackgroundColor=#FFFFFF;labelBorderColor=#FF0000;fontSize=8;strokeWidth=2;strokeColor=none;fillColor=#CCCCCC;" vertex="1" parent="QVSoskFH4548YTWzDZNm-64">
                    <mxGeometry x="26" y="11.25" width="8.75" height="8.75" as="geometry"/>
                </mxCell>
                <mxCell id="QVSoskFH4548YTWzDZNm-37" value="L" style="text;html=1;strokeColor=none;fillColor=none;align=left;verticalAlign=middle;rounded=0;labelBackgroundColor=none;labelBorderColor=none;fontSize=4;fontColor=#cccccc;fontStyle=1;whiteSpace=wrap;" vertex="1" parent="QVSoskFH4548YTWzDZNm-64">
                    <mxGeometry x="34.75" width="10.5" height="10" as="geometry"/>
                </mxCell>
                <mxCell id="QVSoskFH4548YTWzDZNm-38" value="R" style="text;html=1;strokeColor=none;fillColor=none;align=left;verticalAlign=middle;rounded=0;labelBackgroundColor=none;labelBorderColor=none;fontSize=4;fontColor=#cccccc;fontStyle=1;whiteSpace=wrap;" vertex="1" parent="QVSoskFH4548YTWzDZNm-64">
                    <mxGeometry x="35.25" y="11.25" width="10" height="10" as="geometry"/>
                </mxCell>
                <mxCell id="QVSoskFH4548YTWzDZNm-39" value="PT" style="text;html=1;strokeColor=none;fillColor=none;align=center;verticalAlign=middle;rounded=0;labelBackgroundColor=none;labelBorderColor=none;fontSize=4;fontColor=#cccccc;fontStyle=1;whiteSpace=wrap;" vertex="1" parent="QVSoskFH4548YTWzDZNm-64">
                    <mxGeometry x="11.129999999999995" y="20" width="17" height="10" as="geometry"/>
                </mxCell>
                <mxCell id="QVSoskFH4548YTWzDZNm-41" value="" style="ellipse;whiteSpace=wrap;html=1;aspect=fixed;labelBackgroundColor=#FFFFFF;labelBorderColor=#FF0000;fontSize=8;strokeWidth=2;strokeColor=none;fillColor=#CCCCCC;" vertex="1" parent="QVSoskFH4548YTWzDZNm-64">
                    <mxGeometry x="4.1200000000000045" width="8.75" height="8.75" as="geometry"/>
                </mxCell>
                <mxCell id="QVSoskFH4548YTWzDZNm-42" value="" style="ellipse;whiteSpace=wrap;html=1;aspect=fixed;labelBackgroundColor=#FFFFFF;labelBorderColor=#FF0000;fontSize=8;strokeWidth=2;strokeColor=none;fillColor=#CCCCCC;" vertex="1" parent="QVSoskFH4548YTWzDZNm-64">
                    <mxGeometry x="4.1200000000000045" y="11.25" width="8.75" height="8.75" as="geometry"/>
                </mxCell>
                <mxCell id="QVSoskFH4548YTWzDZNm-43" value="FRNT" style="text;html=1;strokeColor=none;fillColor=none;align=center;verticalAlign=middle;rounded=0;labelBackgroundColor=none;labelBorderColor=none;fontSize=4;fontColor=#cccccc;fontStyle=1;whiteSpace=wrap;" vertex="1" parent="QVSoskFH4548YTWzDZNm-64">
                    <mxGeometry y="20" width="17" height="10" as="geometry"/>
                </mxCell>
                <mxCell id="QVSoskFH4548YTWzDZNm-85" value="" style="group" vertex="1" connectable="0" parent="QVSoskFH4548YTWzDZNm-87">
                    <mxGeometry x="6.689999999999998" y="4.690000000000055" width="84.06" height="28.860000000000014" as="geometry"/>
                </mxCell>
                <mxCell id="QVSoskFH4548YTWzDZNm-51" value="" style="ellipse;whiteSpace=wrap;html=1;aspect=fixed;labelBackgroundColor=#FFFFFF;labelBorderColor=#FF0000;fontSize=8;strokeWidth=2;strokeColor=none;fillColor=#CCCCCC;" vertex="1" parent="QVSoskFH4548YTWzDZNm-85">
                    <mxGeometry x="0.4399999999999977" y="11.769999999999982" width="8.75" height="8.75" as="geometry"/>
                </mxCell>
                <mxCell id="QVSoskFH4548YTWzDZNm-52" value="" style="ellipse;whiteSpace=wrap;html=1;aspect=fixed;labelBackgroundColor=#FFFFFF;labelBorderColor=#FF0000;fontSize=8;strokeWidth=2;strokeColor=none;fillColor=#CCCCCC;" vertex="1" parent="QVSoskFH4548YTWzDZNm-85">
                    <mxGeometry x="11.189999999999998" y="11.769999999999982" width="8.75" height="8.75" as="geometry"/>
                </mxCell>
                <mxCell id="QVSoskFH4548YTWzDZNm-53" value="" style="ellipse;whiteSpace=wrap;html=1;aspect=fixed;labelBackgroundColor=#FFFFFF;labelBorderColor=#FF0000;fontSize=8;strokeWidth=2;strokeColor=none;fillColor=#CCCCCC;" vertex="1" parent="QVSoskFH4548YTWzDZNm-85">
                    <mxGeometry x="21.939999999999998" y="11.889999999999986" width="8.75" height="8.75" as="geometry"/>
                </mxCell>
                <mxCell id="QVSoskFH4548YTWzDZNm-54" value="" style="ellipse;whiteSpace=wrap;html=1;aspect=fixed;labelBackgroundColor=#FFFFFF;labelBorderColor=#FF0000;fontSize=8;strokeWidth=2;strokeColor=none;fillColor=#CCCCCC;" vertex="1" parent="QVSoskFH4548YTWzDZNm-85">
                    <mxGeometry x="32.69" y="11.889999999999986" width="8.75" height="8.75" as="geometry"/>
                </mxCell>
                <mxCell id="QVSoskFH4548YTWzDZNm-65" value="" style="ellipse;whiteSpace=wrap;html=1;aspect=fixed;labelBackgroundColor=#FFFFFF;labelBorderColor=#FF0000;fontSize=8;strokeWidth=2;strokeColor=none;fillColor=#CCCCCC;" vertex="1" parent="QVSoskFH4548YTWzDZNm-85">
                    <mxGeometry x="43.06" y="11.990000000000009" width="8.75" height="8.75" as="geometry"/>
                </mxCell>
                <mxCell id="QVSoskFH4548YTWzDZNm-66" value="" style="ellipse;whiteSpace=wrap;html=1;aspect=fixed;labelBackgroundColor=#FFFFFF;labelBorderColor=#FF0000;fontSize=8;strokeWidth=2;strokeColor=none;fillColor=#CCCCCC;" vertex="1" parent="QVSoskFH4548YTWzDZNm-85">
                    <mxGeometry x="53.81" y="11.990000000000009" width="8.75" height="8.75" as="geometry"/>
                </mxCell>
                <mxCell id="QVSoskFH4548YTWzDZNm-67" value="" style="ellipse;whiteSpace=wrap;html=1;aspect=fixed;labelBackgroundColor=#FFFFFF;labelBorderColor=#FF0000;fontSize=8;strokeWidth=2;strokeColor=none;fillColor=#CCCCCC;" vertex="1" parent="QVSoskFH4548YTWzDZNm-85">
                    <mxGeometry x="64.56" y="12.110000000000014" width="8.75" height="8.75" as="geometry"/>
                </mxCell>
                <mxCell id="QVSoskFH4548YTWzDZNm-68" value="" style="ellipse;whiteSpace=wrap;html=1;aspect=fixed;labelBackgroundColor=#FFFFFF;labelBorderColor=#FF0000;fontSize=8;strokeWidth=2;strokeColor=none;fillColor=#CCCCCC;" vertex="1" parent="QVSoskFH4548YTWzDZNm-85">
                    <mxGeometry x="75.31" y="12.110000000000014" width="8.75" height="8.75" as="geometry"/>
                </mxCell>
                <mxCell id="QVSoskFH4548YTWzDZNm-69" value="+" style="text;html=1;strokeColor=none;fillColor=none;align=center;verticalAlign=middle;rounded=0;labelBackgroundColor=none;labelBorderColor=none;fontSize=4;fontColor=#cccccc;fontStyle=1;whiteSpace=wrap;" vertex="1" parent="QVSoskFH4548YTWzDZNm-85">
                    <mxGeometry y="4.1099999999999" width="9.62" height="10" as="geometry"/>
                </mxCell>
                <mxCell id="QVSoskFH4548YTWzDZNm-70" value="-" style="text;html=1;strokeColor=none;fillColor=none;align=center;verticalAlign=middle;rounded=0;labelBackgroundColor=none;labelBorderColor=none;fontSize=4;fontColor=#cccccc;fontStyle=1;whiteSpace=wrap;" vertex="1" parent="QVSoskFH4548YTWzDZNm-85">
                    <mxGeometry x="10.75" y="4.1099999999999" width="9.62" height="10" as="geometry"/>
                </mxCell>
                <mxCell id="QVSoskFH4548YTWzDZNm-73" value="+" style="text;html=1;strokeColor=none;fillColor=none;align=center;verticalAlign=middle;rounded=0;labelBackgroundColor=none;labelBorderColor=none;fontSize=4;fontColor=#cccccc;fontStyle=1;whiteSpace=wrap;" vertex="1" parent="QVSoskFH4548YTWzDZNm-85">
                    <mxGeometry x="21.069999999999993" y="4.1099999999999" width="9.62" height="10" as="geometry"/>
                </mxCell>
                <mxCell id="QVSoskFH4548YTWzDZNm-74" value="-" style="text;html=1;strokeColor=none;fillColor=none;align=center;verticalAlign=middle;rounded=0;labelBackgroundColor=none;labelBorderColor=none;fontSize=4;fontColor=#cccccc;fontStyle=1;whiteSpace=wrap;" vertex="1" parent="QVSoskFH4548YTWzDZNm-85">
                    <mxGeometry x="31.819999999999993" y="4.1099999999999" width="9.62" height="10" as="geometry"/>
                </mxCell>
                <mxCell id="QVSoskFH4548YTWzDZNm-75" value="+" style="text;html=1;strokeColor=none;fillColor=none;align=center;verticalAlign=middle;rounded=0;labelBackgroundColor=none;labelBorderColor=none;fontSize=4;fontColor=#cccccc;fontStyle=1;whiteSpace=wrap;" vertex="1" parent="QVSoskFH4548YTWzDZNm-85">
                    <mxGeometry x="42.620000000000005" y="4.1099999999999" width="9.62" height="10" as="geometry"/>
                </mxCell>
                <mxCell id="QVSoskFH4548YTWzDZNm-76" value="-" style="text;html=1;strokeColor=none;fillColor=none;align=center;verticalAlign=middle;rounded=0;labelBackgroundColor=none;labelBorderColor=none;fontSize=4;fontColor=#cccccc;fontStyle=1;whiteSpace=wrap;" vertex="1" parent="QVSoskFH4548YTWzDZNm-85">
                    <mxGeometry x="53.370000000000005" y="4.1099999999999" width="9.62" height="10" as="geometry"/>
                </mxCell>
                <mxCell id="QVSoskFH4548YTWzDZNm-77" value="+" style="text;html=1;strokeColor=none;fillColor=none;align=center;verticalAlign=middle;rounded=0;labelBackgroundColor=none;labelBorderColor=none;fontSize=4;fontColor=#cccccc;fontStyle=1;whiteSpace=wrap;" vertex="1" parent="QVSoskFH4548YTWzDZNm-85">
                    <mxGeometry x="63.69" y="4.1099999999999" width="9.62" height="10" as="geometry"/>
                </mxCell>
                <mxCell id="QVSoskFH4548YTWzDZNm-78" value="-" style="text;html=1;strokeColor=none;fillColor=none;align=center;verticalAlign=middle;rounded=0;labelBackgroundColor=none;labelBorderColor=none;fontSize=4;fontColor=#cccccc;fontStyle=1;whiteSpace=wrap;" vertex="1" parent="QVSoskFH4548YTWzDZNm-85">
                    <mxGeometry x="74.44" y="4.1099999999999" width="9.62" height="10" as="geometry"/>
                </mxCell>
                <mxCell id="QVSoskFH4548YTWzDZNm-79" value="FRONT" style="text;html=1;strokeColor=none;fillColor=none;align=center;verticalAlign=middle;rounded=0;labelBackgroundColor=none;labelBorderColor=none;fontSize=4;fontColor=#cccccc;fontStyle=1;whiteSpace=wrap;" vertex="1" parent="QVSoskFH4548YTWzDZNm-85">
                    <mxGeometry x="12.189999999999998" width="17" height="10" as="geometry"/>
                </mxCell>
                <mxCell id="QVSoskFH4548YTWzDZNm-80" value="REAR" style="text;html=1;strokeColor=none;fillColor=none;align=center;verticalAlign=middle;rounded=0;labelBackgroundColor=none;labelBorderColor=none;fontSize=4;fontColor=#cccccc;fontStyle=1;whiteSpace=wrap;" vertex="1" parent="QVSoskFH4548YTWzDZNm-85">
                    <mxGeometry x="54.44" width="17" height="10" as="geometry"/>
                </mxCell>
                <mxCell id="QVSoskFH4548YTWzDZNm-81" value="L" style="text;html=1;strokeColor=none;fillColor=none;align=center;verticalAlign=middle;rounded=0;labelBackgroundColor=none;labelBorderColor=none;fontSize=4;fontColor=#cccccc;fontStyle=1;whiteSpace=wrap;" vertex="1" parent="QVSoskFH4548YTWzDZNm-85">
                    <mxGeometry x="0.9399999999999977" y="18.860000000000014" width="17" height="10" as="geometry"/>
                </mxCell>
                <mxCell id="QVSoskFH4548YTWzDZNm-82" value="R" style="text;html=1;strokeColor=none;fillColor=none;align=center;verticalAlign=middle;rounded=0;labelBackgroundColor=none;labelBorderColor=none;fontSize=4;fontColor=#cccccc;fontStyle=1;whiteSpace=wrap;" vertex="1" parent="QVSoskFH4548YTWzDZNm-85">
                    <mxGeometry x="23.939999999999998" y="18.860000000000014" width="17" height="10" as="geometry"/>
                </mxCell>
                <mxCell id="QVSoskFH4548YTWzDZNm-83" value="L" style="text;html=1;strokeColor=none;fillColor=none;align=center;verticalAlign=middle;rounded=0;labelBackgroundColor=none;labelBorderColor=none;fontSize=4;fontColor=#cccccc;fontStyle=1;whiteSpace=wrap;" vertex="1" parent="QVSoskFH4548YTWzDZNm-85">
                    <mxGeometry x="44.06" y="18.860000000000014" width="17" height="10" as="geometry"/>
                </mxCell>
                <mxCell id="QVSoskFH4548YTWzDZNm-84" value="R" style="text;html=1;strokeColor=none;fillColor=none;align=center;verticalAlign=middle;rounded=0;labelBackgroundColor=none;labelBorderColor=none;fontSize=4;fontColor=#cccccc;fontStyle=1;whiteSpace=wrap;" vertex="1" parent="QVSoskFH4548YTWzDZNm-85">
                    <mxGeometry x="66.06" y="18.860000000000014" width="17" height="10" as="geometry"/>
                </mxCell>
            </root>
        </mxGraphModel>
    </diagram>
</mxfile>
